<mxfile host="app.diagrams.net" modified="2024-06-19T11:22:45.150Z" agent="Mozilla/5.0 (Macintosh; Intel Mac OS X 10_15_7) AppleWebKit/537.36 (KHTML, like Gecko) Chrome/126.0.0.0 Safari/537.36" etag="3_VPL_U1K0LfffytrawK" version="24.5.5" type="device">
  <diagram name="Page-1" id="uEHsPccwYDxXQezhVAvB">
    <mxGraphModel dx="3088" dy="1963" grid="1" gridSize="10" guides="1" tooltips="1" connect="1" arrows="1" fold="1" page="1" pageScale="1" pageWidth="827" pageHeight="1169" math="0" shadow="0">
      <root>
        <mxCell id="0" />
        <mxCell id="1" parent="0" />
        <mxCell id="sVRV8ydl0Pa446DgSfbg-1" value="Main DB&lt;br&gt;Postgres" style="image;aspect=fixed;perimeter=ellipsePerimeter;html=1;align=center;shadow=0;dashed=0;spacingTop=3;image=img/lib/active_directory/databases.svg;" parent="1" vertex="1">
          <mxGeometry x="114.5" y="190.44" width="50" height="49" as="geometry" />
        </mxCell>
        <mxCell id="sVRV8ydl0Pa446DgSfbg-2" value="Warehouse&lt;br&gt;Clickhouse" style="image;aspect=fixed;html=1;points=[];align=center;fontSize=12;image=img/lib/azure2/integration/SQL_Data_Warehouses.svg;" parent="1" vertex="1">
          <mxGeometry x="464.5" y="182.44" width="64" height="65" as="geometry" />
        </mxCell>
        <mxCell id="sVRV8ydl0Pa446DgSfbg-4" value="Visualisation&#xa;Metabase" style="shape=image;verticalLabelPosition=bottom;labelBackgroundColor=default;verticalAlign=top;aspect=fixed;imageAspect=0;image=data:image/svg+xml,PHN2ZyB4bWxucz0iaHR0cDovL3d3dy53My5vcmcvMjAwMC9zdmciIHByZXNlcnZlQXNwZWN0UmF0aW89InhNaWRZTWlkIiB2aWV3Qm94PSIwIDAgMjU2IDMyMy42ODA5NjkyMzgyODEyNSIgaGVpZ2h0PSIyNDk3LjUzODM0Mjg4Nzk3MjciIHdpZHRoPSIxOTc0Ljk5OTk5OTk5OTk5OTgiPjxnIGZpbGw9IiM1MDlFRTMiPjxlbGxpcHNlIHJ5PSIxOS43MDQiIHJ4PSIxOS4zOTQiIGN5PSI4Mi43NTciIGN4PSIxOS4zOTQiLz48ZWxsaXBzZSByeT0iMTkuNzA0IiByeD0iMTkuMzk0IiBjeT0iMTM3LjkyOCIgY3g9IjE5LjM5NCIvPjxlbGxpcHNlIHJ5PSIxOS43MDQiIHJ4PSIxOS4zOTQiIGN5PSI4Mi43NTciIGN4PSI3My42OTciIG9wYWNpdHk9Ii4yIi8+PGVsbGlwc2Ugcnk9IjE5LjcwNCIgcng9IjE5LjM5NCIgY3k9IjEzOC40NjQiIGN4PSI3My42OTciLz48ZWxsaXBzZSByeT0iMTkuNzA0IiByeD0iMTkuMzk0IiBjeT0iODIuNzU3IiBjeD0iMTI4IiBvcGFjaXR5PSIuMiIvPjxlbGxpcHNlIHJ5PSIxOS43MDQiIHJ4PSIxOS4zOTQiIGN5PSIxOS43MDQiIGN4PSIxMjgiIG9wYWNpdHk9Ii4yIi8+PGVsbGlwc2Ugcnk9IjE5LjcwNCIgcng9IjE5LjM5NCIgY3k9IjEzOC40NjQiIGN4PSIxMjgiIG9wYWNpdHk9Ii4yIi8+PGVsbGlwc2Ugcnk9IjE5LjcwNCIgcng9IjE5LjM5NCIgY3k9IjgyLjc1NyIgY3g9IjE4Mi4zMDMiIG9wYWNpdHk9Ii4yIi8+PGVsbGlwc2Ugcnk9IjE5LjcwNCIgcng9IjE5LjM5NCIgY3k9IjgyLjc1NyIgY3g9IjIzNi42MDYiLz48ZWxsaXBzZSByeT0iMTkuNzA0IiByeD0iMTkuMzk0IiBjeT0iMTM4LjQ2NCIgY3g9IjE4Mi4zMDMiLz48ZWxsaXBzZSByeT0iMTkuNzA0IiByeD0iMTkuMzk0IiBjeT0iMTM4LjQ2NCIgY3g9IjIzNi42MDYiLz48ZWxsaXBzZSByeT0iMTkuNzA0IiByeD0iMTkuMzk0IiBjeT0iMTkzLjA5OSIgY3g9IjE5LjM5NCIvPjxlbGxpcHNlIHJ5PSIxOS43MDQiIHJ4PSIxOS4zOTQiIGN5PSIxOTMuNjM1IiBjeD0iNzMuNjk3IiBvcGFjaXR5PSIuMiIvPjxlbGxpcHNlIHJ5PSIxOS43MDQiIHJ4PSIxOS4zOTQiIGN5PSIxOTMuNjM1IiBjeD0iMTI4Ii8+PGVsbGlwc2Ugcnk9IjE5LjcwNCIgcng9IjE5LjM5NCIgY3k9IjE5My42MzUiIGN4PSIxODIuMzAzIiBvcGFjaXR5PSIuMiIvPjxlbGxpcHNlIHJ5PSIxOS43MDQiIHJ4PSIxOS4zOTQiIGN5PSIxOTMuNjM1IiBjeD0iMjM2LjYwNiIvPjxlbGxpcHNlIHJ5PSIxOS43MDQiIHJ4PSIxOS4zOTQiIGN5PSIyNDguMjciIGN4PSIxOS4zOTQiLz48ZWxsaXBzZSByeT0iMTkuNzA0IiByeD0iMTkuMzk0IiBjeT0iMjQ4LjgwNiIgY3g9IjczLjY5NyIgb3BhY2l0eT0iLjIiLz48ZWxsaXBzZSByeT0iMTkuNzA0IiByeD0iMTkuMzk0IiBjeT0iMjQ4LjgwNiIgY3g9IjEyOCIgb3BhY2l0eT0iLjIiLz48ZWxsaXBzZSByeT0iMTkuNzA0IiByeD0iMTkuMzk0IiBjeT0iMzAzLjk3NyIgY3g9IjEyOCIgb3BhY2l0eT0iLjIiLz48ZWxsaXBzZSByeT0iMTkuNzA0IiByeD0iMTkuMzk0IiBjeT0iMjQ4LjgwNiIgY3g9IjE4Mi4zMDMiIG9wYWNpdHk9Ii4yIi8+PGVsbGlwc2Ugcnk9IjE5LjcwNCIgcng9IjE5LjM5NCIgY3k9IjI0OC44MDYiIGN4PSIyMzYuNjA2Ii8+PC9nPjwvc3ZnPg==;" parent="1" vertex="1">
          <mxGeometry x="644.5" y="180" width="57.58" height="72.81" as="geometry" />
        </mxCell>
        <mxCell id="n8y3GHhv3eQLkhhlIx0I-4" value="" style="edgeStyle=orthogonalEdgeStyle;rounded=0;orthogonalLoop=1;jettySize=auto;html=1;" edge="1" parent="1" source="sVRV8ydl0Pa446DgSfbg-5" target="sVRV8ydl0Pa446DgSfbg-2">
          <mxGeometry relative="1" as="geometry" />
        </mxCell>
        <mxCell id="n8y3GHhv3eQLkhhlIx0I-5" style="edgeStyle=orthogonalEdgeStyle;rounded=0;orthogonalLoop=1;jettySize=auto;html=1;entryX=1;entryY=0.5;entryDx=0;entryDy=0;" edge="1" parent="1" source="sVRV8ydl0Pa446DgSfbg-5" target="sVRV8ydl0Pa446DgSfbg-1">
          <mxGeometry relative="1" as="geometry" />
        </mxCell>
        <mxCell id="sVRV8ydl0Pa446DgSfbg-5" value="EL&#xa;Airbyte" style="shape=image;verticalLabelPosition=bottom;labelBackgroundColor=default;verticalAlign=top;aspect=fixed;imageAspect=0;image=data:image/png,iVBORw0KGgoAAAANSUhEUgAAASIAAAEsCAMAAABQak70AAADAFBMVEVHcExPWqZPWqZPWqZPWqZPWqZPWqZPWqZPWqZPWqZPWqZPWqZPWqZPWqZPWqZPWqZPWqZPWqZPWqZPWqZPWqZPWqZPWqZPWqZPWqZPWqZPWqZPWqZPWqZPWqZPWqZPWqZPWqZPWqZPWqZPWqZPWqZPWqZPWqZPWqZPWqZPWqZPWqZPWqZPWqZPWqZPWqZPWqZPWqZPWqZPWqZPWqZPWqZPWqZPWqZPWqZPWqZPWqZPWqZPWqZPWqZPWqZPWqZPWqZPWqZPWqZPWqZPWqZPWqZPWqZPWqZPWqZPWqZPWqZPWqZPWqZPWqZPWqZPWqZPWqZPWqZPWqZPWqZPWqZPWqZPWqZPWqZPWqZPWqZPWqZPWqZPWqZPWqZPWqZPWqZPWqZPWqZPWqZPWqZPWqZPWqZPWqZPWqZPWqZPWqZPWqZPWqZPWqZPWqZPWqZPWqZPWqZPWqZPWqZPWqZPWqZPWqZPWqZPWqZPWqZPWqZPWqZPWqZPWqZPWqZPWqZPWqZPWqZPWqZPWqZPWqZPWqZPWqZPWqZPWqZPWqZPWqZPWqZPWqZPWqZPWqZPWqZPWqZPWqZPWqZPWqZPWqZPWqZPWqZPWqZPWqZPWqZPWqZPWqZPWqZPWqZPWqZPWqZPWqZPWqZPWqZPWqZPWqZPWqZPWqZPWqZPWqZPWqZPWqZPWqZPWqZPWqZPWqZPWqZPWqZPWqZPWqZPWqZPWqZPWqZPWqZPWqZPWqZPWqZPWqZPWqZPWqZPWqZPWqZPWqZPWqZPWqZPWqZPWqZPWqZPWqZPWqZPWqZPWqZPWqZPWqZPWqZPWqZPWqZPWqZPWqZPWqZPWqZPWqZPWqZPWqZPWqZPWqZPWqZPWqZPWqZPWqZPWqZPWqZPWqZPWqZPWqZPWqZPWqZPWqZPWqZPWqZPWqZPWqZPWqZPWqZPWqZPWqZPWqZPWqZPWqZPWqZPWqZPWqZPWqZPWqZPWqZPWqZPWqZPWqZPWqZPWqZPWqZPWqZPWqZPWqZPWqZPWqZPWqZPWqZPWqb/aEchAAABAHRSTlMAAQoZLkZfeZKovMza5ezy9/j17+jf0sSynIVrUTghEAMFFzJTeLvT5vr+//z23Maph2I/IAsNK1Wx1e77/fTgwZdmORYqW5PF8dSmbxIUQoDn8JRUH0qQzqRdDkGM0N6gUihzwtGGNgdHnuPtr1dh+cpxHnLZgifXiBt2gyNodBgIT8Ax8zsC6UVQlcPNTgQP6q26NBEanawtOt3iZ+sG5Mm+1nuwWAkMTaKRfkgdYI6BFTBwy22KoRN9amw84UCzXMgpdbRD2D1lNataVscltbkmpSSZST6/Iix3n38zi2OqL5jbt2TPepu9o2lLlqdehEwcjXy2Wa43uIlEmo9uh3AoMQAAGMxJREFUeAHk0ONiHFEUAOAT27Yx9yxiz8a2bdu2bbMOauvp2v/l+s7me4QPOEBNXUNTS1tHV0/fwNDI2MTU7CdzC0sraxtbO3sHRydnF1e4v9zcPTy97Lx9fE0Ygr9DeHxjgdDPPyAwKBjunZDQMPvwiMgo/B+sKDomNi4+wRXuC/XEpOQUyygUD5ualp4Rn6kGqk4tKztHP5eHkiF5BvkFha6q/JNQVFwiIigVRlBa5qyiS+UVlVV8lIWo6ppad1A1rnX1DSYoO2aNTc0toEJCWtvaWZQt0tHZlQUqwr1bX4Ty0NPbF6QG3Nc/UMKgvLCDQ8NcTyrUGWFRnojVaB2Xk8bGxQ+SIGliEjgqc6qKh4pABqdngINm5+YZVBReb1IwcIzaQukiKpJp59IycEmWTjsq2or9GHCG6+o8DxWP7V1zA26Y8e9A5TBZLwQOWM7eYFFZyObWNtBuR2cXlcmiKQvolrjHoHLx9g+AYstzEah81WVuQKtgrw6kgYn/IdDp6LgH6cA7mQQaneoTpEbvGdCnwhppcu6oBnRRC7tAuuxebgNNtuOukDYmOrNAjwf1qSglHr/joWHjo4Z578cxws0nVismDEHpmPoHAy1anpqjxIip7+az4oHr7IXJo8zyYPXZG/Vbl4TCxPi7uInnMeepLEqMeVFOy9BLU5QMa2xQ0/dq+HAbfk8t+HX8m7f6Fz0omaj8ckqG+CgBImq0C1g4XIZ/upmc85+/Yrl75KYjwRDJ23hX8V4N/lvwB4dwX1aCI91bUDbXjyIUF//TxFIIiKsl8fO+BYqL+XIDyqUWkIfiIUZf776BZNSXKgd5KB6z726gVGsrP5i7C/CozqYNwM8m9caDa3Cyz6aGw26CcyGhH+5awQJN6o7mXzwp7sED9eLu7u5Wd3f73b5KZt5z9uxu7sstMkdem5lDS7zVXq2TA/tcj20uHk9LUrf4EUZb59KK5EWbn0Wgpg+bmkIrMoYhfJ66kxZ4sxqvghNqV64aTwu2bUe4rNpBc77665rCKT127vLQXNfdCI+Rt/lorN3DneCkpnvm0tzeVQiL0ik0FTdrgB8Oa1YylqbcXQYiDPZVp6n999WC8/L63emmoZT5CL2ai2gobkN/BMfrXVrS0JADCLX8wTSUdjAfwVKhYysamvgsQuzFOBrxVT2EYOp/OJlmWuQhpA6l0UjCK00RXLmvJtJI9hGEUvkdNFJk80AEW9LRPjSypD9CaI+XJvZ3diEEmiyikb75CJkBQ2ji2DSExvETbhpIuQWhUnsoTZw8hVCJPO2hgVZnECKNM6lzD30doZN+1ksDHXIQEmeWUOeeEolQ6nGbl7rEcwiFpC7hi5CgdgsvdXekIwTOL6BuxwyEWo+zPqq8pRF8K5ZRd6EcQi/9tJuq+hcRdDvjqOp6CeEQeYK6Ugi2GWupKnoA4XEqi6p5NyHINrmpaXAU4TKnD1Ut/Aiq1duoybzsR9gsb09Nu2kIpryZVF2phfBJuuqlppEfQdS5JTW7OiGccmdR0+4agmf6HdQU2Yfwalafmi4uBM3mZCq8VVwIs2GxVGzbjWC5WJ+aEuURbhVaUHMVQeK/Ts2QAQi/ml2pKPYsgmNOESo8l1EYHE2lzHMDQRHxNjUX2qIwGNiXipO1EAzDEqho3xmFwztplLXcjiAYcYyamRVQSCx1U/YKguCyj4ohY1BYPDuJsqdfh+Mu9aHmXhQeB5Mp8u6E0yq8S817x1F4pD9I2e0V4LCbE63Px8KqeyZF856Cs3Lfp+au4wg/89vI1xjOOphZCN9Esg+8FB2uACd1eoia6JtQuIz4kKJtZ+AgVymqSiYhEP6IVZ3631RpdZ0XInMrwBEfUeRpDgcNqE5N7DjY5V81oHup1g2rpbWLSWzw0sKorB0d2gy6mI9A7Z5H0ccuOGZka6o+qQ1bRs5u/GmxRB//yB23beqT41a5EIikwRQ91BSO6ZdKjXsdbPCf+ezEWB8LkPBhrxq1EIDPUyjJPg+nrJpI1banYNnArV8U9VDUsup9FWHbxiyK9sApj3uoOp0Di/J6ftmAuuRJ6+wH6UmKZuXAGf3fo8rbHNa4Vg9OpBnv2q9WwJ6t7Sl5egYckdSCurnlYEnbj4bQXNyyJi7YkVs8JC+j+zOoa50EC1znF3toSfUq5WHH1xRtgRNql6DOfRAWRKxpR6u8y+rAhnEJlJSEE26Jp27sTTAXWTKeNiz5xgXLRrSipPgKBO7brjTQcAWM7Z7qpi0vfVYBVvk3UDLkBQTuH24a+A7GDq2lXanfj4RVn1GScD8CVmkIDXiGwdSAYrQvrlQ+LCrbnpLGCNTADTQxdjYMTSvGQMS/lQdrmlaj5DoCtTKWJrLKw0z/LAYm5XE/LEk6HNz5dfpiGvnUDyMjfmCgEn+ENa9Ssms6ArPOSyMfwUh+IzcDVrQJLKnrpWDuCwjI8adpxFsZRjbH0QENZ8CKaw0oyJiDQPjfpJnEaTBRdh4d0aUCLJgRRUFKZQTiwEs0M/d1GJh+gs5oWQYWRIymwLMOAaj1Ew0dqw0Da7x0yKIZMOc6TcnDCMCRFBoamgPd7rvoFPdVWLCekpmwLzKLpt6Fzn8bnbPtJphbQ0kJpxJ0ZE9C93MROugVP4wd8VEwEbbdlEZjbaDyv0snRa+GsdfiKSgGuyqUpDH3LVC9E01HXYexOdkU9IFd59rTmLcfVM/TWVHlYGp1BgXVYVP5qTSXeQ6ayIfoLN9nMPVUOwoyYNOLyTSXcj80dTPpsF8iYOjiEApawp5yrWhBwnYo/FdowNtuUb0v3666P9tNXcw0GOpUlIIU2OL6lc6G6PUoqhKHvtEsN8fvHxlZ4/liHqoecCZE8bClSTuHQ7QynorMHfcPxP+ZMbwoNSXyYOaxIIQo/x46HKJ7qch4rgf+oNJUN2VpF2Gm5jYKUmHH0QRaEnczZPlTKRt7xI8/ibzdTVH85zBzJpqC9rCh4t20xjsZsk59KIq9z84m7kcwU2csBQtgwx4frfEdgex8KiXuXjn4Gze9R9FpP4xMS6RgIaxrNpdWfQbZG25Kur6Ov1XaS8mxHjCyPYGCKFiW8wUtWwrZPyjxlcbfW7WIkj6PwcioZAomwbLfGtCyLpB9TElUJxTgOUoyVsPIDUoWw6oeJ2jdl35IcpZR0tePAlyL0dc9uqWUHIZVNzJp3YUISPIX23yTTV+rbzDoJlAyARY91ps2LKkISY9dNmdVSbMocHeHiQr1KHC/Couepx1j60BS/k4K2h9Cgd6l5D7otN+efAPWHIqmHXGvBfBHNqiEAnVwIERnFlKQ2hmWjOxGe7ZAkptFQfZWFMS1gZJHYKJnAgVFKsGS8dm0ZwIktSZS4DmKguR/QoHvR5iYT8nT38KKtg1p0+IICPJ+sNnarGZRCjK/gYkWlFxYASvWeGhTWjkIXN0oaVgbBeiYqT2huogLlGxwwYKnnqBdcYMg6UVJy30FDddyaIvshoEz8yjZBAuSXqF9SyFZR1G3gfhbWxeoszHdykwKPMthwfYY2lcvD4LPMymJLYO/U/sniqaODLzCIfEQzK2oxwD0qQlBsyIU9e6Pv/LvyaSoAwxE3EHJ/kiY+yqOAcgsA0H5LMrefx1/5uqeQdl8GKjTjpITeTD27J0MSBdISlLmPtkMfzTwswWUtS8LAzd8lDwDc6+6GZBJbSG44aai/pEI/JPj7yZQ8WFb6JJa06m39Zh5VHhTKEn9DYKbxlKTUK/M/9ZT59X5PspNzbswcLGPQ1UHyLtCzYMvB5DNEnGSurjeZ7eM/21Q86s7qvuoSq4LA7d4KDmWC1PftKQidVRHLyW9K0LwOI24k+PifTSy/3Xo8g7Tof209E/0vde8p6Ipie8HwaVoOmwCDNwkj2eenTBV2ktFu58RUVWpA5HSZnO60Vmx+2DgVqXgtpmD32N4xqUd9TB6NgQrE+ioX2pBt1H5xkzVCJjx96KmWjkAvyXQ/oqwR1U6KbM5DHRUElJehaF/UUfk5PkAUFGptntoBgRH4umgB9OhG6ks8mJrwEyE3h56ann8p0YUeQ5CkDuVzokzuom2K+0k1qbDzPIUKtr/T7pnP2VdOTFdL5B0xt7a0OVok731MDNil97eqgL+y7dPKy+I7hAMvEKnZBgNZ00W0HBBoLjVR0XaO/hvLi0Dv+F0CC69R4dMyIEuZ7BWj5QOI7OLUuH+Hv9rZZxyGz0CSeN4OuKuZjBQI8awckVR4Xdq1v7/QLVK69uaNUIcGPrSCZ7hMJCvNZ7O+BlGBiWqg8dOmJ9n++S2UhcX0QHFmzrS2+xEPkzk/kLN0Fr4fwNiAnsGajhQHZtaGQbaPqjdix/ASONkKhbUwD8ZuYyKsxUgOdKAgWo9EgYe9Wi9nB+DiZp6d4ouSfhnR7SYtpwMiX9LNgNTfQAMPBVFRyZFrnupeeIU/qDiJCrungFJzuPZDMi/d3cXbnFdWxTA98SVMEi9ZSB+90A18spA27jnxd3dJ+4OnfhACXF3d3nE3T3E3d3d81xiewfWN9933+9PCCdnzz13nXW/sJDMlooF0Q1I40k2FtgX0Rsys8DoaKMPcbcqzIlQrxwpVPViQdGxpDD1llysUILesK8GC0KFNIL7Yh9OMOdFTLdZ+EHSKBvOgsh3vB27z5K0woVDy/TNnFAPq2C6zR7mIIV8n7Kk0juGR0Q2lgyVTqrOPrVzgoT2JYV74obpvZM0uttZkP5dL7xd/VliLUaCEvUTNvx/c2O6zdJEUSLKF8ThMbgUS/wakcA9+9MELKSR+THdZt5TSMHdXzU8EraMuF4ukuTL7G+wnuLxRt9tFhNFCpuaJnh4RIxj0dOkJLGsf5ne4I9RKIgUBmUQx9lXqrG4kSUXohJxc9aoGUUiW7Kl5+2s5pObFOIOs+SPJKTQwsoC3+T0PrvbsshxfyrJLD8tzxJqsE7qqaTwysECr9WkMOcSy8+jieu/tp4YSxo5nqTcm97BslKqsMzuzSzpbyOFdgYL/I+KLeoCn2OBpDO1faaHLPreQjLXS9CZ5Ulxww1LmfgMe3jnQGCo4JOf1N9oB5xZNpzBknU9KPFvM8IvNyQdeQNx5iGFHM1AZ5a9xLEYLN0dOBrCCsFfTCPQBvI0CvON9vCypBDXWx6LOUjwpZMVSlclzAbimxz0jfZboLEYvZIkVZqxwsYqpHAoWk7tuTHfaM/2hBT2yav6votEg39BvTVVbCA1jqq/0Q4YizZ5VXeIVzUeGJi3plTAW5yvx0DfaEeNRccSULtqyHpSGNKSJd8GkcKNwixwbgWt6sNx2F8gggcGC3x2Ar7RjhyLGQaB2lU/zaf9Bq7gu6mAb7Qjx+JfGmI2kPCyoHLEUnlJoevPusdOwKoed1K3gYB+gZQvrYqiilynQGPxrDwW2ynbVTEP5gExuigqILAZlhk0Fi/NAbWrfm/BlCNmHw0KbO7qoVrV4li0ttBvIIC//ZEiLNkbgAls+jQnhdgsLNlTBdOumj0PqBzRdzYosHkmCSlcF1d16HP9BgL42+f1Y8mLQExg02+EalXLY/GmG7OB+M4GlSP6D8cENnmpi2SWpaBXeUeKgP72O33kKQQKbBY5QgojxFUd1hm0gfgPB5UjruuBCWxmv64ai2dAT4tyu2rYZdLoHIaZQgF7WZIllhSa+8hPi6ANZHxSUsgllyNuV02h0dmVNzQEPXaBxmJuHxYE7yAF92+MmULfZNXe0BAcA43FoELag29B31DQFOrIkl+SkcLRGnLhv0vfrioffEuqPARNoa/lrXESKbjPseTnrqB21fsuTDli9m6kMDU1aGtMLo5Fx3JQu2qHeFA5YkysJ7fGqAugsSi3qzpWkILlDmOmEGxrvCiuaq++oHbVCcV15YigKdQZtDWWq8eCsDsuUvjByYIM00HliPIUQm6Nli9YsjEOtIHUbEgKX0XKP9BBv60mxpNCA3FVV88PaldtklF3EQo0hfqCtsae+1kQsoU0Bo9jgfFn0l2EkpMpoN9WV4tDrvfVaEQaDa+xZOA9zEUoHpYE89uq8F1SWCCt6iKrUe2q1hQEuQjFfUBTiI+PBazqsDRnYe2qn+UElSNWc2F+W42KIIXhbT88pCv0IJ1idhZ4VQWVI07sqv9tBaj7/u6DS2hxprGks68tSwraSOG2VX4WwkwhTtuJNJ6tMvg9jJBJQ0jJVoEl52uDyhHTxEKmEHtXJhVX/jsdHPwO2es9iLeQ1o9yVKYNqByxcHkSKKPfk6eRkuXe7e/83xiP1pBKU3qQ3rTJLBmwAFOOyEPHkkIbu+b6vF7gN/26PK64qmmkj0+k1y9pt5+429pNH6OyHJWpBSpHXKWasLXPq6/P67ljv1m4cvXq38/+FGCjj9RpMahg4G5hZYmLwFaGJZv3ERIgrNsAdI+hpWqClPRigb0YIQHCuvUtmHLE4AKkkHMNS3rHkQeNbawI64LKER/nIIW5VhZk6EWeVF4R1gWVI0ZvIYU5FVkyoyHhyWFd8Y6oYGUflsxzkcJ8gwVNThIcIKwLyNp1iMfcpjPmkycdQYV1HwXLR4Sg23QV55AHuZaCwrpJ14GOCOXbdNa5hARIJWUGlSMWvgu6TbcmJ4HJqSRATGq4P+iIsJiDBU1LEhAglRQ8BZS1G7XQo+dWKEG7QDEpOWtnzAKdW6WrTUCAVFKf30khSs7aLe6EP7cCAGTtqrkw5Yjea0HnVnUXEJaQSgKdxP8kZ+2aTdOfW8ndZhCg98FfgsoRow+BDr739yQPikK9D5bLEfmlS3luJXebedJFwPtgZTni5t2ksHAUS+5YCAT5PhhQjuh4BTr4rt6aUJDvgwHliIfjMAffztOEgn4fLJcjAu50F78KuE0HgH8fvD4EFG1b4cDcpoORs3bW26ByxFERoIPvm24CAmTt/jQNU45onCAF131QAxhMKzum1y7nRlC0bWW0vhgTApC1S2XDlCN63yaFHH/IxZj5CAiQtUvXXl+OCPj/ukO+ZF6W8ISsnVynLmvHkjGrSSHpeH0xJgQga1e3BOZ1Ds+0kcJlUP8GzG3QkYPidU7bffj+DQz5yEGuU5f1isTkNwKvyP0bP5EnzQIdOShe5/Qu4cn+DZgI1JHDKwcmvxEQA2gAA8AfOezeDMhvKPs3GhEK+shBLkcE5DeOFAGFClCKXwV9i+PQGMy9I8szUKgA5ksH5lsc05qxpOI9TIGPHCqA6joR9C2Otd6Y/MbUM/oGMAhA1m5kLn05IuDe0U4fffcKBKDXrjOo8tOrqr7ARw4VwACydt8GgcoRU9nwVScAgF67nbpyRNBhSq4aLFlqITRArx2g8tO+CFV1coQ8KTNoVcdmUX2bTpY8FNMABnNUsapdmHJE+TAFWnWCEngAtKqPFAEdpmx1sqB0efKk5MpeO0A54rjBoFDB52MJCPAh4gsBgBiyug3ZUh/UvQIjr+pShwAxZH0bcoNsLDAmERDgQ8TOOoAYsr4NuWdR7fU+ANCqbjwNFEPemJMUMoVjGsBg5FX9dAgohtx0EyiVJF/vQ5JXde/dqBhyGRsp1LFjrvfBiKv66j5UDPn8elAq6b6LUADVCfbvWqNiyPY2oFSSfL0PR65OKH0nFhZDHrAAk0qSr/dB5T/PH2BU7OeGxZAja4FSSXI5ItR164dKCr6fA4wh7++JSSUVnk4eFbVjQjC/k5Htt4wuYAw5fQNSaH0JlPhGqnJ3xio7v8ln8azhNlJrkB70prsdKEEK5o6//fnA6OwG/0OYzy9ZujwvDo4hVy8HKkc8QXgaltjhg5Z8cbPmjKEVHsyt+s1UeAzZeVpfjiglvs1oQV1QuL5fJKoBDA8WQ5YfzuRyRCFBakbt04HC9Ys0DWBmZEsFCte3b6tJkJpRVS/Mxy1tMzUJUjOa9hno45arNQ1gppTCyoLwTKDEd+84MqN7A0GNfXK7amQ/MqUToMa+e2k1CVIzihgFauw7oflkqxmNrcmSeuUw/9RGOzKl6RlY4Lyo/aeWG8DMqPgEUGPfdE0DmCmtAMWQi0/QNICZUXwHUAx5haYBzIxc90Ex5N0dNC8pzWhlNObhzDWPJW3bk6nobz7HxJHClmgWWEeTKcmVn01GkEKOxyy5loPMSL757JOHNAp4s6BlVzKly1JUxlF/LCkMacmCGlvIjOTKT/u5nKQxyZAegweRGcmVn44DsaRx9hfp6TUTmdPs0kLS7lkVglwZ2dyIzEj+vHa26w2JAFdGwq5GkAnJn9e29z5kIQJcGfE9FUQmFbSYP6DJg3ykVNn5oe2sd3k3mVXPHXWt/G5Gqf7JLKQV/3Kcwe/mSNstjswsdmezMQa/xVmkY4SNSM91tF09K7/FKB1zOojMrmFEnY2/BBv8b/bQSwfKJrXQxwrqd3NgqJ3/zXCmv3piRA76v9Czfdku21vW6FO6afqJV1+8+jHIRQliyXdoyYsJm/1KFw5tUn1NtcrJppFnvAbACZqsz+d7CwAAAABJRU5ErkJggg==;" parent="1" vertex="1">
          <mxGeometry x="304.5" y="183.91" width="60" height="62.07" as="geometry" />
        </mxCell>
        <mxCell id="sVRV8ydl0Pa446DgSfbg-7" value="" style="endArrow=classic;html=1;rounded=0;entryX=1;entryY=0.5;entryDx=0;entryDy=0;" parent="1" edge="1">
          <mxGeometry width="50" height="50" relative="1" as="geometry">
            <mxPoint x="-690" y="-139.99588235294118" as="sourcePoint" />
            <mxPoint x="-830" y="-140" as="targetPoint" />
          </mxGeometry>
        </mxCell>
        <mxCell id="sVRV8ydl0Pa446DgSfbg-8" value="" style="endArrow=classic;html=1;rounded=0;exitX=0;exitY=0.5;exitDx=0;exitDy=0;" parent="1" source="sVRV8ydl0Pa446DgSfbg-4" target="sVRV8ydl0Pa446DgSfbg-2" edge="1">
          <mxGeometry width="50" height="50" relative="1" as="geometry">
            <mxPoint x="394.5" y="345.37" as="sourcePoint" />
            <mxPoint x="444.5" y="295.37" as="targetPoint" />
          </mxGeometry>
        </mxCell>
        <mxCell id="ZeHyfcU8Hrkil8Ng6tK_-2" value="" style="edgeStyle=orthogonalEdgeStyle;rounded=0;orthogonalLoop=1;jettySize=auto;html=1;" parent="1" source="ZeHyfcU8Hrkil8Ng6tK_-1" target="sVRV8ydl0Pa446DgSfbg-1" edge="1">
          <mxGeometry relative="1" as="geometry" />
        </mxCell>
        <mxCell id="ZeHyfcU8Hrkil8Ng6tK_-4" value="" style="edgeStyle=orthogonalEdgeStyle;rounded=0;orthogonalLoop=1;jettySize=auto;html=1;" parent="1" source="ZeHyfcU8Hrkil8Ng6tK_-1" target="ZeHyfcU8Hrkil8Ng6tK_-3" edge="1">
          <mxGeometry relative="1" as="geometry" />
        </mxCell>
        <mxCell id="ZeHyfcU8Hrkil8Ng6tK_-1" value="Saas Web App" style="sketch=0;pointerEvents=1;shadow=0;dashed=0;html=1;strokeColor=none;fillColor=#505050;labelPosition=center;verticalLabelPosition=bottom;verticalAlign=top;outlineConnect=0;align=center;shape=mxgraph.office.concepts.website;" parent="1" vertex="1">
          <mxGeometry x="110" y="369.18" width="59" height="49" as="geometry" />
        </mxCell>
        <mxCell id="ZeHyfcU8Hrkil8Ng6tK_-5" style="edgeStyle=orthogonalEdgeStyle;rounded=0;orthogonalLoop=1;jettySize=auto;html=1;" parent="1" source="ZeHyfcU8Hrkil8Ng6tK_-3" target="sVRV8ydl0Pa446DgSfbg-2" edge="1">
          <mxGeometry relative="1" as="geometry" />
        </mxCell>
        <mxCell id="ZeHyfcU8Hrkil8Ng6tK_-3" value="Event Pipe&#xa;Jitsu" style="shape=image;verticalLabelPosition=bottom;labelBackgroundColor=default;verticalAlign=top;aspect=fixed;imageAspect=0;image=data:image/png,iVBORw0KGgoAAAANSUhEUgAAAQAAAAEACAMAAABrrFhUAAAABGdBTUEAALGPC/xhBQAAAAFzUkdCAK7OHOkAAAAYUExURUxpcaoA/6sA/60A/6sA/6sA/6oA/6oA/+mkjr8AAAAHdFJOUwDZQhuTf7hXNiQmAAACh0lEQVR42u3ZiXHAIAwFUQ4D/XecSQWxQXL8pd0GEG8Gn6UQERERERERERERERERUalLoSs7gKOACICfgAqAm4AMgJeADsCa2QF8BJQAXE6BFICHgBaAg4AYgL2AGoC5gByAtYAegLGAIICtgCKAqYAkgOUzoSaAoYAogJ2AKoCZgCyAlYAugJGAMICNgDKAiYA0gIWANoCBgDjAuYA6wLGAPMCpgD7AoUAAgDOBCABHAiEATgRiABwIBAHYF4gCsP2dMAxABQAAAAAAAAAAAAAAAAAAAAAAAAAAAAAAAAAAAAAAAAAAAAAAAAAAAAAAAAAAAAAAAAAAAIBvAVzjbjMmQLs96gUAAAAAAAAAAAAAAAAAAAAAAAAAAAAAAAAAAAAAAAAAAAAAAAAAAAAAAAAAAAAAAAAAAAAAAAAAAAAAAPB/AL14BEB2gAlAcoCaHWAlB+jZAVp2gJEdYGYHWMkBWnaAkR2gJgf46wSEB7iSA/SVHGBkB1jJAUZygL6SA1zJAdpKDlCTA1wrN0BbuQF6TQ5wd8CoAHPlBri9/6AA9/cfEqA/GS4gwKP9BwRoz9YMBzBXaoD2eK5QAG1jqvrOSXsDoM2dNes711p/gL3tHwB4CGwD9LE9TC0fEtgDaGMerFnLhwQeAfTeWhvXPFzzBMDlOvB2RwC3vjuHBvC5GyoB6AvUklygluQC5wDiAgYA2gIWANICJgDKAjYAW2/ioQB0n4qtAGQFzABUBewARAUMATQFLAEkBUwBFAVsAQQFjAH0BKwB5ATMAdQE7AHEBBwAtAQ8AKQEXACUBHwAhAScAHQEvABkBNwAVP4b+gGU39/XAhUiIiIiIiIiIiIiIiKi5P0Af/Sb5YLgdocAAAAASUVORK5CYII=;" parent="1" vertex="1">
          <mxGeometry x="304.5" y="363.02" width="61.31" height="61.31" as="geometry" />
        </mxCell>
        <mxCell id="n8y3GHhv3eQLkhhlIx0I-13" style="edgeStyle=orthogonalEdgeStyle;rounded=0;orthogonalLoop=1;jettySize=auto;html=1;" edge="1" parent="1" source="n8y3GHhv3eQLkhhlIx0I-1" target="sVRV8ydl0Pa446DgSfbg-2">
          <mxGeometry relative="1" as="geometry" />
        </mxCell>
        <mxCell id="n8y3GHhv3eQLkhhlIx0I-14" style="edgeStyle=orthogonalEdgeStyle;rounded=0;orthogonalLoop=1;jettySize=auto;html=1;exitX=1;exitY=0.75;exitDx=0;exitDy=0;" edge="1" parent="1" source="n8y3GHhv3eQLkhhlIx0I-1" target="sVRV8ydl0Pa446DgSfbg-2">
          <mxGeometry relative="1" as="geometry" />
        </mxCell>
        <mxCell id="n8y3GHhv3eQLkhhlIx0I-1" value="Data transformation&#xa;dbt" style="shape=image;verticalLabelPosition=bottom;labelBackgroundColor=default;verticalAlign=top;aspect=fixed;imageAspect=0;image=data:image/png,iVBORw0KGgoAAAANSUhEUgAAC7gAAAgLCAYAAADco44/AAAAGXRFWHRTb2Z0d2FyZQBBZG9iZSBJbWFnZVJlYWR5ccllPAAA8ONJREFUeNrswQEBAAAAgJD+r+4ICgAAAAAAAAAAAAAAAAAAAAAAAAAAAAAAAAAAAAAAAAAAAAAAAAAAAAAAAAAAAAAAAAAAAAAAAAAAAAAAAAAAAAAAAAAAAAAAAAAAAAAAAAAAAAAAAAAAAAAAAAAAAAAAAAAAAAAAAAAAAAAAAAAAAAAAAAAAAAAAAAAAAAAAAAAAAAAAAAAAAAAAAAAAAAAAAAAAAAAAAAAAAAAAAAAAAAAAAAAAAAAAAAAAAAAAAAAAAAAAAAAAAAAAAAAAAAAAAAAAAAAAAAAAAAAAAAAAAAAAAAAAAAAAAAAAAAAAAAAAAAAAAAAAAAAAAAAAAAAAAAAAAAAAAAAAAAAAAAAAAAAAAAAAAAAAAAAAAAAAAAAAAAAAAAAAAAAAAAAAAAAAAAAAAAAAAAAAAAAAAAAAAAAAAAAAAAAAAAAAAAAAAAAAAAAAAAAAAAAAAAAAAAAAAAAAAAAAAAAAAAAAAAAAAAAAAAAAAAAAAAAAAAAAAAAAAAAAAAAAAAAAAAAAAAAAAAAAAAAAAAAAAAAAAAAAAAAAAAAAAAAAAAAAAAAAAAAAAAAAAAAAAAAAAAAAAAAAAAAAAAAAAAAAAAAAAAAAAAAAAAAAAAAAAAAAAAAAAAAAAAAAAAAAAAAAAAAAAAAAAAAAAAAAAAAAAAAAAAAAAAAAAAAAAAAAAAAAAAAAAAAAAAAAAAAAAAAAAAAAAAAAAAAAAAAAAAAAAAAAAAAAAAAAAAAAAAAAAAAAAAAAAAAAAAAAAAAAAAAAAAAAAAAAAAAAAAAAAAAAAAAAAAAAAAAAAAAAAAAAAAAAAAAAAAAAAAAAAAAAAAAAAAAAAAAAAAAAAAAAAAAAAAAAAAAAAAAAAAAAAAAAAAAAAAAAAAAAAAAAAAAAAAAAAAAAAAAAAAAAAAAAAAAAAAAAAAAAAAAAAAAAAAAAAAAAAAAAAAAAAAAAAAAAAAAAAAAAAAAAAAAAAAAAAAAAAAAAAAAAAAAAAAAAAAAAAAAAAAAAAAAAAAAAAAAAAAAAAAAAAAAAAAAAAAAAAAAAAAAAAAAAAAAAAAAAAAAAAAAAAAAAAAAAAAAAAAAAAAAAAAAAAAAAAAAAAAAAAAAAAAAAAAAAAAAAAAAAAAAAAAAAAAAAAAAAAAAAAAAAAAAAAAAAAAAAAAAAAAAAAAAAAAAAAAAAAAAAAAAAAAAAAAAAAAAAAAAAAAAAAAAAAAAAAAAAAAAAAAAAAAAAAAAAAAAAAAAAAAAAAAAAAAAAAAAAAAAAAAAAAAAAAAAAAAAAAAAAAAAAAAAAAAAAAAAAAAAAAAAAAAAAAAAAAAAAAAAAAAAAAAAAAAAAAAAAAAAAAAAAAAAAAAAAAAAAAAAAAAAAAAAAAAAAAAAAAAAAAAAAAAAAAAAAAAAAAAAAAAAAAAAAAAAAAAAAAAAAAAAAAAAAAAAAAAAAAAAAAAAAAAAAAAAAAAAAAAAAAAAAAAAAAAAAAAAAAAAAAAAAAAAAAAAAAAAAAAAAAAAAAAAAAAAAAAAAAAAAAAAAAAAAAAAAAAAAAAAAAAAAAAAAAAAAAAAAAAAAAAAAAAAAAAAAAAAAAAAAAAAAAAAAAAAAAAAAAAAAAAAAAAAAAAAAAAAAAAAAAAAAAAAAAAAAAAAAAAAAAAAAAAAAAAAAAAAAAAAAAAAAAAAAAAAAAAAAAAAAAAAAAAAAAAAAAAAAAAAAAAAAAAAAAAAAAAAAAAAAAAAAAAAAAAAAAAAAAAAAAAAAAAAAAAAAAAAAAAAAAAAAAAAAAAAAAAAAAAAAAAAAAAAAAAAAAAAAAAAAAAAAAAAAAAAAAAAAAAAAAAAAAAAAAAAAAAAAAAAAAAAAAAAAAAAAAAAAAAAAAAAAAAAAAAAAAAAAAAAAAAAAAAAAAAAAAAAAAAAAAAAAAAAAAAAAAAAAAAAAAAAAAAAAAAAAAAAAAAAAAAAAAAAAAAAAAAAAAAAAAAAAAAAAAAAAAAAAAAAAAAAAAAAAAAAAAAAAAAAAAAAAAAAAAAAAAAAAAAAAAAAAAAAAAAAAAAAAAAAAAAAAAAAAAAAAAAAAAAAAAAAAAAAAAAAAAAAAAAAAAAAAAAAAAAAAAAAAAAAAAAAAAAAAAAAAAAAAAAAAAAAAAAAAAAAAAAAAAAAAAAAAAAAAAAAAAAAAAAAAAAAAAAAAAAAAAAAAAAAAAAAAAAAAAAAAAAAAAAAAAAAAAAAAAAAAAAAAAAAAAAAAAAAAAAAAAAAAAAAAAAAAAAAAAAAAAAAAAAAAAAAAAAAAAAAAAAAAAAAAAAAAAAAAAAAAAAAAAAAAAAAAAAAAAAAAAAAAAAAAAAAAAAAAAAAAAAAAAAAAAAAAAAAAAAAAAAAAAAAAAAAAAAAAAAAAAAAAAAAAAAAAAAAAAAAAAAAAAAAAAAAAAAAAAAAAAAAAAAAAAAAAAAAAAAAAAAAAAAAAAAAAAAAAAAAAAAAAAAAAAAAAAAAAAAAAAAAAAAAAAAAAAAAAAAAAAAAAAAAAAAAAAAAAAAAAAAAAAAAAAAAAAAAAAAAAAAAAAAAAAAAAAAAAAAAAAAAAAAAAAAAAAAAAAAAAAAAAAAAAAAAAAAAAAAAAAAAAAAAAAAAAAAAAAAAAAAAAAAAAAAAAAAAAAAAAAAAAAAAAAAAAAAAAAAAAAAAAAAAAAAAAAAAAAAAAAAAAAAAAAAAAAAAAAAAAAAAAAAAAAAAAAAAAAAAAAAAAAAAAAAAAAAAAAAAAAAAAAAAAAAAAAAAAAAAAAAAAAAAAAAAAAAAAAAAAAAAAAAAAAAAAAAAAAAAAAAAAAAAAAAAAAAAAAAAAAAAAAAAAAAAAAAAAAAAAAAAAAAAAAAAAAAAAAAAAAAAAAAAAAAAAAAAAAAAAAAAAAAAAAAAAAAAAAAAAAAAAAAAAAAAAAAAAAAAAAAAAAAAAAAAAAAAAAAAAAAAAAAAAAAAAAAAAAAAAAAAAAAAAAAAAAAAAAAAAAAAAAAAAAAAAAAAAAAAAAAAAAAAAAAAAAAAAAAAAAAAAAAAAAAAAAAAAAAAAAAAAAAAAAAAAAAAAAAAAAAAAAAAAAAAAAAAAAAAAAAAAAAAAAAAAAAAAAAAAAAAAAAAAAAAAAAAAAAAAAAAAAAAAAAAAAAAAAAAAAAAAAAAAAAAAAAAAAAAAAAAAAAAAAAAAAAAAAAAAAAAAAAAAAAAAAAAAAAAAAAAAAAAAAAAAAAAAAAAAAAAAAAAAAAAAAAAAAAAAAAAAAAAAAAAAAAAAAAAAAAAAAAAAAAAAAAAAAAAAAAAAAAAAAAAAAAAAAAAAAAAAAAAAAAAAAAAAAAAAAAAAAAAAAAAAAAAAAAAAAAAAAAAAAAAAAAAAAAAAAAAAAAAAAAAAAAAAAAAAAAAAAAAAAAAAAAAAAAAAAAAAAAAAAAAAAAAAAAAAAAAAAAAAAAAAAAAAAAAAAAAAAAAAAAAAAAAAAAAAAAAAAAAAAAAAAAAAAAAAAAAAAAAAAAAAAAAAAAAAAAAAAAAAAAAAAAAAAAAAAAAAAAAAAAAAAAAAAAAAAAAAAAAAAAAAAAAAAAAAAAAAAAAAAAAAAAAAAAAAAAAAAAAAAAAAAAAAAAAAAAAAAAAAAAAAAAAAAAAAAAAAAAAAAAAAAAAAAAAAAAAAAAAAAAAAAAAAAAAAAAAAAAAAAAAAAAAAAAAAAAAAAAAAAAAAAAAAAAAAAAAAAAAAAAAAAAAAAAAAAAAAAAAAAAAAAAAAAAAAAAAAAAAAAAAAAAAAAAAAAAAAAAAAAAAAAAAAAAAAAAAAAAAAAAAAAAAAAAAAAAAAAAAAAAAAAAAAAAAAAAAAAAAAAAAAAAAAAAAAAAAAAAAAAAAAAAAAAAAAAAAAAAAAAAAAAAAAAAAAAAAAAAAAAAAAAAAAAAAAAAAAAAAAAAAAAAAAAAAAAAAAAAAAAAAAAAAAAAAAAAAAAAAAAAAAAAAAAAAAAAAAAAAAAAAAAAAAAAAAAAAAAAAAAAAAAAAAAAAAAAAAAAAAAAAAAAAAAAAAAAAAAAAAAAAAAAAAAAAAAAAAAAAAAAAAAAAAAAAAAAAAAAAAAAAAAAAAAAAAAAAAAAAAAAAAAAAAAAAAAAAAAAAAAAAAAAAAAAAAAAAAAAAAAAAAAAAAAAAAAAAAAAAAAAAAAAAAAAAAAAAAAAAAAAAAAAAAAAAAAAAAAAAAAAAAAAAAAAAAAAAAAAAAAAAAAAAAAAAAAAAAAAAAAAAAAAAAAAAAAAAAAAAAAAAAAAAAAAAAAAAAAAAAAAAAAAAAAAAAAAAAAAAAAAAAAAAAAAAAAAAAAAAAAAAAAAAAAAAAAAAAAAAAAAAAAAAAAAAAAAAAAAAAAAAAAAAAAAAAAAAAAAAAAAAAAAAAAAAAAAAAAAAAAAAAAAAAAAAAAAAAAAAAAAAAAAAAAAAAAAAAAAAAAAAAAAAAAAAAAAAAAAAAAAAAAAAAAAAAAAAAAAAAAAAAAAAAAAAAAAAAAAAAAAAAAAAAAAAAAAAAAAAAAAAAAAAAAAAAAAAAAAAAAAAAAAAAAAAAAAAAAAAAAAAAAAAAAAAAAAAAAAAAAAAAAAAAAAAAAAAAAAAAAAAAAAAAAAAAAAAAAAAAAAAAAAAAAAAAAAAAAAAAAAAAAAAAAAAAAAAAAAAAAAAAAAAAAAAAAAAAAAAAAAAAAAAAAAAAAAAAAAAAAAAAAAAAAAAAAAAAAAAAAAAAAAAAAAAAAAAAAAAAAAAAAAAAAAAAAAAAAAAAAAAAAAAAAAAAAAAAAAAAAAAAAAAAAAAAAAAAAAAAAAAAAAAAAAAAAAAAAAAAAAAAAAAAAAAAAAAAAAAAAAAAAAAAAAAAAAAAAAAAAAAAAAAAAAAAAAAAAAAAAAAAAAAAAAAAAAAAAAAAAAAAAAAAAAAAAAAAAAAAAAAAAAAAAAAAAAAAAAAAAAAAAAAAAAAAAAAAAAAAAAAAAAAAAAAAAAAAAAAAAAAAAAAAAAAAAAAAAAAAAAAAAAAAAAAAAAAAAAAAAAAAAAAAAAAAAAAAAAAAAAAAAAAAAAAAAAAAAAAAAAAAAAAAAAAAAAAAAAAAAAAAAAAAAAAAAAAAAAAAAAAAAAAAAAAAAAAAAAAAAAAAAAAAAAAAAAAAAAAAAAAAAAAAAAAAAAAAAAAAAAAAAAAAAAAAAAAAAAAAAAAAAAAAAAAAAAAAAAAAAAAAAAAAAAAAAAAAAAAAAAAAAAAAAAAAAAAAAAAAAAAAAAAAAAAAAAAAAAAAAAAAAAAAAAAAAAAAAAAAAAAAAAAAAAAAAAAAAAAAAAAAAAAAAAAAAAAAAAAAAAAAAAAAAAAAAAAAAAAAAAAAAAAAAAAAAAAAAAAAAAAAAAAAAAAAAAAAAAAAAAAAAAAAAAAAAAAAAAAAAAAAAAAAAAAAAAAAAAAAAAAAAAAAAAAAAAAAAAAAAAAAAAAAAAAAAAAAAAAAAAAAAAAAAAAAAAAAAAAAAAAAgNm7m+M20msNwB9UNwDcDKAILhSBm9vemBOBwWWvCEYgMgJCKyzJiUD0BlvBEQiOQJ2BkUHf71O3PBqNSIEkfvrneapOtVyuskevLOm46u3TAAAAAAAAAAAAAAAAAAAAAAAAAAAAAAAAAAAAAAAAAAAAAAAAAAAAAAAAAAAAAAAAAAAAAAAAAAAAAAAAAAAAAAAAAAAAAAAAAAAAAAAAAAAAAAAAAAAAAAAAAAAAAAAAAAAAAAAAAAAAAAAAAAAAAAAAAAAAAAAAAAAAAAAAAAAAAAAAAAAAAAAAAAAAAAAAAAAAAAAAAAAAAAAAAAAAAAAAAAAAAAAAAAAAAAAAAAAAAAAAAAAAAAAAAAAAAAAAAAAAAAAAAAAAAAAAAAAAAAAAAAAAAAAAAAAAAAAAAAAAAAAAAAAAAAAAAAAAAAAAAAAAAAAAAAAAAAAAAAAAAAAAAAAAAAAAAAAAAAAAAAAAAAAAAAAAAAAAAAAAAAAAAAAAAAAAAAAAAAAAAAAAAAAAAAAAAAAAAAAAAAAAAAAAAAAAAAAAAAAAAAAAAAAAAAAAAAAAAAAAAAAAAAAAAAAAAAAAAAAAAAAAAAAAAAAAAAAAAAAAAAAAAAAAAAAAAAAAAAAAAAAAAAAAAAAAAAAAAAAAAAAAAAAAAAAAAAAAAAAAAAAAAAAAAAAAAAAAAAAAAAAAAAAAAAAAAAAAAAAAAAAAAAAAAAAAAAAAAAAAAAAAAAAAAAAAAAAAAAAAAAAAAAAAAAAAAAAAAAAAAAAAAAAAAAAAAAAAAAAAAAAAAAAAAAAAAAAAAAAAAAAAAAAAAAAAAAAAAAAAAAAAAAAAAAAAAAAAAAAAAAAAAAAAAAAAAAAAAAAAAAAAAAAAAAAAAAAAAAAAAAAAAAAAAAAAAAAAAAAAAAAAAAAAAAAAAAAAAAAAAAAAAAAAAAAAAAAAAAAAAAAAAAAAAAAAAAAAAAAAAAAAAAAAAAAAAAAAAAAAAAAAAAAAAAAAAAAAAAAAAAAAAAAAAAAAAAAAAAAAAAAAAAAAAAAAAAAAAAAAAAAAAAAAAAAAAAAAAAAAAAAAAAAAAAAAAAAAAAAAAAAAAAAAAAAAAAAAAAAAAAAAAAAAAAAAAAAAAAAAAAAAAAAAAAAAAAAAAAAAAAAAAAAAAAAAAAAAAAAAAAAAAAAAAAAAAAAAAAAAAAAAAAAAAAAAAAAAAAAAAAAAAAAAAAAAAAAAAAAAAAAAAAAAAAAAAAAAAAAAAAAAAAAAAAAAAAAAAAAAAAAAAAAAAAAAAAAAAAAAAAAAAAAAAAAAAAAAAAAAAAAAAAAAAAAAAAAAAAAAAAAAAAAAAAAAAAAAAAAAAAAAAAAAAAAAAAAAAAAAAAAAAAAAAAAAAAAAAAAAAAAAAAAAAAAAAAAAAAAAAAAAAAAAAAAAAAAAAAAAAAAAAAAAAAAAAAAAAAAAAAAAAAAAAAAAAAAAAAAAAAAAAAAAAAAAAAAAAAAAAAAAAAAAAAAAAAAAAAAAAAAAAAAAAAAAAAAAAAAAAAAAAAAAAAAAAAAAAAAAAAAAAAAAAAAAAAAAAAAAAAAAAAAAAAAAAAAAAAAAAAAAAAAAAAAAAAAAAAAAAAAAAAAAAAAAAAAAAAAAAAAAAAAAAAAAAAAAAAAAAAAAAAAAAAAAAAAAAAAAAAAAAAAAAAAAAAAAAAAAAAAAAAAAAAAAAAAAAAAAAAAAAAAAAAAAAAAAAAAAAAAAAAAAAAAAAAAAAAAAAAAAAAAAAAAAAAAAAAAAAAAAAAAAAAAAAAAAAAAAAAAAAAAAAAAAAAAAAAAAAAAAAAAAAAAAAAAAAAAAAAAAAAAAAAAAAAAAAAAAAAAAAAAAAAAAAAAAAAAAAAAAAAAAAAAAAAAAAAAAAAAAAAAAAAAAAAAAAAAAAAAAAAAAAAAAAAAAAAAAAAAAAAAAAAAAAAAAAAAAAAAAAAAAAAAAAAAAAAAAAAAAAAAAAAAAAAAAAAAAAAAAAAAAAAAAAAAAAAAAAAAAAAAAAAAAAAAAAAAAAAAAAAAAAAAAAAAAAAAAAAAAAAAAAAAAAAAAAAAAAAAAAAAAAAAAAAAAAAAAAAAAAAAAAAAAAAAAAAAAAAAAAAAAAAAAAAAAAAAAAAAAAAAAAAAAAAAAAAAAAAAAAAAAAAAAAAAAAAAAAAAAAAAAAAAAAAAAAAAAAAAAAAAAAAAAAAAAAAAAAAAAAAAAAAAAAAAAAAAAAAAAAAAAAAAAAAAAAAAAAAAAAAAAAAAAAAAAAAAAAAAAAAAAAAAAAAAAAAAAAAAAAAAAAAAAAAAAAAAAAAAAAAAAAAAAAAAAAAAAAAAAAAAAAAAAAAAAAAAAAAAAAAAAAAAAAAAAAAAAAAAAAAAAAAAAAAAAAAAAAAAAAAAAAAAAAAAAAAAAAAAAAAAAAAAAAAAAAAAAAAAAAAAAAAAAAAAAAAAAAAAAAAAAAAAAAAAAAAAAAAAAAAAAAAAAAAAAAAAAAAAAAAAAAAAAAAAAAAAAAAAAAAAAAAAAAAAAAAAAAAAAAAAAAAAAAAAAAAAAAAAAAAAAAAAAAAAAAAAAAAAAAAAAAAAAAAAAAAAAAAAAAAAAAAAAAAAAAAAAAAAAAAAAAAAAAAAAAAAAAAAAAAAAAAAAAAAAAAAAAAAAAAAAAAAAAAAAAAAAAAAAAAAAAAAAAAAAAAAAAAAAAAAAAAAAAAAAAAAAAAAAAAAAAAAAAAAAAAAAAAAAAAAAAAAAAAAAAAAAAAAAAAAAAAAAAAAAAAAAAAAAAAAAAAAAAAAAAAAAAAAAAAAAAAAAAAAAAAAAAAAAAAAAAAAAAAAAAAAAAAAAAAAAAAAAAAAAAAAAAAAAAAAAAAAAAAAAAAAAAAAAAAAAAAAAAAAAAAAAAAAAAAAAAAAAAAAAAAAAAAAAAAAAAAAAAAAAAAAAAAAAAAAAAAAAAAAAAAAAAAAAAAAAAAAAAAAAAAAAAAAAAAAAAAAAAAAAAAAAAAAAAAAAAAAAAAAAAAAAAAAAAAAAAAAAAAAAAAAAAAAAAAAAAAAAAAAAAAAAAAAAAAAAAAAAAAAAAAAAAAAAAAAAAAAAAAAAAAAAAAAAAAAAAAAAAAAAAAAAAAAAAAAAAAAAAAAAAAAAAAAAAAAAAAAAAAAAAAAAAAAAAAAAAAAAAAAAAAAAAAAAAAAAAAAAAAAAAAAAAAAAAAAAAAAAAAAAAAAAAAAAAAAAAAAAAAAAAAAAAAAAAAAAAAAAAAAAAAAAAAAAAAAAAAAAAAAAAAAAAAAAAAAAAAAAAAAAAAAAAAAAAAAAAAAAAAAAAAAAAAAAAAAAAAAAAAAAAAAAAAAAAAAAAAAAAAAAAAAAAAAAAAAAAAAAAAAAAAAAAAAAAAAAAAAAAAAAAAAAAAAAAAAAAAAAAAAAAAAAAAAAAAAAAAAAAAAAAAAAAAAAAAAAAAAAAAAAAAAAAAAAAAAAAAAAAAAAAAAAAAAAAAAAAAAAAAAAAAAAAAAAAAAAAAAAAAAAAAAAAAAAAAAAAAAAAAAAAAAAAAAAAAAAAAAAAAAAAAAAAAAAAAAAAAAAAAAAAAAAAAAAAAAAAAAAAAAAAAAAAAAAAAAAAAAAAAAAAAAAAAAAAAAAAAAAAAAAAAAAAAAAAAAAAAAAAAAAAAAAAAAAAAAAAAAAAAAAAAAAAAAAAAAAAAAAAAAAAAAAAAAAAAAAAAAAAAAAAAAAAAAAAAAAAAAAAAAAAAAAAAAAAAAAAAAAAAAAAAAAAAAAAAAAAAAAAAAA8JSRCABok6rIp/ExjpP98G+tm2c5Wq5KSQEA8N0OmfbHafMvv+2T32zibNMz7pFbaQEAAAAAAAC0m4I7ACdRFXkWH5M4/xfqEtKkmV19Kyr9K04Z6sLSRrIAAIPYIdP8LdRF9ukz/2PWzf7472anVHwHAAAAAAAAaBEFdwAOrrnKnoU/yuzTA/7XrUNdVErF97WyEgBAZ3fIyXc7ZHbgHbJs9sh/NzukFycBAAAAAAAATkTBHYC9+67Q/rfmOT7hP04qJ/0zzoOiEgBA6/fI8+92yOmJ/3HWzR6p8A4AAAAAAABwRAruALxaVeSpwJ7KSH8Ppy+0P6UMTVFptFw9+JUDAGjFLvltjzxv8R6ZvgqU9sf0laAHXwkCAAAAAAAAOBwFdwBepCrySahLSP8Ip7+u+RJlqEtKH0bLVelXFADgqLtk2h8vQ7tL7U9JF91/D3XZ3S4JAAAAAAAAsEcK7gDsrAel9ses4/w+Wq7u/SoDABx0n5w1u2TWo5/Wt7L7vcvuAAAAAAAAAK+n4A7Ak6oiTxc1U6k9Xdic9vynW4a6nLRQTgIA2Os+OWv2yUnPf7rpC0H/9OIkAAAAAAAAwMspuAPwU1WRZ6G+rpnK7eOB/fRTuf1DUHQHAHjtTnkd6mL7EPfJ+7RTxn2y9L8EAAAAAAAAgN0puAPwXwO71r4LRXcAgJftlbP4eB/6f7F9F+tQF90fRAEAAAAAAADwawruAKQC0iQ+ZmGY1zV3kcrtN6PlaiEKAIAn98os1MX2TBp/UaadMs6DlycBAAAAAAAAHqfgDjBgTbE9FZBm0thJGef34KI7AMCPe2UWFNt35StBAAAAAAAAAE9QcAcYIMX2V3PRHQAgKLbvYadUdAcAAAAAAAD4gYI7wIAotu9dGeqi+70oAICB7ZVZUGzfF0V3AAAAAAAAgO8ouAMMQFXk4/i4DYrth1LGuRotVw+iAAB6vldO4uMuKLYfgq8EAQAAAAAAAAQFd4Bea4rt8ziXccYSObh1qEtJa1EAAD3bKyfBl4COpQxengQAAAAAAAAGTMEdoKeqIj8P9dX2iTSObh3nYrRclaIAADq+U6aXJFOxfS4NOyUAAAAAAADAMSi4A/RMc13zLk4mjZO7D/X1za0oAICO7ZS+BNQeN3EWdkoAAAAAAABgKBTcAXqkKvLrUF/YpD1SEelDUEoCALqzU86anXIijdYoQ/3i5IMoAAAAAAAAgL5TcAfogarIs1BfbZ9Io7VSuT2Vku5FAQDYKXmhVHC/8OIkAAAAAAAA0GcK7gAdVhX5ONTXNefS6Iwy1KWktSgAgJbslFmzU2bS6IRts0+65g4AAAAAAAD0koI7QEdVRT6Nj4/Bhc2uWof6ovtGFADAifbJtEemYvtMGp3kmjsAAAAAAADQSwruAB1UFfl1qMtIdN99qIvuikkAwLF2yfQVoLl9shfK4OtAAAAAAAAAQM8ouAN0SFNGSlfbM2n0Siq3f4izUHQHAA68T34rto+l0Ss3cY+8FgMAAAAAAADQBwruAB1RFXkW6nK7MlJ/laEuJ92LAgDY8y55Hh+3cSbS6K11nN+8MAkAAAAAAAB0nYI7QAdURX4d6kubDMM61EX3tSgAgFfukVmzR2bSGIRUbj+Le+RGFAAAAAAAAEBXKbgDtFhV5Ola+12cc2kM0kOcq9FyVYoCAHjmHjkJdbF9Jo1BuvBVIAAAAAAAAKCrFNwBWqoq8mmoy+1TaQzeTZzFaLnaigIA+MUOmV6QnMe5jDOWyKDdx/3xQgwAAAAAAABA1yi4A7RQVeRZfHwMSkn8IZXbb0bL1UIUAMAjO+QsPm7tkHxnE+fMi5IAAAAAAABAlyi4A7RMU0y6kwSPKONcjJartSgAgGZ/zEJdbPflH35m0+yPG1EAAAAAAAAAXaDgDtAiVZFfx8d7SbCDdaiLSqUoAGCwu+Mk1C9GZtLgF9IF9zMldwAAAAAAAKALFNwBWqIq8lROmkmCZ1rEuRktV1tRAMBg9sZxqF+KnEuDZ0j7YnpB8kEUAAAAAAAAQJspuAO0gHI7r5TKSqnkvhAFAPR+b7yOj8s4Y2nwQqnkfi8GAAAAAAAAoK0U3AFOqLm++TFOJg32oIxz5SonAPRybzyPj9s4E2mwB0ruAAAAAAAAQGspuAOcSFNu/xRnKg32bB3qovtGFADQ+Z0x7Yqp2J5Jgz1TcgcAAAAAAABaScEd4ASU2zmS+1AX3beiAIBO7oup2D6TBgek5A4AAAAAAAC0joI7wJEpt3Nkqdz+YbRcXYsCADqzK87jXMYZS4QjUHIHAAAAAAAAWkXBHeCIlNs5oTLU19wfRAEArd0VZ/HxPs5EGhyZkjsAAAAAAADQGgruAEei3E5LrENddN+IAgBasydmoS62Z9LghJTcAQAAAAAAgFZQcAc4AuV2Wug+1EX3rSgA4GQ74iTUxfaZNGgJJXcAAAAAAADg5BTcAQ5MuZ0WS+X2D6Pl6loUAHD0/XAe5zLOWCK0jJI7AAAAAAAAcFIK7gAHVhX5x/g4lwQtVob6mvuDKADg4LvhLNRX2yfSoMWU3AEAAAAAAICTUXAHOKCqyO/iYyYJOmId6jJTKQoA2PtemIW62J5Jg45QcgcAAAAAAABOQsEd4ECU2+mwRZyb0XK1FQUAvHonnIS62G4vpIvexZ1wIwYAAAAAAADgmBTcAQ6gKvJ5fNxKgg5L5fZUcl+IAgBetA+O4yPthJdxxhKhwzvhmZI7AAAAAAAAcEwK7gB7VhX5LD7uJEFPlHEuRsvVWhQA8Kx9MF1tn0iDHkgl97e+7gMAAAAAAAAci4I7wB5VRT6Nj0/BlU76Zx3qonspCgB4dBfMQl1sz6RBz6QL7mdK7gAAAAAAAMAxKLgD7ElV5KnU/iUot9Nvizg3yk0A8Kc9cBLqYvtMGvTYQ9wBfxMDAAAAAAAAcGgK7gB70JTb0+X2qTQYgFRuTyX3hSgAsAOGeZzL4CVHhmERd8ArMQAAAAAAAACHpOAOsAdVkd8FFzsZnk2cq9FytRYFAAPc/9Lul662T6TBwFzE/e9eDAAAAAAAAMChKLgDvFJTbrqTBAP2EOqieykKAAaw+2WhLrZn0mCg0td8zuLutxEFAAAAAAAAcAgK7gCvUBX5ND4+SwK+uomzGC1XW1EA0MO9bxwft8FXeyBJ5fYzex8AAAAAAABwCG9EAPAyTcnpoyTgv9I12y/NVw0AoE9733X6Oy4ot8M36UVfX7ECAAAAAAAADsIFd4AXqoo8ldvPJQE/la56Xo2Wq7UoAOjwvpd2vXS1fSIN+Km07y3EAAAAAAAAAOyTgjvACzQXql0shF+7j3MzWq5KUQDQoV0vXadOxfZMGvCkbZyzuOttRAEAAAAAAADsi4I7wDNVRT6Jj89xxtKAnaTi04c4i9FytRUHAC3e89J+l4rtM2nAzjZxx3snBgAAAAAAAGBf3ogA4NnS5Xbldthd+v3yPs7n5usHANA68e+oeXx8Ccrt8FzT+PvnVgwAAAAAAADAvrjgDvAMTfFJeQNeZx3narRcbUQBQAv2uyzULzBOpAGvchb3u7UYAAAAAAAAgNdScAfYUVXkk/j4HFxvh325D3XRfSsKAE6026VieyYN2Isyzju7HQAAAAAAAPBab0QAsLNUgFJuh/2ZxflSFfm1KAA4lvj3zjhO+iLPl6DcDvs0ifNeDAAAAAAAAMBrueAOsIOqyM/j46Mk4GDKOBej5WotCgAOuNPNQ13A9dIiHM6ZnQ4AAAAAAAB4DQV3gF9IVz5DfeFTEQoObx3qonspCgD2uM9l8ZGutk+lAQe3ibvcOzEAAAAAAAAAL/VGBAC/5MonHE8W50tV5LfNyyUA8GLx75JJnPQVnk9BuR2OZRp/312LAQAAAAAAAHgpF9wBnlAVeSpCfZYEnMQ2zs1ouVqIAoBn7nDpJal5qF9UBE6zx73zVR4AAAAAAADgJVxwB3jarQjgZFI5MV1y/xwnEwcAu4h/Z8xC/YKicjucdo/zexAAAAAAAAB4ERfcAR7RFGo/SQJa4yHOlUugADyxu6VCbSYNaI2zuLutxQAAAAAAAAA8h4I7wCOqIv8SHxNJQOvcxFmMlqutKACIO9vXL37EmUkDWmcdd7YzMQAAAAAAAADP8UYEAH9VFfksKLdDW6XrvJ+b36cADHtnu46P9FKivxOgnTI7GwAAAAAAAPBcLrgD/ITr7dAZ6zhXo+VqIwqAQe1q56G+2m5fg/Yr4672VgwAAAAAAADArhTcAX7QXBi8kwR0yn2oi+5bUQD0ek+bNHtaJg3olLSnLcQAAAAAAAAA7ELBHeAHrrdDZ6Vy+4fRcnUtCoDe7Wfj+HgfZy4N6Oye9tbLiAAAAAAAAMAu3ogA4A/N9faJJKCTvpYf00sqcTJxAPRqP0svICq3Q7f3NL+HAQAAAAAAgJ244A7wHdfboVfWcS5Gy1UpCoBO7mVZfNzGmUoDesEVdwAAAAAAAGAnLrgDNFxvh97J4qRr7rdxxuIA6MxONonzMf7wU1Buhz5J+9hMDAAAAAAAAMCvKLgD/OG9CKCX5qEuus9EAdBe6WWkONfxh5/jnEsEeulSBAAAAAAAAMCvjEQA8LVQlYX6SijQb5s4V6Plai0KgFbtYqnQfht8TQeG4CLuYvdiAAAAAAAAAB6j4A4QvpaqUrk9kwQMxn2cm9FyVYoC4KQ72DTUxXZ7GAxHGXewt2IAAAAAAAAAHqPgDgxeVeST+PgiCRicbZwPcRaj5WorDoCj7l/j+HgfZy4NGKQzX9QBAAAAAAAAHvNGBADhUgQwSN/KlZ+rIj8XB8BxxD9zU6k9vVyo3A7+PxgAAAAAAADAX7jgDgxeVeT/CXXRFRi2dZyr0XK1EQXAQXauLD7u4kykAURv495VigEAAAAAAAD4kQvuwKBVRT4Lyu1ALQv1NffbOP5cANjfvjWJ8zH+8FNQbgf+4Io7AAAAAAAA8FMK7sDQ/UMEwA/mcb5URT4XBcDLpZeF4lynP1PjnEsE+MFMBAAAAAAAAMDPjEQADFW6JhrqwhXAYzZxrkbL1VoUAM/as2bx8T642A487be4Zz2IAQAAAAAAAPje/4gAGLCZCIBfmMb5VBV5Kl6lonspEoDHxT8v05+bt3EyaQA7SF/UUnAHAAAAAAAA/sQFd2CwqiJP19snkgCe4SbOYrRcbUUB8Ke9ahzqi+1zaQDP9L//z94d3DZuBWEAJg0V4FQQpoJ1KjBz5SXuwNojT5EqsLcC7U1HuYP1SVe7A20HcgdRB8y8FbNIckliyDLJ933AgDz/gAZPwLyhsxUAAAAAAADwVxciAHLUbxetJAH8T2l4cxc9ZC4KgO/nqjTUni4OGm4HXsO5CgAAAAAAAPgbA+5Arm5FALxSFbXp2uapvywDkKXogXXULl5XUZcSAfw3AwAAAAAAAE6hFAGQo65t0pbRShLACTxELcv19iAKIJNzVDpDpaH2G2kAJ/JTnKVexAAAAAAAAAAkNrgD2ek3LleSAE5kHrWP3rIQBTDxM9Rl1H28pq3thtuBU9JTAAAAAAAAgO8MuAM5qkUAnNhl1Cp9HSJKjwEmJ3pbGj5Ng+13fc8DOKVbEQAAAAAAAAB/KkUA5KZrmzScdSUJ4A09Ri3L9fZFFMDIz01VPDaFC4LA2/shzk4HMQAAAAAAAAAG3IGsdG2TNo7+LgngTD5FfTasBYz0zJS2tS+kAZzJxzgzPYgBAAAAAAAAuBABkJkbEQBnlIZDd13bzEUBjEXfs/aF4XbgvH4VAQAAAAAAAJDMRABk5loEwJlVUZuubW7juSzX268iAYYo+lQdj1XUlTSAd1CLAAAAAAAAAEhKEQA56dombSOtJAG8o4fiOOh+EAUwkPPRZXEcbJ9LA3hnP7sMCAAAAAAAAFyIAMhF1zZVYbgdeH/zqH30pIUogAGcj+5TTyoMtwPDcCMCAAAAAAAAYCYCICO1CICB+LYtuWub3+L5sVxvn0UCnFP0n3Qu2hQu/wHDci0CAAAAAAAAwIA7kBPDEsDQVFFPXds8xnNZrrcvIgHeUv9Fm1VhSzIwTLUIAAAAAAAAgFIEQC66ttkXtpQCw/Yp6nO53h5EAZz4HJS+HLGIupMGMHC/+LoNAAAAAAAA5O1CBEAO+qGuShLAwKXB0130rLkogBOeg9K29l1huB0YhysRAAAAAAAAQN4MuAO5MCQBjEUVtena5ilK7wJeLfWQ1Evi9Uvhoh8wHtciAAAAAAAAgLzNRABkohYBMMK+lba5P8RzWa63B5EA/0X/5Zq0rX0hDWCEXPADAAAAAACAzNngDuTigwiAkZpH7bu2MagK/KvoFd96RmG4HRivqr+oAwAAAAAAAGTKgDuQC1sAgTFLQ16rrm3SoHstDuCfUm+IeorXTd8zAPx/AwAAAAAAAEZpJgIgE5UIgIn0sqeubR7juSzX2xeRQN76Lcer4vi1B4CpqKOexQAAAAAAAAB5ssEdmDzbjoEJuonaRX+774dbgTzPOIt47AvD7cD0/CgCAAAAAAAAyJcBdyAHlQiACUqD7XfFcdD9RhyQj3R5L2pXHDe3u+QC+A8HAAAAAAAATMpMBEAGKhEAE+9xX7q2eY7nslxvv4oEpil+5+n3nobaXWoBpq4WAQAAAAAAAOTLBncgBx9EAGSgLo7b3FdRNjrDxMTv+j79xgvD7UA+fc95BgAAAAAAADJlwB3IgcEIICeLqH3XNgtRwPjFb7mO2sfrnTMNkJkrEQAAAAAAAECe/hCAvbvXitzK+wUszfIFcK7g1CQEJMObkbmcKjFzBS5CRQNXAHUFQKSQ8hXAJEopZ5PBJBNMQr1XYM4V6OzdJWzc7qb5qA9J+3nW2ku0x+Pu/lFCu+Cnv74TAZCAsQiAxMQSbJzk/lM4nuRVPRcJ9Es4f0fxPM5MbAfS3s8AAAAAAAAACTLBHQBguOLk09umLK7asizQceFc3QnrLHwYp7YrtwOp72MAAAAAAACABCm4AwAM3ySsu7Y0C3RUOEdjof0urFNpAAAAAAAAAACp+k4EAABJ2AnrtCmLn8LxJK/qG5FAN7RPWLgKaywNAAAAAAAAACB1Cu4AAGkZhXXdlMU8HI/yql6IBLYjnIfxxpPjzMR2AAAAAAAAAIDf/EUEQAIWIgD4k3FYD01ZnLclW2CDwnl3GA53mXI7AAAAAAAAAMAfKLgDKViIAOCr4vToWHSfiALWL5xro7Buw4fX2fKJCgAAAAAAAAAAPPOdCIAELEQA8KI4wf2qKYufwnGaV/VcJLBa7ZMS4g0lJrYDvI79CAAAAAAAACTKBHcgBf8rAoBXGYd125TFVVvGBVagfULCXabcDgAAAAAAAADwTQruQAoWIgB4k0lYD01ZHIsC3i+cQ/th3YYPr8IaSQTA+zgAAAAAAADg23IRAEPXlMU4HG4lAfAui7CO8qqeiwJevfeIT0CI09rdJALwTmHv4XtWAAAAAAAAkCg/LASS0JRFIwWAD7kJ6ySv6oUo4MU9x2G2nNi+Iw2Ad7sPe47/EQMAAAAAAACk6TsRAIlYhDUSA8C7xdLuuCmLy3C8yKv6USTwu3BuxH1GLLaPpQGwkvdvAAAAAAAAQKL+IgIgEfciAPiwOJH6NKy7dko1JC+cCzthnYUPHzLldoBV+UUEAAAAAAAAkC4FdyAV/xYBwMqMwrpuyuK2nVoNSWpv9LjLljd+ALA6blAGAAAAAACAhCm4A6mYiwBg5cZhPbTTqyEZ8caOeINH+PA6W97wAcAK5VXt/RsAAAAAAAAkLBcBkIqmLBopAKxNnLR6lFe1iasMeS+xEw7HmYntAOt0E/YTfxcDAAAAAAAApMsEdyAlcxEArM1+WHdNWZy3JWAYlPC6Poyv8Uy5HWDdfhEBAAAAAAAApE3BHUiJogTA+sXp1ndtGRh6L7yWR2Fdhw/jGkkEYO1uRAAAAAAAAABpU3AHUqIoAbAZo7Cum7K4jeVgcdBX4fV7li2ntrthA2Az7vOqXogBAAAAAAAA0paLAEhJUxa/hsOOJAA2ahrWRV7Vj6KgJ/uFcTich7UvDYCNOgn7hQsxAAAAAAAAQNpMcAdSY4o7wOadhvUQp2GH5SYjOiu+PsO6Ch/eZsrtAN6vAQAAAAAAAFuh4A6k5p8iANiKWGyPRfe7piwOxUHXhNflJBwewppIA2Ar5nlVL8QAAAAAAAAA5CIAUtOUxa/ZsmgJwPbECa0nimx0YF8wCoc4tX0sDYCtOgr7gpkYAAAAAAAAABPcgRR57D3A9sUp7nGa+7Eo2Ibw2tsJ6yxbTm0fSwRgqx69TwMAAAAAAACeKLgDKfpZBACdEJ+mcd6URSy674uDTQmvt0k43IV1Kg2ATrjJq/pRDAAAAAAAAECUiwBIUVMWcVrrSBIAnXIR1lTBjTVe/yfZstRuDwDQLX8N1/+FGAAAAAAAAIBIwR1IUlMWx+FwLgmAzonl9lhyvxAFK7zuTzLFdoCumofr/g9iAAAYht29g8Nw+DGsePz7f//zr7lU4M3n0U57Dn06l8J55Gf6AAAAJOc7EQCJmmXLotuOKAA6JX5dPm/K4qdwPMmrei4S3kuxHaAXLkUAANBvn5Xafc8d3ncejdpzKH5fdF8iAAAApM7d3kCymrK4CoeJJAA6bZYti+6PouAN1/h4fVdsB+i+RbjG/1UMAAD98my69PfZy6X2H0xwhxfPpVH2ilK7Ce4AAACkyAR3IGXTTMEdoOvi1+nDpiwu86o+EwcvUWwH6OV7MgAAeuBZqf1pUjvwvnNplJnUDgAAAN+k4A4kK6/qRVMWs0zJHaDr4g9QT8PX7PhDn6Pw9XsuEr7ib5lyO0BfxKez3IgBAKC7lNphZefSKFNqBwAAgDdRcAdSZ4o7QH+MwrptyiKW4U7ijUoi4bnwmjgJr49/hw/Ps68/Hh2AbohPZ3kUAwBAtyi1w8rOpVGm1A4AAADvlosASF1TFleZkjtA38RCXCzGnYmCL1zb4w8NrzPT3AG67P8ouAMAdENbxB1nqy+1//Df//xrLmESO5dWXmoP55Gf6QMAAJAcb4aB5DVlESfSPGQmvQL00SJbTnO/EQVfuL7fZiZkAXTRLFy7j8QAALA9G5oureBOCufSfnsejdd1Lim4AwAAkCJvhgGyTyW4s3A4lQRAb83DOsqreiEKPrvGe1ILQPf81TUbAGDzNlRqf07BnaGeS0+l9ng+jdb9+ym4AwAAkCJvhgFaTVnEKe4jSQD02jSsi7yqH0XBs2v8cTicSwKgE0xvBwDYoC2U2p9TcGdI59JGS+3PKbgDAACQou9EAPCbWIq8EgNAr8WncfzUlMU0r+qZOIjCa+EivCbiTQ+x5L4jEYCtv+8CAGCNtlxqhyGdS1srtQMAAEDq3O0N8Iwp7gCDMg/rJK/qe1HQXufjDyVvMyV3gK1dm8N1+QcxAACsXkeLuCa441xaARPcAQAASJEJ7gB/ZIo7wHCMw7pryuIifn3Pq/pRJGmLNzuE18MP7bXeBDuAzTsSAQDA6pguDc4lAAAAGCp3ewN8xhR3gEGK5fY4zX0mCsK1Pk5wj5PcldwBNmcWrsMK7gAAH9SzIq4J7nT5XBqHw499OJdMcAcAACBFJrgD/Jkp7gDDEwvNV01ZxB8Ax2nuc5GkK07zbye5K7kDbPZ9FgAA72C6NKzsXIrn0FOpfUciAAAA0F3u9gb4AlPcAQZvli0nuj+KIunr/acbH7LlDzUBWON11/R2AIC3eVbEHWf9/V61Ce506VzqbandBHcAAABSZII7wJeZ4g4wbJOwDpuyiNPcL8SRpvYGh7+H18FV+5oAYPXi19oTMQAAfJvp0uBcAgAAAJbc7Q3wFaa4AyTjPltOc5+LIunrvpI7wHrEm8nOxAAA8GUDL+Ka4I5zaQVMcAcAACBFJrgDfF2cMngtBoDB2w/rtimLm2xZdF+IJD3h834UXgPxw4k0AFYmTm/3pBQAgM+YLg3OJQAAAOBl7vYGeEFTFrfhMJYEQDJiEe/SpNmkr/0muQOsTrxxTMEdAEje7t5BLN7GAu73WVpFXBPcWcf5lFyp3QR3AAAAUuTNMMALmrIYh8OtJACSswjrKK/quSiSvP4ruQOs4FoarqN/FQMAkKpnpfanIm6KFNxxLq2AgjsAAAAp8mYY4BtMcQdI2k22nD67EEVy138ld4CP+Xu4ft6IAQBIiSLunyi441xaAQV3AAAAUuTNMMA3NGUxCocHSQAkbRrWRV7Vj6JIag+g5A7wPvNwzfxBDABAChRxX6TgjnNpBRTcAQAASJE3wwCvoOAGQLDIltPcTaNNaw9wFw77kgB4kx/C9XIuBgBgqHb3DkbZ8qmfirjf2BcquPONc0mp/RUU3AEAAEjRdyIAeJU4uTd+c3VHFADJGoV13ZTFPByP8qpeiCQJcQLxbabkDvBaM+V2AGCI2lJ7/B7xT94jwofOJaV2AAAA4Jvc7Q3wSk1ZnIXDqSQAaF2ENc2r+lEUg98DxB+8KrkDvM5f3QQGAAyFUvuHmeDO07mk1P4BJrgDAACQIm+GAV6pLbc9ZKa4A/C7WG4/yat6JorB7wNG4XBnHwDwonjj15kYAIA+U2pfKQV351I8l77PlNo/RMEdAACAFHkzDPAGTVkch8O5JAD4zDxbFt3vRTHofUAsNsRJ7kruAH8Wb/r6qyebAAB9pNS+NgruziVWQMEdAACAFHkzDPBGTVnEKe4jSQDwBRfZcnqtct9w9wHjbFlyB+CP4o1eF2IAAPpid+8glm9jCTeWcUcSWQsF9zTOpVGm1L5WCu4AAACkyJthgDdqyiJ+o/ZaEgB8RSy3T5X8Br0XmITDlSQAfrMI172/igEA6Dql9o1TcB/uuTTKlNo3RsEdAACAFHkzDPAOTVnEya1jSQDwgvtsOc12LopB7gXOw+FYEgCf/D1c727EAAB0kVL7Vim4D+tcGmVK7Vuh4A4AAECKvBkGeIemLMbhcCsJAF5hli2L7o+iGNx+ID7R5VASQOLm4Rr3gxgAgC5Rau8MBff+n0ujTKl96xTcAQAASNF3IgB4uziNtymLOKFQqQ2Ab5nE60W4blyG68eZOAblKFsWJfyAF0jZiQgAgC7Y3TuI36v9MVs+eXMkEXj3ubTfnkdK7QAAAMDWuNsb4J2ashiFw4MkAHiDRVhH8UYpUQxmPxB/0Buf6rIjDSBBs3BNOxIDALAtz0rth96XdZIJ7v05lzz1oMNMcAcAACBF3gwDfEBTFufhcCwJAN4oPgXkJK/qhSgGsR+IP/y9lgSQmMew/se1DADYNKX2XlFw7/a5pNTeEwruAAAApMibYYAPaMoi/gAlTnH3gxQA3ioWAy/zqj4TxSD2BPHzeCoJICFT1zAAYFOU2ntLwb1755JSew8puAMAAJAib4YBPkihDYAPWmTLae43ouj9nuA2HMaSABK5dsXp7Y+iAADWYXfvIJbYYwH3+0ypvc8U3LtxPim195yCOwAAACnyZhhgBZqyiFPcR5IA4APmYR3lVb0QRW/3A7FwcWdPACQgXq9mYgAAVulZqf1pUjv9p+C+vfNJqX1AFNwBAABIkTfDACvQlEX8JvG1JABYgWlYF6bi9nZPEH+AfCcJYMDuwzXqf8QAAKyCUvvgKbhv9nxSah8oBXcAAABS5M0wwIo0ZXEbDmNJALACi7CmpuP2dk9wFg6nkgAG6odwfZqLAQB4L6X2tPaOCu5rP5+ezqVxptQ+WAruAAAApMibYYAVacpiHA63kgBgheZhneRVfS+K3u0L3PgGDNFNuCb9XQwAwHvs7h3E90j/yJTaU6Lgvr7z6ao9l3akMXwK7gAAAKToLyIAWI12iuFMEgCs0Disu6YszsPyA8t+iQXQRzEAA3MiAgDgg+9xldthNSaZcjsAAAAwYAruAKs1FQEAa3Ac1kNTFhNR9ENe1bHcfiQJYEjvdcLXtoUYAAAAAAAAgHVTcAdYobbwoeQOwDrEqVxXTVnchjUWRy/2BTfhcCEJYAAefT0DAAAAAAAANkXBHWD1YvHjUQwArMk4rFhyj2V3j6Luvnjj20IMQN+/lrVPpgAAAAAAAABYOwV3gBVrix8nkgBgzSZhPTRlcSyKzu8LjiQB9NgifC0zvR0AAAAAAADYGAV3gDXIq3qWmdYKwPrFCe7nTVnchTUWR2f3BfNs+YQXgD5ykw4AAAAAAACwUQruAOujCALApuyHdduUxXVYI3F00jRz8xvQP/P2Jh0AAAAAAACAjVFwB1iTtggylwQAG3QYVpzmfiaKzu0LHjM3vwH94+sWAAAAAAAAsHEK7gDrpRACwKbthHXalMVDWGNxdEd789tMEkBPXISvWwsxAAAAAAAAAJum4A6wRm0hZCYJALZgFNZtUxZxjcTRGSdhPYoB6Lj4dWoqBgAAAAAgVbt7BzthTcK6DmtfIgCwWQruAOunyAbANo3DitPcz8LaEcd25VX92O4NALps2n69AgAAAABIxu7ewSis41hqD7/8NayrsA6z5ROUAYANUnAHWLO2GHIpCQC27DSsu6YsDkWx9b3BLBzmkgA6ahG+Tl2IAQAAAABIwbNS+1345UNY59my1A4AbJGCO8AG5FV9Fg4LSQCwZaOwrpuyuA1rJI6tMsUd6KojEQAAAAAAQ/aVUvu+ZACgOxTcATZHkQ2ArhiH9dCUxXlYHqm4BXlV34eDCclA18zD16e5GAAAAACAodndO9gP6zysWGhXageAjlNwB9iQvKpvwmEuCQA65DhbFt0notiKaViPYgA6xE25AAAAAMBgfFZqj9Pa48/GRpIBgO5TcAfYLIURALomTnC/asriNixTKjYor+pHewOgQ2bt0yUAAAAAAHprd+/gUKkdAPpPwR1gg9rCyEwSAHTQOKy7pixi2X1HHBvbG8R9gUIpsG1uuAEAAAAAeqsttV+F9Wv45XWm1A4AvafgDrB502xZIAGALpqE9dCUxbEoNkapFNi2y/apEgAAAAAAvfCFUvskWz65GAAYAAV3gA3Lq3oRDpeSAKDD4jf/zpuyiBPdx+JY+95gHg5zSQBbsghfh87EAAAAAAB02e7ewU5Yk7Cuw2oypXYAGLTvRACwFRdh/ZR5JBYA3bYf1m1TFrNwPDHdd63iFPc7MQBb+voDAAAAANA5sdQeDodh/dgeAYBEmOAOsAVtQXAqCQB6YhLWQ1MWZ6JY297gPhxmkgA2bB6+/tyIAQAAAADoit29g1FYx3FSe/jlr2FdZcrtAJAcBXeALcmrehYOc0kA0BNxQsZpUxax6D4Wx1q4+Q3YNNPbAQAAAICte1Zqj0+7fQjrPFNqB4CkKbgDbJciGwB9MwrrtimL67BG4lidvKoXmSnuwObM2qdHAAAAAABs3FdK7fuSAQAiBXeALcqrep4psgHQT3Fqxl1TFmdh7YhjZdz8BmzCY2Z6OwAAAACwYbt7B/thnYcVC+1K7QDAVym4A2xfLLI9igGAHorF9tNsWXT3mMgVMMUd2JDL8PXGexAAAAAAYO0+K7XHae3H2fKJwQAAX6XgDrBlbZHtUhIA9NgorOumLG7DGonjw0xxB9ZpEd6DnIkBAAAAAFiX3b2DQ6V2AOAjFNwBuuEirIUYAOi5cVgPTVmchbUjjvcxxR1YsyMRAAAAAACr1pbar8L6NfzyOlNqBwA+QMEdoAPyqn7MTGsFYDhOw7prymIiinezLwDWYR7ee8zFAAAAAACswhdK7ZOwDEECAD5MwR2gI/KqnoXDvSQAGIhRWFdNWdyGtS+ON+8LFpkp7sDqmd4OAAAAALzb7t7BTliTsK7DajKldgBgTb4TAUCnnIR1KwYABmScLae5X4TjtH1qCa9zmS2/KQywChftzTMAAAAAAK8WS+3hcBjWj+0RAGDtTHAH6JC8qufhcCMJAAboOKyHpiwmonj1viA+2WUuCWAF4s1FUzEAAAAAAK+xu3cwCus4TmoPv/w1rKtMuR0A2CAT3AG658QbQwAGKk74uGrK4h/xetfe2MXL4hT3sRiAD/IEDQAAAADgRbHUni27Cj+FtS8RAGCbTHAH6Ji8qheZ6YoADFv8puhtUxax7L4jjhf3BfHJLgtJAB+wCF9LLsQAAAAAAHzu2aT2u/DLh7DOM+V2AKADFNwBuikWUExYBGDoJmE9NGVxLIoXufEN+IgjEQAAAAAAT3b3DvbDOg8rFtqV2gGATlJwB+igvKpjuf1EEgAkIE5wP2/K4i6ssTi+KE5xd+Mb8B7z8N5iLgYAAAAASNtnpfY4rT0OHxpJBgDoKgV3gI7Kq3oWDveSACARcTLIbVMW12GNxPGHPUEst99IAngH09sBAAAAIFG7eweHSu0AQF8puAN0mynuAKTmMKw4zf1MFH8wFQHwRhd5VS/EAAAAAADpaEvtV2H9Gn55nSm1AwA9peAO0GF5Vc8zE1sBSM9OWKdNWTyENRbHpz3BIhzmkgBeKT75wY0xAAAAAJCAL5TaJ9nyZy0AAL31nQgAOi9OcT8UAwAJGoV125TFPByPTCLOfg5r7GUBvMI0fM18FAMAAAAADM/u3kEsr8cOwY+ZLgEAMFAmuAN0XFvmM30RgJSNw4rT3M/CSnniSHyqi8Iq8C334T3EhRgAAAAAYDhiqT2sSVhxQnuc1H6VKbcDAAOm4A7QD7GgotAGQOpOw7pryiLJb9i205hvvAyAbzgRAQAAAAD03+7ewSisY6V2ACBFCu4APdAW2hRVACDLRmFdN2VxG9Yowb//pZcA8IKb8N5hLgYAAAAA6Kdnpfa78MuHsM4zpXYAIEEK7gA9kVf1LBzuJQEAn4zDemjK4jysnYT2A3EvsPDpB77CTbEAAAAA0DNfKbXvSwYASJmCO0C/KKwAwB8dZ8ui+yShv/PPPu3AF0zzql6IAQAAAAC6b3fvYD+s87BioV2pHQDgMwruAD2SV/U8HGaSAIA/iBPcr5qyuA0rhW/+2gsAn3sM60IMAAAAANBdn5Xa47T2OMRnJBkAgD/7TgQAvTMN6zBblvkAgN+Nw7prymIWjid5VT8O8S8ZJzSHv+N9ZpIL8LvBfs0DAAAAgD7b3TuIP9v/Plv+jH8kEQCA1zHBHaBnYqktHC4lAQBfNQnroSmL4wH/HX/2aQZa9+E9wkwMAAAAANANsdQe1lVYv4ZfXmcmtQMAvJkJ7gD9dBHWT94EA8BXxSednDdlEa+XcbLxfGB/v5v49/NpBuLXOBEAAAAAwHa1k9p/zDyNHQBgJUxwB+ihvKofw2EqCQD4pv2wbpuyuAprMN9Qbp/ocu/TC8mbDfAGHgAAAADovN29g52wJmFdh9Vky0ntk0y5HQBgJRTcAXoqr+pZOMwlAQCvMgnroSmLswH9nX72aYWkuekVAAAAALYnFtqvsuXEdgAAVkzBHaDfFFoA4PXi1JTTpixi0X08gL/PjU8pJO2yfZoDAAAAAAAAwKAouAP0WF7V83CYSQIA3mQU1m1TFtdhjXq8D1iEw8KnE5IUz/0LMQAAAAAAAABDpOAO0H9xivujGADgzeJjQ++asjgLa6enfwdT3CHR9wB5VXsPAAAAAAAAAAySgjtAz7XTWy8lAQDvEovtp9my6H7Ywz//P30KITnz8B5gJgYAAAAAAABgqBTcAYbhIqyFGADg3UZhXTdlcRvWqC9/6Lyq55knuUBqTkQAAAAAAAAADJmCO8AA5FUdi21TSQDAh43DemjK4iysnZ78mec+bZCMWdj734sBAAAAAAAAGDIFd4CByKt6lim4AcCqnGbLovukB3/WX3y6IAnxplbT2wEAAAAAAIDBU3AHGBaFFwBYnTjB/aopi9uw9jv857zxqYIkXLZPbgIAAAAAAAAYNAV3gAHJq/o+HGaSAICVGod115TFeVg7Hbz+L8Jh4dMEg7YI5/qZGAAAAAAAAIAUKLgDDE+c4m6yIwCs3nFYD01ZTDr4Z5v79MCgHYkAAAAAAAAASIWCO8DA5FUdy+2XkgCAtYgT3K+asogT3ccd+nP94lMDgzUPe/y5GAAAAAAAAIBUKLgDDFBe1WfhsJAEAKzNfli3TVnEsvtOB/48c58SGCzT2wEAAAAAAICkKLgDDNeJCABg7SZhPTRlcbzNP0Re1YtwePTpgMG5aM9vAAAAAAAAgGQouAMMVF7VN5lprgCwCXGC+3lTFrHoPt7in8N1H4Yl3rQyFQMAAAAAAACQGgV3gGEzxR0ANmcU1m1TFtdhjbbw+//iUwCDMs2r2pMZAAAAAAAAgOQouAMMWF7V9+FwIQkA2KjDsO6asjjb8O97L3oYjPuwl7ePBwAAAAAAAJKk4A4wfNOwTH4EgM3aCeu0KYuHsMab+A3zqp6LHQbDk5gAAAAAAACAZCm4AwxcXtWx3D6VBABsxSis26Ys4hpt4PczxR3678YNKwAAAAAAAEDKFNwBEpBX9UU4LCQBAFszDitOcz8La2eNv4+CO/Sf6e0AAAAAAABA0hTcAdJxJAIA2LrTsO6asjhc03//3yKGXpvmVb0QAwAAAAAAAJAyBXeARORVPQ+HuSQAYOtGYV03ZXEb1v6K/9smuEN/LcK6EAMAAAAAAACQOgV3gLSY4g4A3THOltPcz8PaWdF/U8Ed+itOb38UAwAAAAAAAJA6BXeAhORVvchMhQSArjkO66Epi8kKrvWxHLsQKfTOPJy/MzEAAAAAAAAAKLgDpGgalsmQANAtcYL7VVMWt2Htf/C/tRAn9M6JCAAAAAAAAACWFNwBEtNOdlWgAYBuGod115RFLLvvvPO/8YsYoVdmYY9+LwYAAAAAAACAJQV3gATlVT0LByUaAOiuSVgPTVkcv+P/60kt0B9uPgUAAAAAAAD4jII7QLoUaQCg2+IE9/OmLOJE9/Eb/n9uYoP+uGyfsAQAAAAAAABAS8EdIFF5Vc/D4UYSANB5+2HdNmVxFdboFf++gjv0wyLsyc/EAAAAAAAAAPBHCu4AaYtT3E2MBIB+mIQVp7mfvfQvmQYNvXEkAgAAAAAAAIA/U3AHSFhe1YtwuJQEAPTGTlinTVk8hDV+4d8zxR26bd4+UQkAAAAAAACAzyi4A3AR1kIMANAro7Bum7K4Dmv0hf/dFHfoNtPbAQAAAAAAAL5CwR0gcXlVxwLcVBIA0EuHYd01ZXEW1s6zf26CO3TXtH2SEgAAAAAAAABfoOAOQCy5z8JhLgkA6KVYbD/NlkX3w/af/T+xQCfFm0svxAAAAAAAAADwdQruADwxxR0A+m0U1nVTFreigM46aZ+gBAAAAAAAAMBXKLgD8Ele1fNwmEkCAHpvnC0nugPdct8+OQkAAAAAAACAFyi4A/DcSVgmSgIAwHr22gAAAAAAAAB8g4I7AL/JqzqW2y8lAQAAKzVrn5gEAAAAAAAAwDcouAPwB3lVn4XDQhIAALAS8SbSqRgAAAAAAAAAXkfBHYAvOREBAACsxGVe1QsxAAAAAAAAALyOgjsAf5JX9U04zCUBAAAfsmifkAQAAAAAAADAKym4A/A1RyIAAIAP8WQkAAAAAAAAgDdScAfgi/KqXoTDhSQAAOBd5u2TkQAAAAAAAAB4AwV3AF4yDetRDAAA8GaeiAQAAAAAAADwDgruAHxVXtWx3H4iCQAAeJOL9olIAAAAAAAAALyRgjsAL8qrehYO95IAAIBXiTeJTsUAAAAAAAAA8D4K7gC8hinuAADwyr1z+yQkAAAAAAAAAN5BwR2Ab8qreh4ON5IAAIAX3bdPQAIAAAAAAADgnRTcAXitOMXdJEoAAHh5zwwAAAAAAADAByi4A/AqeVUvwuFSEgAA8EWz9slHAAAAAAAAAHyAgjsAb3ER1kIMAADwB/FJR1MxAAAAAAAAAHycgjsAr5ZXteIOAAD82WX7xCMAAAAAAAAAPkjBHYA3yat6Fg5zSQAAwCeLsEc+EwMAAAAAAADAaii4A/AeJyIAAAB7YwAAAAAAAIBVU3AH4M3yqr4Ph5kkAABI3DzsjW/EAAAAAAAAALA6Cu4AvFecVPkoBgAAEnYkAgAAAAAAAIDVUnAH4F3yqo7l9qkkAABI1EXYEy/EAAAAAAAAALBaCu4AvFte1RfhsJAEAACJcbMnAAAAAAAAwJoouAPwUUciAAAgMSftE40AAAAAAAAAWDEFdwA+JK/qeTjMJQEAQCLmYQ88EwMAAAAAAADAeii4A7AKprgDAJCKqQgAAAAAAAAA1kfBHYAPy6t6kSn6AAAwfLP2CUYAAAAAAAAArImCOwCrchHWoxgAABiouNc9EQMAAAAAAADAeim4A7ASeVUr/AAAMGSX7Z4XAAAAAAAAgDVScAdgZfKqnoXDXBIAAAzMIux1z8QAAAAAAAAAsH4K7gCs2lQEAAAMzJEIAAAAAAAAADZDwR2Alcqreh4OM0kAADAQ83aPCwAAAAAAAMAGKLgDsA4nYT2KAQCAATC9HQAAAAAAAGCDFNwBWLm8qmO5/VISAAD03DTsbRdiAAAAAAAAANgcBXcA1iKv6rNwWEgCAICeinvZCzEAAAAAAAAAbJaCOwDrdCQCAAB6ato+mQgAAAAAAACADVJwB2Bt8qqeh8NcEgAA9Mw87GVnYgAAAAAAAADYPAV3ANbNFHcAAPrmRAQAAAAAAAAA26HgDsBa5VW9CIepJAAA6ImLsIe9FwMAAAAAAADAdii4A7AJF2E9igEAgI6Le1Y3ZwIAAAAAAABskYI7AGuXV3UsCp1IAgCAjpu2e1cAAAAAAAAAtkTBHYCNyKt6Fg5zSQAA0FH3Yc96IQYAAAAAAACA7VJwB2CTpiIAAKCjPHEIAAAAAAAAoAMU3AHYmLyq5+EwkwQAAB0za/eqAAAAAAAAAGyZgjsAmxYnYz6KAQCAjoh7U08aAgAAAAAAAOgIBXcANiqv6lggupQEAAAdcRn2qAsxAAAAAAAAAHSDgjsAG5dX9Vk4LCQBAMCWLdq9KQAAAAAAAAAdoeAOwLYciQAAAHtSAAAAAAAAAJ5TcAdgK/KqnofDXBIAAGzJvN2TAgAAAAAAANAhCu4AbJOJmQAA2IsCAAAAAAAA8BsFdwC2Jq/qRThMJQEAwIZN270oAAAAAAAAAB2j4A7Atl2E9SgGAAA2ZNHuQQEAAAAAAADooO9EAMA25VX92JTFSfjwShoAAGzASdyDigEAPm5372AUDqMP/Cce//uff91LEgAY0P5oPxx22rXf/uP/+9me6aN7qG+J+6vn3/tYhPW/T/uv9n//9O+FvZjvkQAAAJ2k4A7A1uVVPWvK4qfw4VgaAACs0TzsPW/EAAB/9pUy1t/aX2ef/fNV/r5f+seLdj355fn1vD0qZAEA29o3jbPfS+p/e7ZP2unIH3H/DX+X53uvuGIR/lNBPuy15j7bAADAtii4A9AV00zBHQCA9ToRAQAp60EZ68nTn/HJ+NnHp8/+PvGwyBSyAID17J322z1JPH6frX/yelf2Xs/3Wk8T3+P6d9xz2WcBAACboOAOQCfkVT1vymIWPpxIAwCANbgIe857MQCQgraM9VTIGnIZK8teLmQt2vVLe4xT3+0HAIAv7Z/iDX/j7PcyexdvAtyGp1zGn+2znpfe5/ZYAADAqim4A9AlcaLmYeYbhgAArFacNjYVAwBD9KzM/rf2OJbKb0btGj/LKx7m2e+FLKV3AEhzD/VU3P4++73YzuvtP8/s2R7rl3afFUvvj2ICAADeS8EdgM7Iq/qxKYtYPDqXBgAAK3QS95piAGAI2kL7OPu9jGVQwNuNsz+W3uM+YZ79PoF0LiIAGOQ+Kl7/f8wU2je1x7pv91i/hP3VjXgAAIC3UHAHoFPyqr5oyuIf2XAfmw0AwGbNwx5zJgYA+kqhfSNipoftOn02gfSf2bLwbsI7APRzH/V0jf/RPmornqa8H9tfAQAAb6XgDkAXHYV1KwYAAFbgRAQA9ElbxBpnvxexRlLZinG7nia8x6mjv8Tjf//zL0+GAYDu7qXi3ul5qZ1u7q8WT/sr090BAIAvUXAHoHPyqp43ZRG/mXUoDQAAPmAW9pYmggHQec+KWN9nvh/SRfGmg0m7rsLna54tp4/GsvtCPACw9b3U06T2+ITgfYn0Qtz/HmfL6e5PNxP+U9kdAAB4ouAOQFfFSZt+oAsAwHs9Zqa3A9Bhz0rtP2WKWH0zbtd5+DzGm+l+zpTdAWAb+6mnvZSfJ/XbbzcTKrsDAABPFNwB6KS8qhdNWUzDh6fSAADgHaZhT/koBgC6pJ0uOsmU2odkv11PZffLbFl2tw8BgPXsp0bZclJ73FPtSGRwvlR2/znsreaiAbbsp/B1aSyGTpu7XgAMi4I7AF12kS1/4DsSBQAAb3CfV/WFGADoit29g0k4/JiZLjp0seh+FVf4nD+VsUweBYDV7afiz4zG0kjG87L7Ils+NWfmqTnAlkxE0AtzEQAMh4I7AJ0VJ242ZXESPryWBgAAb3AiAgC2bXfvIJadYwlrkpkumqJ4M8OhMhYAfGg/NWr3Uv+wn0pefC3Epz6fupEQAADSoOAOQKflVX3TlMU8M5EDAIDXmYU95FwMAGyL6aJ8ZpT9sYx16ZHpAPDN/VS8UTCW2ifS4AvcSAgAAAlQcAegD+IEzjsxAADwDY+Z6e0AbIHporzS8zLWNKyb//7nX49iAYDf9lTjbHlj2FgavMIo+/1Gwlm2nOo+FwsAAAzDX0QAQNflVX0fDheSAADgG6Zh76gkBsDGxBJWWFfhw4dsWa5Rbuc1RmF9et2E189ZWF43ANhT7R3chg/jGkuEd5jE1098HbVPVAIAAHrOBHcA+iJOtZpkflAMAMCX3edV7aZIADbCdFFWZKd9Hf2jnTp6+d///GshFgDsqeDd4msp3jARX1eemAMAAD1mgjsAvdBO4jyRBAAAX2GvCMDaxWmQYcVp7aaLskqx6H6cLSe6X4U1EgkAA99TmdjOusX9lCfmAABAjym4A9AbeVXPwuFeEgAAfGYW9opzMQCwLs+K7bEkM5IIazTJfi+6K2IBMLQ9lWI7m/b0xBxFdwAA6BkFdwD6xmROAACei0/6mYoBgHVQbGeLJpkiFgDD2VMptrNtiu4AANAzCu4A9Eo7mXMmCQAAWpdhj7gQAwCr1Jaw7jLFdrZLEQuAvu+pRvGpJJliOx3dX4kDAAC6S8EdgD6KU9wfxQAAkLxFXtVnYgBgVT6bLrovETriqYh1F58qIA4AerCn2mnLw/FJOK5ddHZ/FZ/WZH8FAADdpOAOQO/kVR3L7ZeSAABI3pEIAFgF00XpiVFYV/EmjHgzhjgA6Oi+apIti+2n0qBH+6sH+ysAAOgWBXcAeqmd1LmQBABAsm7CnnAuBgA+4tl00bvMdFH6YxxWLLnHMtaOOADoyL5qv30STrxp0PWJvhm1+6u4RuIAAIDtU3AHoM9M7AQASFN8os+JGAD4iN29g8NsWWyP00WVsOijSVhx2uixKADY4p4q3jB43u6rxhKh58bt/urcjYQAALBdCu4A9FY7sfNGEgAAybkMe8GFGAB4jziRsZ0uep0tJzVCn8Xi1blpowBsaV81zpbFdjdbMTTxNR2L7hNRAADAdii4A9B3JncCAKRlkVf1mRgAeI/dvYN4DTFdlCGKr+mH9jUOAOveUz1NbY83DY4kwkDFGwmv2hsJ98UBAACbpeAOQK+1kzunkgAASMaRCAB4q1hICSsW20+zZVEFhuo0vtaVsABY475qnJnaTlo+vebdSAgAAJul4A7AEFyEtRADAMDg3eRVPRcDAG/xbGq7wi+piK/1OGlU8RCAdeyrTG0nVW4kBACADVJwB6D38qp+DIcTSQAADJo9HwBv8tnUdkhNfFLBeTgHYtHdUwsA+Oi+amRfBZ/Ecrtp7gAAsAEK7gAMQl7VN+EwlwQAwGBNw55vIQYAXqOdXB2ni5quSOrGYT2Ec2IsCgDeua86zDwNBz532t5IOBIFAACsh4I7AENioicAwDDd51V9IQYAviVOqg7rOnx4ni0nWAPLc+HWpFEA3rG3inuqa/sq+KJxtpzmPhEFAACsnoI7AIORV/V9OCg+AQAMjxsZAfimdkL1Q1iH0oAvepo0qqQIwLf2VfGmwfg0nGNpwIvivuoqnC9X9lgAALBaCu4ADM00rEcxAAAMxiyv6rkYAHhJO5k6lrCUSuBl42w5aXRfFAB8ZV8VrxF37TUDeJ2JPRYAAKyWgjsAg5JXdSy3m/AJADAM9nYAvOjZdNFTacCrjcKKk9wnogDgs71VfBLObXutAN6+x7qzxwIAgNVQcAdgcPKqnoXDXBIAAL03bW9gBIA/MV0UPiQ+7eAqnEfnogCg3VtNwuE680Qc+Ki4x4rLuQQAAB+g4A7AUJn0CQDQb/d5VV+IAYAvaQtYsdw+kgZ8yLECFgDtDU9XkoCVie9X4hNzvF8BAIB3UnAHYJDyqr4PB4UoAID+OhIBAF8Sy7iZAhas0iRbFrCU3AHS3VsdSwJW7tMTp8I5NhYFAAC8nYI7AEM2DetRDAAAvXPR3rAIAL+J5duw4tT2iTRg5WIBK5bc90UBkNTe6treCtZqp91jOc8AAOCNFNwBGKy8qmO5fSoJAIBesYcD4E/a0m0styvfwvoouQOks7f6VLoN61AasBFX7dMSAACAV1JwB2DQ8qq+CAfTPwEA+uOkvVERAD7Z3TsYZ8sC1kgasHZPU0aV3AGGu7d6Krf7Wg+bNQnn3217DgIAAN+g4A5ACk5EAADQC/O8qmdiAODJ7t7BJFsWsJRAYHOU3AGGu7dSboftGrf7rJEoAADgZQruAAxeXtXzcJhJAgCg845EAMCT3b2Ds3C4kgRsxVPJ/VAUAIPZWym3QzfEc/DOzYQAAPAyBXcAUhGnuD+KAQCgs6Z5VS/EAEC0u3cQi+2nkoCtikXI6/ZJCgD0e2+l3A7d22fFmwnHogAAgC9TcAcgCXlVx3L7VBIAAJ20CPu1MzEAEMtXbbl9Ig3ojHMTRgF6T7kduuep5O69DwAAfIGCOwDJyKv6IhzuJQEA0DlHIgDg2WTRiTSgU57KV4qRAP3cY8WbB30Nh+66UnIHAIA/U3AHIDUnIgAA6JSbvKrnYgBI27Nyu/IVdJOSO0A/91iejAP9oOQOAACfUXAHIClteWomCQCAznADIkDilNuhN5TcAfq1xzrLlNuhT2LJ/VwMAACwpOAOQIpiiepRDAAAWzfNq3ohBoB0KbdD78Rz9ro9dwHo7h5rEg6nkoDeOW6fvAAAAMlTcAcgOXlVx3L7VBIAAFsV92QXYgBIl3I79NYoW05yV3IH6OYeK+6tFGShvyZK7gAAoOAOQKLyqo5lqoUkAAC2ZtreeAhAgpTbofeUJwG6uccatXssoN+U3AEASJ6COwApOxEBAMBWLNobDgFIkHI7DMah4hX8f/buH7ttK/8bMDRn+tG7gmAaFmyidOyMtGyirCB0ycryCmSvQEmlUsoKIjdqQ3fsfnLDghWzA2UFfC9iKCM7EsU/AAnc+zzn8CAzk+SMP4LAL8jPvYDWzVi/hZcnbEAclNwBAEiagjsAyTq6vL0Jh4kkAAD27r0IANKk3A7RKYtXIzEAtMKFGQuinLXOxAAAQIoU3AFInXIVAMB+lbu3X4sBID3K7RCtq/D7XYgB4KBz1igcRpKAKF1YUAgAQIoU3AFI2tHl7SSzizsAwD69FQFAepTbIXq/hd/zXAwAB5mzyvnqShIQtSsldwAAUqPgDgBZ9loEAAB7MTm6vL0RA0CSytKVcjvEq1zE8psYAParWkTo+guJ3FMpuQMAkBIFdwCSd3R5uwiHa0kAADTuVxEApKfXH5Tl9lNJQPROwu/7hRgA9qqcs3IxQDIuqqc2AABA9BTcAeCz9yIAAGjU4ujy9loMAGmpyq4jSUAyzsLvvQUtAPuZs8oZyzUX0lI+teF3JXcAAFKg4A4AmV3cAQD2wIJCgMRUpaszSUByrsLvfy4GgEbnrPI666kZkKay5P5buA4ciwIAgJgpuAPA/yhdAQA0w+7tAImpdnC+kgQk6a/SlRgAGnVVXW+BNOXZ553cXQcAAIiWgjsAVKpd3CeSAAConYWEAAnp9QcnmXI7pO4kXAveiQGgkVmrfEJOIQkwb2We5AAAQMQU3AHgS8pXAAD1ug+vGzEApKHaQfD3zI6iQJadVwteAKhv1srL66skgMrIokIAAGKl4A4Ajxxd3k4yu7gDANTplzBj3YsBIH7K7cATrqprAwA1XVfNWsBXykWFIzEAABAbBXcA+KdfRQAAUJtrEQAk4yK87NYMPFZeE+w0DFCDXn9wGg6FJICn7sU8OQcAgNgouAPAV44ub6/DYSEJAICdXYfZylwFkIBef3AWDiNJAE84U7gC2HnWKndtv5IE8IzyGvGbJ+cAABATBXcAeNovIgAA2Jkn4wAkoNpN9EISwApKmQC7KZ+GobgKrJKH129iAAAgFv8WAQA86TrzgTHQTpPwuguvPx/9d99mnx/7nosHaJHF0eXtRAwAcev1B+UMqrgKvMQ9K8Bu89aZJIA1FOGa8W4+m74TBQAAXafgDgBPOLq8vV+OhzeZx6sD7XAdXh/Ctelm1d8Urlt5dd36KVMcAA7PE3EAItfrD8pF4eUOgRaHA+twrQDYjsWEwCbOw73aZD6bTkQBAECX/UsEAPAspSzg0MpC+3+PLm9fv1RuL4W/p9wt+V14/Tf8x7fhdS9C4ICuRQAQvYvs867MAAA0pxABsKHfqgXJAADQWQruAPCMo8vbu3C4kwRwAGUx/cdwHSpfiy2vYT+HQ1l0n4gTOIDr8ok4YgCIV68/GGWeegYAANBGD0/bAgCAzlJwB4DV7OIO7Fu5sOa7dXZsf0lZLg2v7zO7KAP790EEAPHq9Qflru0XkgAAAGitIty7vRMDAABdpeAOAKuVBVO7jwL7Upbbv9921/bnhH/f60zJHdifRR2LdABop+ox91fZ5x0BAQAAaK/zcA9XiAEAgC5ScAeAFcrdj7PPJXeApj2U2xtZVKPkDuyR2QkgbufhdSIGAACATriqFioDAECnKLgDwMs+iABoWKPl9gdK7sCe/CoCgDj1+oPTcDiTBAAAQGfk4XUhBgAAukbBHQBecHR5W+5CupAE0JC9lNsfXdOU3IEmLcJ15k4MAPGpdvy7kgQAAEDnjKoFywAA0BkK7gCwnhsRAA3Ya7n9gZI7YGYCYAtlud1j7QEAADp6T1ctXAYAgE5QcAeA9fwqAqBmBym3P1ByB8xMAKyr1x+chYPd/gAAALrLU7kAAOgUBXcAWMPR5W1ZRF1IAqjJQcvtj65tSu5AnRbVzARARHr9QR4O55IAAADovNNwj2fxMgAAnaDgDgDruxEBUINWlNsfKLkDZiUAXlDu8Ocx9gAAAJHc4/X6A/d4AAC0noI7AKzvVxEAO2pVuf2BkjtgVgLgKb3+4CwcCkkAAABEoyy3e0oXAACtp+AOAGs6urwti6kLSQBbamW5/dE1Tskd2MWimpUAiESvP8gzpQcAAIAYnYV7vkIMAAC0mYI7AGzmRgTAFlpdbn+g5A7sYCICgOhcZJ939gMAACDOez4AAGgtBXcA2MxHEQAb6kS5/YGSO7ClDyIAiEevPzgNh1NJAAAAROsk3Pu9EwMAAG2l4A4AGzi6vC13cL+XBLCmTpXbH13rlNyBTU1EABCHXn9Q7tpuJz8AAID4vQn3gLkYAABoIwV3ANjcRATAGjpZbn+g5A5sMht19VoHwJPOwysXAwAAQPSOq3tAAABoHQV3ANjcBxEAL+h0uf2Bkjuwpo8iAIhDrz84CYczSQAAACRjFO4FCzEAANA2Cu4AsLmJCIAVoii3P1ByB9ZwIwKAaFyIAAAAIDl2cQcAoHUU3AFgQ0eXt4twWEgCeEJU5fZH1z0ld+A59+EacScGgO7r9QejcCgkAQAAkJyiuicEAIDWUHAHgO1MRAB8Jcpy+wMld8BMBBCvXn9wnNmxDwAAIGXn1b0hAAC0goI7AGznowiAR6Iutz9Qcgee8EkEAFE4C69cDAAAAMnKq3tDAABoBQV3ANjORARAJYly+wMld8BMBBCXXn+Qh8MbSQAAACTvjV3cAQBoCwV3ANjC0eXtIhwWkoDkJVVuf3QNVHIHHq4HEykAdN55eCkwAAAAUN4b2sUdAIBWUHAHgO1NRABJS7Lc/kDJHTALAXRfrz84CYeRJAAAAKjYxR0AgFZQcAeA7X0SASQr6XL7AyV3cC0UAUDnXYgAAACAR47dKwIA0Ab/FgEAbG0iAkiScvsjZcl9OR6WfzmSBiTnowgAuqvXHxThUEgCAIDITapj+bnun9VfL6rXKuXTjlbtYv3to/89r14Qi1G4Z3w/n00XogAA4FAU3AFgS0eXt3dVqRNIh3L709dDJXdI95oIQHedi4COu6/mkfL46dF88vf92nw2nTz1D/b6gzxbr4RWltZOqr/+pvpnHv93AEC75oJyMf6ifD03B2xgq3++WkhaKo//qeaGdWcPaNs942sxAABwKAruALCbSWbHO0iFcvsKSu6QnPvwe78QA0A32b2djt6PTcLrj+qv7+az6db3ZtVOlOvOMjfP/B7l2eeiWvm7VJbfTzLFdwDYl0U1G5SF9kmbdpl+VKyffDU7HD+aF76tZojcj5IWs4s7AAAHpeAOALspv1QtxABJ/K4rt79AyR2Suy4C0F0XIqDlJtn/CmuTNv4ffFSS/+L/36MFJA/FtWM/TgDY2X31nvsha1mhfYPZ4eHPMHk0NxxX88Kr8DrNFN5pn1F4vRMDAACHoOAOALv5JAKInnL7BpTcIalrIwAd1OsPyjnNLtO0zSL7vFP6x/lsetPlP0hVyJ88+p0rf9/KwtoPfvcAYCP31XzwoevzwYq54eHPWL7eVk+IKaq54dQpQAu8Ceflz7s8PQkAALal4A4Au1Hugvh/x5XbN6TkDkmwyA+gu96IgJZYZJ/LXL/OZ9NoP1+p/mzl653SGgCs5aHUfp3aH7zamb78c19Xu7ufmhs4sPI8PMvs4g4AwAEouAPADo4ub++qEicQH+X23a6PSu4Qt4UIALqn1x8UmR2kOayHXUp/ibnU/pwnSmvl/dJPfi8B4K/PGX4t3yOr98vkVTtmmxtog3KR9DsxAACwbwruALC78gtZHyhCfL/Xyu07UnKHqH+/J1IA6KRzEXDAe6xfwuumKmslr8rh5/LV6w/Kz5XK4lC5O+uxdABIyCT7/DSXa1FsPDeMJMOeHIfzbuT3FACAffuXCABgZwsRQFSU22tUltyzzzsNAfFwfQTooGr39kIS7Fl5L/D9fDb9rizEKLc/rdzNPrzKe6f/hld5XEgFgMhNqhnhe6XZreeG/xde7zOf07AfFksDALB3dnAHgN19yj7vsAV0n3J7A+zkDlFeKwHonjciYI+uw+v9fDZdiGJ91QKAMrvrXn9wWv3eFpIBICKTakaYiKKWueFdmBnKnd3PqrnBk2BoSl4umva7S+LeZj4bb7uFCADiouAOALtzIwvx/C4rtzdEyR3MPgAcTq8/yDMLs9mP60yxvRYhw5twuKmevlDumFlIBYAOKz9LeKsc28jMoOjOvpQzqd9hkn4v8z4GAPv1LxEAwM6UYaH7lNv3oCy5Z58LL0C3/SkCgM7xOHmaVs75/53Ppq+V2+tVFijC6/vynjWz0BCA7ik/by3ng++UAhufGe7D6105k4XXzxKhAUW1eBoAAPZCwR0AdnR0eTuRAnSacvt+r5lK7tB9Zh+ADun1B+XujXZvp8m54HvF9uZVRffvwl+W91SyBqAL3mefF8Bdi2KvM0NZdH+bfS66TyRCzSyeBgBgbxTcAQBImXL7ASi5AwDs1Si8jsVAzR52Y/3ebqz7VZUEy6L7e2kA0FLlZ67lju3vyrK1OA42Myyqp8D8mHkSMfU5rRZRAwBA4xTcAaAeExFA5yi3H5CSO3T699fcA9Atb0RAzco53m6sB1TtzPouszMrAO1Sfs76tnziSHjdiaM1c8NNNTPcSIMalOX2kRgAANgHBXcAAFKk3N4CSu4AAM3q9Qen4ZBLgposyvuo+Wz62m6s7fBoZ9a3mZ1ZATisu2pO+FkUrZwZysVx5U7udnOnDhZRAwCwFwruAFCPjyKAzlBubxEld+jkNRSA7vhJBNSknNnL3Vgnomifqkz4XWY3dwAO42e7tndmZnjYzd3MwC7yXn9QiAEAgKYpuAMAkBLl9hZScodOcf0E6Ihef5CHw6kkqOG9/0e7trffV7u5A8C+5oRy13bvPd2aGe6rmeG9NNiBXdwBAGicgjsA1MPOJNCN31Pl9pZScofOcA0F6I6RCKjhHuq7aqdPOuLRbu4+qwJgH3PCRBSdnRnehcOPmc962M5ptagaAAAao+AOAPXwASC0m3J7Byi5Qyd8EgFAZ9hRj138PJ9Ny9LaQhTdE35uf90Du78CoCHX5oRoZoabamawMI5teGIYAACNUnAHACB2yu0douQOALC7Xn9QFg2OJcEWyvum1/PZ9K0oui38DO/Dq7y/8rMEoE5vq/cX4pkZHhbGKbmzKYuqAQBolII7ANTg6PJ2IgVoJeX2bl5TldyhvVxPAbrhJxGw5fv89/PZ1CwekfDz/Dn7XFozxwGw65zwunpfIb55oVwY913mM1k2k/f6g0IMAAA0RcEdAIBYKbd3mJI7tPraCkCL9fqDPPOoeLZ7j/9vtYMnkQk/10n2ueS+kAYAW7AILp2ZwWeybMriagAAGqPgDgBAjBaZcnvnKbkDAGxFuZ1N/bU4uNy5UxTxqhYvfJdZsAjAZh7K7d4/0pkZfCbLRvefvf7gWAwAADRBwR0A6uMDXmiH8kuXH5Xb41CV3CeSAABY2xsRsIHr+Wz6nXJ7Gqqfc7mTu8+wAFjHIlNuT3VmUHJnXWW53SJrAAAaoeAOAPXxZTC0w/ujy1tfusTlR9dYAICX9fqDk3DIJcGarqvyEglRcgdgTX89+UO5PemZQcmddf0kAgAAmqDgDgBATBZHl7c/iyEu1W787yUBreCLbYB2s3s761JuT5iSOwAv+OsJmZ7wgpI7ayp6/UEuBgAA6qbgDgBATJSgI1UtXFhIAg7+u+jLbYB282h41qHcjpI7AM/56/0hvE8sREE1Myi5414UAICDUHAHACAW5e7t12KI2q8iAAB4Wq8/KAsFx5LgBcrt/E3JHYCvPJTbvS/w9cxQzo8TSbCCp4kBAFA7BXcAqM9CBHBQNyKI3rUIAACe9ZMIeGmeVm7na0ruADyi3M4qP5oXWCHv9QcnYgAAoE4K7gBQnz9EAAf1UQRxO7q8XWQWEwEA/EOvPyh3bvdIeFYpy0hvxcBTHpXc76UBkKzXyu2sMS/8aF5gBYuuAQColYI7AACxmIggCb5oAwD4J+V2Xpqhv69KSfAkJXeApL0P7wPXYmCNeWFRzQvgvhQAgMYpuAMAEIWjy1tfwqfhkwgAAP7hBxHwjPI+6bVyO+uodu59LQmApNyE6/87MWBeoAZ5rz84EQMAAHVRcAcAAAAA6Khef3Cc2SmP572uSkiwlnC+3ITDe0kAJGGRKSqz3bxwHQ7XkuAJP4kAAIC6KLgDAAAAAHSXcjvPeV+VlWEj1U6+zh2A+P3oKS/s4G14WUiJ+1MAABqj4A4AAHTJf0QAAPCFH0TAEyZVSRm2Ve7ouxADQLTeesoLu6gWR3gCAF/Le/3BiRgAAKiDgjsAAFFYjoc+NE2DnzMAQKXXHxxndsjjn5SN2FlVWvtREgBRKhfC/SwGapgXykUSbyXBV9yjAgBQCwV3AABiofichkIEAABmI1Z6PZ9NF2JgV1Vp7b0kAKJiIRx1zwvlYomJJHjEU8YAAKiFgjsAALHwoWnkluOhnV8AAMzArHYzn01vxEBdwvn0LlNaA4jJewvhaEC5aOJeDFROev1BLgYAAHal4A4A9fmPCOCgTpfjYS6GqClwAQB8NQOLgEfsyEpTlNYA4jCpdtuGWlWLJn6RBO5VAQCok4I7ANTnRARwcCMRxKlavODnC4f/XSykANAOvf6gvCYfS4JHXs9nUyVkaleV1t5LAqD7s4IIaHBeeBcOd5Kg8koEAADsSsEdAICYvLGLe7QuRAAA8AVPt+Gxm/lseiMGmlLt+Ku0BtBd76sFS9CktyKgctrrDyzIBgBgJwruAADEpPzA9EoMcVmOh+XjTD3SFADgS+YjHpS7tisTsQ92/gXopkV4/SwGmjafTSfhcC0JKoUIAADYhYI7AACxKZbj4TsxxCH8LE8yixYAAL7Q6w/ycMglQeUXO7KyD+E8K3dwV5AE6J634Rp+Lwb2db5lnxdggqeOAQCwEwV3AKiPR+1Be5wvx8ORGLot/AwfduR3fYX2OBEBQCvYvZ0Hi/ls+k4M7NH7TGkNoEsmYVa4EQP7Ui2m+EUSZHZwBwBgRwruAFAfhS9olysl9+6qyu2/u7ZC61hwAtAOr0RA5a0I2KeqtOa8A+iO9yLgAMonvizEkLy81x/4fB8AgK0puAMAEDMl9w5SbgcAeJEd3CnZkZWDCOfddaa0BtAF1+GaPREDB5gVygVxFldQKkQAAMC2FNwBAIidknuHKLdD630jAoDD6vUHhRSoKA1xSHZxBzArwLMsiKPi6WMAAGxNwR0AarAcDxUxod2U3LtxLVVuh/bLRQBwcD+IgOzz7u0TMXAo1dMDnIMA7VXu3r4QAwdmkQWePgYAwNYU3AGgHscigNZTcm8x5XYAgLUVIiB4LQJaQGkNwDUanmUXd0qeQgYAwLYU3AEASImSewspt0OnFCIAOJxef3BsZiKzIystUT1FYCIJALMCrGCxBYUIAADYhoI7ANSjEAF0hpJ7iyi3AwC492Rjv4qAFlFaA3BthmdVu7jfSyJpr0QAAMA2FNwBAEiRknsLKLdDZ393/c4CHI5iAJNq12xohep8XEgCoFWzgusybfOLCJJWiAAAgG0ouANAPb4VAXSOkvsBKbdDpx2LAOBgChEkz46sOC8BcE2ma34WQdp6/YF7WQAANqbgDgD1UPSCblJyPwDldug8v7sAB9DrD45dg5N3Z/d22iicl9eZXdwB2mBhVqCls8J9OFxLImmFCAAA2JSCOwDUQ8kAukvJfY+U2yEKFvYBHEYhguT9IgJa7FcRAByc3dsxy9JWr0QAAMCmFNwBoB6KXtBtSu57oNwO0fCFFMBhmKHSdl/tkg1t9bMIAA47K4TXjRhoqzDL3oXDnSTczwIAwLoU3AFgR8vxsJACREHJvdlrpXI7xMPCPoDDsMAobdcioM3ms+m98xTgoG6qazG0mV3c03Xc6w98NwAAwEYU3AFgd0peEA8l9wYot0N0/C4DHEYhgqQpA9EFv4oAwKwAK3jKQNp8pggAwEYU3AFgdz6QgbgouddIuR2i/d32Ow2wR73+oJBC0ibz2XQhBtounKeTcHCuAuzfXbgG34mBDswKnviSNk8lAwBgIwruALC7b0QA0VFyr4FyO0QtFwHAXpmn0mZXbJyvALj2EosPInBfCwAA61BwB4Dd5SKAKCm570C5HaLndxtgv74VQbLu57PptRjoEOcrgGsvPCvMtjfljCuJJPk8EQCAjSi4A8DuChFAtJTct6DcDklQtARw38l+3IiALpnPpotwuJMEwP5mhXDtVRbGjEsn9PoD97YAAKxNwR0AdrAcD5U3IX5K7ptdF5XbIQ1+xwH2pNcflPNVLolkfRABHfSrCADMCuC85QmFCAAAWJeCOwDsJhcBJEHJfQ3K7ZDWDFT9zgPQPLNVuu7ns6ndLeki5y2Aay48q5pxPXkgTZ4KCQDA2hTcAWA3igaQDiX3FZTbwRwEQGMKESTrWgR00Xw2XYTDnSQAGncTrrlKwnT2/BVBknIRAACwLgV3ANjNKxFAUpTcn6DcDskqRACwF3a4S9dHEdBhv4oAoHEfRIDzl47xHQIAAGtTcAeA3fggBtKj5P6IcjskTeESYD9yESTpfj6b2tWSLnP+AjRvIgKcv3RNrz8opAAAwDoU3AFgS8vxMA+HY0lAkpTcM+V2wA7uAHti1kqTcjCdNp9NF+FwJwmAxtxV11ro6qxwnym5u8cFAIAVFNwBYHuFCCBpSZfclduB4DhcC1wDABpkZ7ukfRABEZiIAMCsAM5jvvKNCAAAWIeCOwBs71sRQPKSLLkrtwOPuA4ANCsXQbImIiACSmsAZgVwHvM1nycCALAWBXcA2F4hAiBLrOSu3A585ZUIABqViyBJk/lsei8Gui6cxxMpADTi3jWWSGaFu/J8lkRyfLcAAMBaFNwBYAtVwdMHMMCDJEruyu3AEwoRADTKQqI0fRQBEbkRAUDtJiLA+UyHHff6g2MxAADwEgV3ANhOIQLgK1GX3JXbgWfk4fqQiwGgueusCJKkEExMLNgAcG0F5zNf8z0DAAAvUnAHgO3YRQ94SpQld+V24AWFCAAak4sgOffz2fRODERkIgIA11ZwPvMV3zUAAPAiBXcA2E4hAuAZUZXclduBNfwgAoD69foD951pmoiAmFiwAVA7i+EwKxCDYxEAAPASBXcA2FBV9lT0BFaJouSu3A6sqRABQCNyESTpkwiI0EQEALVRBsasQAw8KRsAgBcpuAPA5k5FAKyh0yV35XZgA8fhmlGIAaB2uQiSNBEBEfooAgDXVHBe434XAIBNKLgDwObsKgCsq5Mld+V2YAs/iACgdt+KID3z2XQiBSLkvAZwTYVVPJkgPbkIAAB4iYI7AGzODu7AJjpVclduB7ZUiACgdsciSM5EBERKaQ3ANRWc13yh1x/4DgIAgJUU3AFgA8vxsPywRckA2FQnSu7K7cAOTsI1JBcDQK0KESRHsYcozWfT+3BYSAJg91mhuqZCbLNCOSc4t9Pj+1YAAFZScAeAzfwkAmBLrS65K7cDNfCUGwDYzScREDELOABcS8H5zWO+iwAAYCUFdwDYTCECYAetLLkrtwM1sRAQoCa9/sC9Z5qUeoiZBRwAu/tDBETsowiSYwd3AABWUnAHgDUtx8M8U/4EdteqkrtyO1Cjk2peAgC2MJ9NFdyJ2UQEAK6lsMJCBMn5VgQAAKyi4A4A6zsVAVCTVpTcldsB8xJAaxUiSM5EBETOAg4A11JwfvOYHdwBAFhJwR0A1veTCIAaHbTkrtwOmJcAoFUUeojafDa9D4d7SQBs7b66lkKss4J5OD25CAAAWEXBHQDWsBwP80wJFKjfQUruyu1Ag06quQmA3bwSQXL+EAEJUFwDcA2FVRYiSEouAgAAVlFwB4D1nIoAaMheS+7K7YC5CQBaSWkN5zkArqGkbiGCtPT6g2MpAADwHAV3AFjPGxEADdpLyV25HTA3AXSGeS09Smuk4E8RAGzN015IwUcRuPcFAIAHCu4A8ILleFh+uJJLAmhYoyV35XZgj/JqfgJge3axS8x8Nr2XAgmYiABgaxbDkQIzMQAA8DcFdwB42U8iAPakkZJ7+HfmmXI7sF92cQeA9U1EQCKU1gC2txABCbCQIz2+swAA4FkK7gDwspEIgD0qS+4Xdf3Lwr/rNBz+L/NBMbBfp9WTIwDYUK8/KKSQnIUISMF8NlVaA9j+GmpeIAUWw6XH54cAADxLwR0AVqh2UvbhCrBvZ+H683/hVexw/SrCq9y1/TfXMeAAyuvOqRgAYC1/iICELEQA4NoJT7EYDgAAeOzfIgCAlX4SAXAg5Y7rvy/Hw/JD/V/Ca3J0ebtY9Q+EvzfPPhdKf8rs2A4c3pvwuhYDwMYsTkzPQgQkdr7nYgAwK8Az7t0TJeWVCAAAeI6COwA8oyqKFpIADqwsql9V16VF9vkLrY9f/T3lh8B5piQAtOz6Fa5bJ0eXt3bfAth8/iMtCxHgfAfAtRP+Un6OVIgBAABQcAeA570RAdAyefUqRAF0aJ56LQYAWGkhAhLyhwgAXDsBAADgJf8SAQA8ayQCAIDd5qnleOix0gCwwnw2XUiBhNyLAGBjZgVS8lEESfEEMwAAnqXgDgBPWI6Ho3BQxgIA2N2ZCAA28koESVH2JTV3IgDY2EIEQKR8FwsAwLMU3AHgaW9EAABgrgKAhin7AgDA/1gACgAA/EXBHQC+shwPi8wj8QAA6nJcPR0HAAAs6gDY0Hw2nUgBswIAAJAaBXcA+Ce7jAIA1OtcBADwJAUekjKfTe3KCgDA33r9gU3HAAB4koI7ADyyHA/zcDiVBABArXK7uAOsrRBBUv4UAQCwgoVBOOeJ3bEIAAB4ioI7AHzJ7qIAAM3wlBwAAEoTEQCszdNeSMp8NnXOAwAAf1FwB4BKtXv7SBIAAI04CfNWIQYA+MJEBAAAAAAA8CUFdwD4H7u3AwCYtwAAAAAAAAA4IAV3AMjs3g4AsCeFXdwBAJJ3JwIA10xYYSECAABAwR0APrObKADAflyJAOBpvf4gl0Jy7kVAgv4UAYBrJqywEEFSChEAAPAUBXcAkmf3dgCAvcrD/GX2AnjmGimCtMxnU7uyAgAAAADAVxTcAcDu7QAA5i8AAAAAAAAAWkHBHYCk2b0dAOAgyl3cz8QAAJCkhQgAXDMBAABgFQV3AFJ3IQIAgIM4X46Hx2IAAEjOQgQArpmwwr0IAAAABXcAkrUcD4twOJUEAMBBlOV2u7gDkDLFHQAA+KdPIgAAABTcAUjZuQgAAA47jy3Hw1wMACTqTgQAAAAAAPBPCu4AJGk5Ho7CoZAEAMDBXYkAAAAAAAAAgAcK7gAkZzkeHmd2bwcAaIsizGeFGAAAAAAAAAAoKbgDkKKz8MrFAADQGlfVIkQAAAAAAAAAEqfgDkBSluNhntm9HQCgbcoZ7UwMAABJuBcBAAAAALCKgjsAqbkSAQBAK51XixEBAIjYfDa9kwLA2hYiAAAAIEUK7gAkYzkenoZDIQkAgNayGBEAAAAq89l0IQUAAABSpOAOQBKW4+FxpjAFANB2RZjbRmIAAAAAAAAASJeCOwCpOA+vYzEAALTeRbU4EQAAAAAAAIAEKbgDEL3leHgSDmeSAADohLLcfi4GAAAAAAAAgDQpuAOQgisRAAB0ytlyPCzEAAAAAAAAAJAeBXcAorYcD8ud208kAQDQORciAAAAAAAAAEiPgjsA0VqOh8fhcC4JAIBOOqkWKwIAAAAAAACQEAV3AGJW7vp5LAYAgM46rxYtAgAAQHJ6/UEuBQAAAFKk4A5AlJbjYREOI0kAAHRaWW6/EAMAAACJykUAAABAihTcAYjVlQgAAKIwqhYvAgAQgV5/4Ak9AAAAAMBKCu4ARGc5Hr7L7GoCABATu7gDAMTjRAQAAAAAwCoK7gBEZTke5uHwRhIAAFE5qRYxAgAAABC3b0QAAAAouAMQm3J3T485BgCIz5tqMSMAxKIQAQAA/EMuAgAAQMEdgGgsx8MiHE4lAQAQpXIR44UYAAAAAAAAAOKm4A5ATK5EAAAQtdNqUSMAAAAAAAAAkVJwByAKy/HwXeaRhQAAKbCoEQAAgFQciwCI3L0IAAB4ioI7AJ23HA/zcHgjCQCAJOTV4kYAALpJWRNgfSciACJ3JwIAAJ6i4A5ADC4yX4wBAKTkTbXIESAq89l0IoW09PoDpTVS5LwHAFYpRAAAACi4A9Bpy/GwCIdTSQAAJKVc3HghBgAieU8DAAAAAAAeUXAHoOuuRAAAkKTTarEjAAAAAAAAABFRcAegs5bj4btwyCUBAJAsu7gD0HV2cCdF/xEBwNq+FQEAAAApUnAHoJOW42EeDm8kAQCQtJMwF56JAYAuv5eJAOc9ACtYDEdSev1BIYXkLEQAAMBTFNwB6Kpyt04f7AIAcL4cD82FQEwWIgAAACAF89nUPTAAAE9ScAegc5bjYREOp5IAACD7vOjxQgxARBYiSMp/RAAAvHDPCwAAAMlRcAegi65EAADAI6NqESQAdM2JCEiQuQ3ArADmBAAAYCUFdwA6ZTkenoVDLgkAAL5iF3cAAAAA6I57EQAA8BwFdwA6Yzkelo/iPJcEAABPOKkWQwJ03UIEab1/iYCU9PqDYykAbHztzKVAQv4jgqTciQAAgOcouAPQJeWunL4EAwDgOefVokiALvtDBEnxvkVqLOoA2FwuAswKAABAahTcAeiE5XhYhMNIEgAArFCWBC/EAECX2JUVAAAAAAC+pOAOQFcoKgEAsI5RtTgSoKvuRZCcXAQkxK6sAJtzj4vznVh9FAEAAM9RcAeg9Zbj4Vnmyy8AANZ3LgKgw+5EkJxjEeB8BwAAAAD4HwV3AFptOR6WX3opKAEAsIkizJEjMQDQERb1k5JvRACwsW9FQAp6/YG5OD2eYAYAwLMU3AFou4vMzk4AAGwxR1aLJQG6xhf86VH4JSW5CAA25t4W5zqx8gQzAACepeAOQGstx8Nyp4aRJAAA2IInAQGdNJ9NfcGfnlwEJMTOrACuneBcBwAAXqTgDkCbXYgAAIAdnFWLJgGgzbxXkRI7swK4doJznQcWeAMA8CwFdwBaaTkejsKhkAQAADuyaBLoIl/yp0WRhyT0+gOLOQBcQ2GVVyJIy3w2vZcCAADPUXAHoHWW42H5xa4iEgAAdSjCfHkqBqBjfMmfmF5/UEiBBFjMAeAaCs5z3PcCALAWBXcA2ug88yEWAAD1uagWUQJ0xUIEyclFQAIKEQC4hsIKnlSQFk8uAwBgJQV3AFplOR7m4XAmCQAAamTGBLrmDxEk+V4FsftGBACuofCUXn9gHk6PHdwBAFhJwR2AtrkSAQAADTivFlMCdMFCBMl5JQISYBYDcA0F5zgPPokAAIBVFNwBaI3leHiaecwmAADNsZgS6IqFCJJzIgISUIgAwDUUnONU7OAOAMBKCu4AtMJyPDwOhwtJAADQoCLMnYUYgA5YiCA5x73+4FgMxCqc37kUAFxLYYVvRZCcOxEAALCKgjsAbXGWefwgAADNs4s70Hrz2XQhhSTZxR3nNwCr5CLA+U1E7OAOAMBKCu4AHNxyPMzD4VwSAADsQR7mz3diADpgIYLkFCIgYgruAGYFMCvwt/lsagd3AABWUnAHoA0uRAAAwB69qRZZArTZQgTJ+VYEOL8BcC0lNb3+oJCC+10AAPiagjsAB7UcD4twOJUEAAB7dJx5ghDQfnazS49dK3F+A+BainObFCxEAADASxTcATi0KxEAAHAAo2qxJUBb/SmC5OS9/iAXA7EJ53W5uNC5DVDPrHAsBiLk6QTpsaAbAIAXKbgDcDDL8fBd5sstAAAO50IEQItNRJAku1cSo0IEAGYFcF7ziAXdAAC8SMEdgINYjoflLiNvJAEAwAGdhLn0TAxASy1EkKRXIiDGmUsEALUpREBMqqcSmBXSMxEBAAAvUXAH4FDK3TI9ShMAgEM7rxZfArTKfDZdSCFJhQiIkIUbAK6p8Bzl9jS53wUA4EUK7gDs3XI8LMJhJAkAAFqgLLefiwFoqTsRJOek2sUSYlKIAKC+WUEEmBPoOgu6AQBYh4I7AIdwIQIAAFrkbDkeKgkAbbQQQZIKERCLXn/gfAao13G4trp/JSaeSpCeiQgAAFiHgjsAe7UcD0eZHUYAAGgfizCBNvokgiQp+RCTQgQArq3gfOaRhQgAAFiHgjsAe7McD8tHbCsOAQDQRkWYV0/FALTMRARJ8n5ETCzYAHBthSd50kuy/hABAADrUHAHYJ/Ow+tYDAAAtNRFtSgToC0WIkhS3usPcjEQiUIEAK6t8IwfRJCkiQgAAFiHgjsAe7EcD/NwOJMEAAAtZmYFWmU+my6kkCy7uNN5dmUFaMxxuMaeiIEImBXSdCcCAADWoeAOwL5ciQAAgA44rxZnArTFRARJeiUCImBXVoDmWAxHp/X6g/IJehZqpGcxn03vxQAAwDoU3AFo3HI8LD9oLSQBAEBHXIgAaBG726VJaY0YFCIAaIxFRJh36aKFCAAAWJeCOwCNWo6H5Q4MCkIAAHTJaZhjCzEALfFJBGnq9QdKP3T5/M0zu7ICNOmk2gEbusoTi9L0UQR0mPddANgzBXcAmnYWXrkYAADomCsRAC1hB/d02ZmVLrNAA8C1Fpy/uL8lJhbwAsCeKbgD0JjleJiHwxtJAADQQXmYZ8/EABzafDZVAEiX0g9dZldWgOZZDEcnVU8qshNymtzfAgCwNgV3AJp0kfmACgCA7jpfjofmWaANJiJI0nFV/oFOCedtOT85dwGa51pLV1mckab7+Wy6EAMAAOtScAegEcvxsMh8uAoAQLeV5awLMQAtYJe7dCn/0EU+EwTYE4vhMCvQIRP36nScp1QBwJ4puAPQFEUgAABiMFqOhydiAA7sowiSdVrthg1dYmEGgGsuPKlalGG+TdOnCP9Mf/qxAgA0R8EdgNotx8OzcFACAgAgFhZvAodmV7h0leUfO1zSGdWCDOcswP6MLIajYyzKSNdEBHRcLgIA2C8FdwBqtRwPyw9SzyUBAEBEijDnjsQAHMp8Nl2Ew0ISyfpJBHSIcjuAay84X3nqvnYiBTouFwEA7JeCOwB1K8vtdgsBACC6ObdazAlwKHZxT1fR6w9yMdARFmQAuPbCk8JMO8p8h+h+Frp9HXNvDgB7pOAOQG2W4+FJOJxJAgCACOVmXeDAPoogaSMR0HZV2aOQBMDeWQxHV/wggmRNREAkvN8CwB4puANQpwsRAAAQsXIX91wMwIFMRJA0O7PSBSMRALgGw1OqRRinkkiWBdvE4kQEALA/Cu4A1GI5HpYfShWSAAAgchZ1Agcxn0090j1tea8/GImBlrMQA8A1GJ5jlk1brPezEz/a5HwjAgDYHwV3AHa2HA+PM0UfAADScBrm30IMwIFMRJA0xTVaq9cflJtf5JIAOJi8uhaDWZa2Wcxn04UYiIQd3AFgjxTcAajDWeYLLAAA0nElAuBAPNY9bUWvP/BlOm2ltAZweG9EQBtVTyLKJZGsiQiIiHtyANgjBXcAdrIcD/PMh6YAAKQlD3PwmRiAA5iIIHk+g6F1ev1BHg52DQY4vKK6JkPbWAiXNgu1icmx91oA2B8FdwB2dVHeyIkBAIDEnC/HQ3MwsFfz2XQiheSNfJlOG+ciEQC4JsNTwuxahEMhiaTFfB9758ebJNc0ANgTBXcAtrYcD8ubN7szAQCQorLcfiEG4ABuRJA8u7jTGr3+oJyJfD4I0B4Ww9E2dm9P2918Nl3E+ocLf7Z7P+IkfSsCANgPBXcAdqHQAwBAykbL8fBEDMCeebw7o6pUDG1wlnm6I0DrZgUR0AbVYgvnY9omIiBChQgAYD8U3AHYynI8LL+8UuYBACB1Fn0C+zYRQfLKMvGZGGgJTxQAaOG12WI4WuJcBMlLYYG2XdzTc+J9FgD2Q8EdgI0tx8Pyhs2HUgAAkGVFmI9HYgD2ZT6b3mW+QEdxjRYI52A5AzkPAdrHYjjaMCfkmd3bSWOB9p0fc5JORQAAzVNwB2AbZbndl1cAAFDNx9UiUIB9uRFB8hTXaMUMJAKA1rIYDnMChzaZz6YWZxOrVyIAgOYpuAOwkeV4eJL5AhUAAB7LzcjAnn0UAcF5tTMm7F21e7vzD6C9PImXQ84J5YwwkkTyPiTy51TiT5Md3AFgDxTcAdjUhQgAAOAfyl3cczEAe2IHd/5+/xEB+1btCOwzQoD2O7MYjgMxJ1CaJPLn/ORHnaTj8B6r5A4ADVNwB2Bty/GwvEkrJAEAAE/yBS6wF9Vj3u8kQTDq9QcnYmDPyifXHIsBoBMshmOvwmxaZHY2JssW4b7VPSux+0EEANAsBXcANqGwAwAAzztdjoeFGIA9+SACKj6vYW+q3dvfSAKgM0ZV4Rj2xaIKSpOE/qyK/OmymAcAGqbgDsBaluPhu3DIJQEAACspGQL7ciMCKkWvPxiJgT0pS2t2bwdwnwr/UM2khSTI0lqQfe/Hnaxj9+IA0CwFdwBetBwP88zOTAAAsI6TMD+fiQFoWvW494UkqFxUO2tDY8I5dhIO5hyADt6nhmu46zdNzwnlLGoxBaX7cL+a0oJs9+Vp+0kEANAcBXcA1mFnJgAA2GB+Xo6H5mdgH+zizoPyfedcDDRMaQ2gw/epvf4gFwNNnmOZ7xL5bJLSH3Y+my78yJNWeH8FgOYouAOw0nI8LMJhJAkAAFibkiGwLx9FwCNnvf6gEANNCOfWKBycXwDdvk+1UImm5oRyRvCUAB58SPDPfO/HnjSfAwNAQxTcAXiJDzwBAGBzZ8vx8EQMQJOqx777Ip3HfI5D7Xr9gVIkQBxOwzX9VAyYQWlYik8au/NjT/791RMsAKABCu4APGs5Ho7CQSkHAAC24wteYB9uRMAjJ73+4J0YqNlV9nnnXwAiuKYr4VGnavb0XSJ/35/OZ9MUF2FbeJ628n3VUywAoAEK7gA8aTke2pkJAAB2U4S52u54QNM+iICvnPf6g0IM1KE6l8wzAPEov/v5TQzUNCeUxfZzSeD+NPvkR5+8NxaQAUD9FNwBeE65ythNGAAA7MaiUaBR89m03MHdbnF8ze6s7Kw6h5QgAeJThGu8nWYxJ9CEVJ8wtvCjT57NAwGgAQruAPzDcjzMMzsuAABAHfIwX78TA9CwGxHw9ftPeF2JgR2V55CFEgBxuqh234atz6Fq5oS/70vns2mqi68XfvwEo/De6roIADVScAfgKb4ABQCA+rypFpECNOWDCHjCaa8/GImBbVTnzqkkAKL2uye+sMOcYM7Efen/3PnxU9GzAIAaKbgD8IXleFiEQyEJAACoTVkY8IQkoDHz2bTcwf1eEjzB7qxsrDpnLiQBkMS96m9iwJxATZJ9sljCO9fzT4WF5gBQHwV3AL5mVTEAANRvVC0mBWjKjQh4wl/FNbuzsq7qXLmqzh0A4lcW8ZSV2WRO+M2cwFP3o0re2cRpQOXCPTgA1EPBHYC/LcfDs3DIJQGtshABAETDLu5Akz6IgGfkmd1ZWV9ZcrTrP0Bazuw2y5p+y3yPiPvR5yxEQMUTUgCgJgruAPxlOR6WN1oKN9A+34XXezEAQBSKMHePxAA0YT6blju4eyw6z74H9foDT+1jpXCOvAsHswpAmq7C+4AFTqyaE8pZspAETyjvQz1RLMv+EAFf3YOfiQEAdqPgDsCDcncmj8qC9jk5urx9F47/zTzeEACimLurxaUATbgWASuMfMHOc6qde21+AZC235XcWTEnjCTBM27ms6nF1r7D458uwvWzEAMAbE/BHYBy9/byA8uRJKCV/irAHV3eLsLr+/CX5WshFgDo9Hu7ciHQlF9FwAsuqoIS/K0qM15IAsD9anj9Ft4XLMrm8ZxQzo6eBIT70JctRMATfrN4DAC2p+AOQMkXWNBeX3zocXR5Owmvcjf399nnxz4CAN1zvhwPczEAdZvPpneZL9V52ZWSOw+qssXvmSc7AvBZea/6u5I71Zxwmim3s9oi3IdOxPDX/bh7cZ5yXN2De18FgC0ouAMkbjkelh9OFZKA1vrmqf/y6PL2XTh8F143IgKATrLIFGjKLyJgDUruZFXJQrkdgK/9tfhJGS/5OaE8D5TbeYnd2780EQHeVwGgPgruAAlbjoflTZRiDbRb/tz/cHR5uwivH8Nffh9ed6ICgE45DfN4IQagARbBsi4l94QptwPwAmW8tOcET3hhXdci+ILv6vC+CsD/Z+/u0Ro51r8BV/ty/uIVHJE4cHIgc2aRKjGswChUNLACYAXgSOFoVmCcdOp2RmZOQkBinRVY/xXorRo1ZzBmGD700d1139dVp3U8/pj5IZWqu596miVS4A6Qt6PwRPEs0Ag7X/obinFZxZG6uR/HMRMZALSGTmjA0tWPRVfkzrO/ixS55+decfuONAB4gmK8PNcJ/aC4neep6vNPPvmPCPC9CgDLo8AdIFPz0aAXD+8kAY23VT9t4YuKcXkRD9tBxwwAaIte/J4/EgOwAr+KgBdQ5J4Rxe0AvJBivLzWCYdBcTvP90EE/6CDO8/5Xv2zflIGAPAFCtwB8nUSXKCCtnj2RY5iXM7iGMaXe8GFNABoxbr8uZvZAJ7r9uZqEjzdiZdJRe6nYui2uojij6C4HYCX+fj9oRiv8+uEw+BJczzfrD7v5O/n4u7L8RwfNx3baA4AX6bAHSBD89GgHw9OmKA9XnzjoBiXVRy78WUqdlfYAgDNlW5onIgBWIGJCHihk2+/+15RU0fVRYmpI2tPGgC8Qvr++E2Re2fXCedBcTvON5elEgHPkK4Jp43m7z0lBQA+T4E7QJ7ORQCt8u/X/oPFuJzEw3YcF2IEgMY6mo8GPTEAS/azCHiFw2+/+/4PN9i7pe4MmIrb/VwBeIv0PfKHjrOdWiNs1Rscj6SB882l0cWdF52DBxvIAOCzFLgDZGY+GqSTJCdI0C69t/zDxbicxXEcX6aO7pU4AaCRdEoDlur25mpq/c8rpetGf7jB3g3x53hUrzMUtwOwtPPXuuM37V4j9MJiA9yhNHihqj7f5HG/i4BXnoOfigIA/k6BO0BG5qNBupHloiO0T38Z/5JiXF7HsRdfDuOYihUAmvV9H9fr+2IAluyDCHilXtChtdXqjqy/BNcCAViNI099afU6IV1/+CNoiMXr6N7+NB3cea2T+ru1LwoAWFDgDpCX1LHJxUZooflosLQLzcW4nIRFN/czyQJAoyhAA5bq9uYqrf1nkuANUofWXxSvtUvdfT91ZLV5DoBVSt83f9bF0rRnnZCuPaRNcNZ3vMY0nmdeiuHJ8/Bp0GSKt323/hbn6vf1kzYAIGsK3AEyMR8N0gnQiSSgtZbaSaUYl7M4TuPL7Tgq8QJAI/Tiuv1UDMCS6a7HW33s8KmLXDvEn1NqcJGK23VkBWAdUpF02gx3bkNc49cIvdQZOCyaYcFreUrY81Qi4I0O6/PwU9+vAORMgTtAPnSDhHb79yr+pcW4nMaxF18eBB0lAKAJ3s1HAzctgGWaiIAl6IVFFznFaw2Vfi6p235YXAP0MwJg3Y7qtYINVs1cJ6SfTypu9/PhLdLTwS7E8Cy/i4AlSOd1qYHhnwrdAciVAneADMxHg37wSGJou/4q/+XFuLyMI3VzPwuLi5QAwGakGxU2pwJLUz8e3SPkWZaPxVG6uTdL/HkcxsOfwfU/ADZrp14n2BDXnDVC6tqenuxiAxzLcBnPL90/ep5KBCzRw0L3nkge/c7bkg1A9yhwB8jDexFA662ls0oxLk/jYTcogAGATTqcjwa6qgHL9LMIWKJeWHRofa94bbPuFa2la39+FgA0xd2GOBuvNrdGSEV+p2GxAa4vEZbkTATPU280n0qCJbtf6P4+943n9fnwYZ1FekrJX3EcepsAdEshAoBum48G6UKiDpDQDXvFuKzWOH/0w+ImeU/0ALB2Vfze3xMDsCz1zT6bZ1i21MHx59ubq1NRrPXznAob0jW/E2nQcHtxfqjEsJJ5YC4F2nJuG8ewLvZkPfND2liQ7gv2pMEyP8vxc+w61cs+i+n+2qEkWLH0/Zqaln2In9Hrjp8Dp2ta/Tj+XR8f2+R95voEQLcocAfosPlokBb1fwYdnKArzuoO6+ueS9J/8525BADWbhi/+ydiAJYhdbUKnvDG6kzD4kay7631fJbPnaPTEgrcVzcXKHCnbdIa4TjOCTNRrGxe6IfF5re+NPCd3ojPZNps8oskWPN5eSp2/7XNn9fUmT0sNmml77NUzL4Tnr9pS4E7QMcocAfosPlokG52HUkCOmNjnVzrDTNpTjn0YwCAtZnGsRu//xUAAEvx7Xffp03wPUmwyvPWsLihXIli6Z/fdD5+4jNMyyiGW92coMCdNvr45Jc4LhS6L3U+SGuDtJG1Lw1WtcbXvf1Vn810X+0vSbDB79y0Dv89jusmrsnrjVl3ndn/FT4Vtb+FAneAjvlaBADdNB8N0gmA4nbolp1N/YfrwrphnFs+hEWh+44fBwCs3N2a/lQUwJKk9fyJGFihfhrffvd9FY8/395cXYrkbRS2A9AhW/V32rv4/ZYK3SdxrTAVy6vXCGnd9VPQlIb1nEfyQmkjT/ycXgf309jcd+5+PdJ3Rjpc1+O/9XG2qsL3+jvq7vdx9xn4973/74lkADyLDu4AHTUfDX4LujVAF6UurtcNmGNSsV26GeECBACs1qz+/p+KAniruoPcn9bxrFH6/kod1CaiePFn9TCOd0FhO+2mg/vq5gkd3OmKtEZIm+KuRfHsz/9+vUboS4N1rOfj53NbDK/+vJ4Gm8xph48F7w/+2u/18f+FL2/U6DXk3FUHd4CO0cEdoIPmo0G6uNWXBHRS+mxv/GJ/MS4v4lwzCYsLc54WAQCrc9fhbigK4K3qDnI/BzfYWZ9eHO/j+y49CUyn1i+IOaWigVSwth9sRAEgD4dp1E9/+WBT3GfXCDa/sSlnIniTS+fftMRjBex9sQCwaTq4A3TQfDRI3dh6koBOuizG5UHD5px00SMVK/T9eABgZfbiGqASA/BWurjThPPaOH5VwPa3z+RhHD+FL3fFg9atYXVwX9ncoYM7XTWr1wq6uof/dWtPa4R9bw02QPf25XyO3beH9dHBHaBjdHAH6Jj5aHDqJBk6rXEXsotxmW407MX55zAsCt0VygDA8qVuT5UYgLfSxZ2GnNfu113d74rdL3MKoC5qTzn8GBSsAcB9dxu/Ulf3ab1W+JBTsXtd1H63RnCtnU3SvX05qnpeAwDghXRwB+iQ+WigCxvkobEdXOt56CgolgGAVRjGNcBEDMBb6eJOA911a/01jiptxOjg5y51Z+8HndrJiw7uq5tTdHAn17XC7+nYpbVC/Dz36jXCj/XRGp0m0L19eZ/xtFnlF0nAWujgDtAxCtwBOmQ+GrwPdoBDDi6KcXnc8PmoFw9pTur7cQHA0qQb+NtxHTATBfBW3373/WmwMZXmqsKigK1qa3HsvYL2H4JiNfKlwH11c4wCd3J3Xa8X/lOvF6YtWyPs3Fsj9Pw4aaBh/FxNxLC0z/1fzgdgLRS4A3TM1yIA6Ib5aJAuhh1KArLQb/pvsBiX03jYi3NT6kyRHjvf82MDgDe7e1LKqSiAJbiI411wk53mnvemcfLtd9+n/1+FRSFbKmK7vr25um7Sbzb+Hvv1ee+/w6Jgre9HCAArdVckfvddPKvXCmn8tz5ON1n4Xndm79W/z39ZI9AileL2pUtPoDgUAwDAy+jgDtAR89Hgt+DCGORkuy4ib8P8dFeMpzskAGS2DgCaTRd3Wu5j4VpYFL1P6zFbRfF7XcCe9Orxr3uve34U8Fk6uK/uO1wHd3i+u3XC3frh/5749VSEvvXE2uPuiWr9R379hwfrBfD9zd33dmoG9YskYOV0cAfoGB3cATqg7pDclwRkJX3mJ234jRbjMl30P41zVfr9pm7u+358APAm6fv0QAzAEqQu7j8FBTi0013n1r+dY9Yd35O7Tq6v/Xd7ugEAdEPv3nq3Lw54UqW4fflippf1kyacYwAAvIACd4BuOBcBZOfH0JIC9zt1p9mD+WjQj8f3QRENALzWfvo+jd+tlSiAt7i9uZp9+933Z/X6HLomFY/0xQAAAM92LIKVuYzjUAwAAM/3lQgA2m0+GpwGRaKQo1TY1spOD6kYL47t+DIV0sz8KAHgVWxyBZbi9uZqEg9TSQAAAGRtEs8Pr8WwMh9EAADwMgrcAVpsPhr04uGdJCBb/Tb/5otxeRoPu6FlnegBoCF24vnAoRiAJRmKAAAAIFupGdGZGFbn9uaqCjaXAwC8iAJ3gHY7CYvHLQN5+rHtf4BiXE7jSMU0e3HoDAIAL3Pe1ie6AM1S32ivJAEAAJCln+N54VQMK6eLOwDACyhwB2ip+WjQj4dDSUDW9rvyBynGZRVH6uZ+HBadQgCAL0vF7UdiAJZEF3cAAID8TOO4EMNaTEQAAPB8CtwB2utEBJC9rflosN+lP1AxLtNF1O3gIh8APPu8IK4HemIA3qru1qeoAQAAIC/H8XxQ46H1nXdXkgAAeB4F7gAtNB8NDuOhLwkg+rFrf6BiXM7iSN0jU0f3yo8YAL7oXATAkpwFT1QCAADIRXV7c3UphrX6IAIAgOdR4A7QMvPRYCvo3g58st/VP1gxLq/j2IsvU7G7IhsAeGI9EM8T+mIA3qru2ncsCQAAgCwMRbD28+5JcM8LAOBZFLgDtM9RHD0xALWt+qkOnVWMy0k8bMdx4ccNAJ/1XgTAMtQ32ytJAAAAdNpZPP+bimEjJiIAAPgyBe4ALTIfDXrx8E4SwAM/dv0PWIzLWRypk+RuUGwDAI/pxfOFIzEAS6KLHwAAQHdNb2+uTsWwMT+LAADgyxS4A7TLSRxbYgAe2J+PBlnMDcW4vI5jL748iGPqRw8Afz9fyGVNAKxW3cXvTBIAAACdZFPz5s+5LyUBAPA0Be4ALTEfDfrxcCgJ4DOymh+KcZku/KVu7opuAOCTVNx+IgZgGepuflNJAAAAdMpFPN+rxLBxurgDAHyBAneA9lCoAjzlp9z+wMW4nMVxGl9ux1F5CwDAR0fz0aAnBmBJdPUDAADojlnQOKgR6k0G15IAAPg8Be4ALTAfDQ7joS8J4Ak7ca7YyfEPXozLaRx78WUaU28FAAjvRQAsQ33D/UISAAAAnTCM53kzMTSGLu4AAE9Q4A7QcPPRYCvo3g48z7uc//DFuKziSN3cU/cRF2gByFk/nkf0xQAsSVpfT8UAAADQape3N1eXYmiO+POYON8GAPg8Be4AzXcUR08MwDPs15tislaMy9N42I3DhVoAcqaLO7AUdXe/oSQAAABaa+q8rrHORAAA8DgF7gANNh8NeiHzjszAi6Ti9n0xfCxyn8ZxEF/uBd0vAMhTL55PHIkBWIbbm6sqHi4kAQAA0ErDevMyzTvfngT3sQAAHqXAHaDZTsKiYBXguWyKuacYl1Uc2/HlcRwu3gKQ3fmEp7sAS5S6yk3FAAAA0CoX9aZlmn2+DQDAAwrcARpqPhr04+FQEsAL7dTzB/cU4zJ1m0yF7hNpAJCRVNx+IgZgGepufweSAAAAaI3roHi6Defbk2BDOQDAPyhwB2guhSjAa/0kgn8qxuUsjmF8uRcWF3UBIAdH89GgJwZgGW5vrhRHAAAAtEPapDysNyvTfM61AQAeUOAO0EDz0eAwHvqSAF7pUCHb5xXjsopjN75Mxe4u7AKQg/ciAJbl9ubqNB4qSQAAADTaWb1JmXaca0+CLu4AAH+jwB2gYeajwVbQvR14u0MRPK0Yl5N42I7jQhoAdFw/nmf0xQAs0UGwWRQAAKCpLm9vrtz7aB9d3AEA7lHgDtA8R3H0xAC80bt6wwxPKMblLI7j+DJ1dK8kAkCH6eIOLE39iPuhJAAAABpn6nyttefak3jQdR8AoKbAHaBB5qNBLx7eSQJYglTcvi+G5ynG5XUce2Fx0XcqEQA6qBfPN47EACzL7c3VZfA0JAAAgKY5qDcl007HIgAAWFDgDtAsJ2FRlAqwrDmFFyjG5SQsurl7DCQAnVwbeMILsEy3N1fpxrvucgAAq2NDIfASw3ie5hyt3efZVfDEYQCAjxS4AzTEfDTox8OhJIAlSp1azSsvVIzLWRyn8eV2cBERgG5Jxe02wAHLlp6EpDsg8BJTEQA825m1FvBMk9ubq4kYOmEoAgAABe4ATaLQBDC3NEgxLqdxpGKdg+DmOwDdcTQfDXpiAJbl9uZqVq+ZAZ7rWAQAL1predok8CXX1lidmvun5n4AAAXuAI1Qd1juSwJYAV3c36gYl5fxsBt0SwKgO96LAFim+hHqiimA56jinHEpBoAXrbUuwqJ4FeAxHzcd1xti6I6L4J4UAJA5Be4AGzYfDbaCDsvAav0kgrcpxuUsjtOwKHR3Ix6AtuvH85C+GIBlqguvJpIAnpAKdIZiAHgVmwmBz9mrO37TrXNsa2cAIHsK3AE27yiOnhiAFVLEtiTFuJzGcRBf7sUxlQgALaaLO7B0tzdX6ea77qLA55wpvgJ49TqrCotuvgD3DeP84Bysu3N/arhUSQIAyJUCd4ANmo8GvXh4JwlgDRSxLVExLqs4tuPLs+ARkQC0Uy+ejxyKAViBPWtk4BHX9ZMeAHi9dC1yKgagdhHXVxMxdN7QOTYAkCsF7gCbdRLHlhiANVDEtgLFuDyNh1ToPpEGAC10HtcHzkeApaofo67IHXhoKAKApayzzKdAchnnhGMxZDH3T8NigxMAQHYUuANsyHw06MfDoSSANToRwfIV43IWR7qxlIp4PAoUgDZJxe1HYgCW7fbmKq2LFV8Bd47reQGAt6+zqnjwRAzIm/Ot/Ob+NO9XkgAAcqPAHWBzFJoC66aL+woV47KKYze+TF1TdKsEoDXnJXF90BMDsGy3N1eXQdEFEEJVF+QAsDypk+9UDJCl9Nnfq5/oQF7S+bWfOwCQFQXuABtQF5j2JQFsQCpi2xLD6hTjMt243w46KQHQHuciAFbh9uZqYl0MWUsFODa6ACx/jWV+hXzXVgeK27Od+6dhscEJACAbCtwB1qwuLNW9HdiUXhxHYlitYlzO4kid3FNH90oiADTcfjxP6YsBWIXbm6u0Lp5IArI0rAtxAFj+GqsKCh0hJ6moPXVuvxZF1nN/2kBeSQIAyIUCd4D1S4WlPTEAG/ROF/f1KMbldRx7waMjAWg+XdyBlbm9uUrr4UoSkJVJ/OxfigFgpWus03hQ7Ap5OFDczt17IbjfBABkQoE7wBrNR4NePLyTBLBhqbhdEdsaFeNyEg/bcVxIA4CG2onnK4diAFYo3YRXkAF5SJ/1YzEArG2NpdARum1YP7UB0uamNOcPJQEA5ECBO8B6nYRFYSnAph3OR4MdMaxPMS5ncaQb/KnQvZIIAA107ikvwKrUN+HT040UuUO3fSy4qT/zAKx+jTUNCh2hy9K6aiIGHsz96UlJGioBAJ2nwB1gTepC0kNJAA2ii/sGFONyGkcq7EndlaYSAaBBUnH7kRiAVVHkDlk4jp91n3GA9a6xUqHjmSSgcxS389Tcf+zcGgDoOgXuAOujkBRomv58NDgUw2YU4zLdeNoNbj4B0CwncX3QEwOwKorcodMuFGEBbGyNdRoPl5KAzlDcznOkc2tPTgIAOkuBO8AazEeD/XjoSwJooPM4R22JYTOKcTmL4zS+3A5uQAHQHCciAFapLnIfBjfioUuquoskAJuT1lc2EUIHPsuK23nBufWBJACArlLgDrAeurcDTZWK2xWxbVgxLqdxpIuQqdvGVCIAbNjhfDToiwFYpdubq+ug2xx0Rfo8K6wB2Pz6yiZCaD/F7bx07q/iwUZTAKCTFLgDrNh8NDiNh54kgAY7inPVjhg2rxiXVRypm/tZcCMKgM2yAQ5YOUXu0AkfiynrokoAmrG+sukI2klxO6+d+y/iwXsHAOgcBe4AKzQfDVJn5HeSAFrgvQiaoxiXp/GwG1yQBGBz+vF85lAMwKrVRVhp7XstDWilvfpzDEBz1ldVWHRyB9pDcTtvnfuHzqsBgK5R4A6wWudxbIkBaIGd+okTNEQxLqdxpAuSqaOli5IAbMJJvWkXYKVub66m1r3QSkPF7QCNXV9N4uFYEtCaNdVEDCyB82oAoFMUuAOsyHw06MXDoSSAFnlXz100SDEuqzhSR8t0Q8oj3wFYp7QuOBIDsA63N1dpretmPLSHQiyA5q+vLoInRII1FbmdV6fGSe4lAQCdoMAdYHXeiwBomS1zV3MV4zLdkNoObkoBsF7vdHEH1kWRO7TGRCEWQGvWV6nQ0ZwNzZPOfXatqVjBvH9dn1crcgcAWk+BO8AKzEeDfjz0JQG0UD/OYTq1NlQxLmdxpJtS6eJkJREA1iAVt5+LAViXe0Xul9KARprUxZIAtGd9pcgdmuXjOU9diAyrmPfTe+tAEgBA2ylwB1gNHZCBNjuZjwY7YmiuYlxWcaSiH4+aBGAdDq0NgHVKRe5xpJvxE2lAoyhuB2jv+irN3zYQwuZ97K6tuJ01zPtVWNxDAgBoLQXuAEtWdz7uSQJosdSp1UadFijG5SQetuO4kAYAK6aLO7B2dSHWmSSgERS3A7RfmscV1cLmKG5n3efUk6DIHQBoMQXuAEs0Hw1SUeiJJIAO2Ilz2qkYmq8Yl7M4juPL3TgqiQCwIv24NtgXA7ButzdX6bzEDXnYLMXtAN1YV6UnQaanQk6kARtZT+3Wn0NY59w/cU4NALSVAneA5Urd27fEAHTEyXw06IuhHYpxeR1HukF1EMdUIgCsgC7uwEbUN+TTWlcxCKyf4naAbq2rZvW8PpEGrM2Z9RQNOKf2HgQAWkeBO8CSzEeDXtC9Heie9/XTKWiJYlxehkU39zNpALBkvbguOBIDsAm3N1dVWBS5T6UBa6O4HaC7aytF7rB6aYPusH4qFWx63k9zvrU9ANAqCtwBlkc3Q6CLenG8F0O7FONyFsdpfLkdRyURAJboxOY3YFNub66uw2IzpzUurJ7idoDur60UucPqpOL2vbqoGJoy76f3ozU+ANAaCtwBlmA+GvTjYV8SQEft69baTsW4nMaRulweBJ0uAViOVNzuyVXAxtzeXM3iSGvciTRgZRS3A+Sztkrz/bEkYKnSxtzteoMuNG3eT+fS1voAQCsocAdYDgUeQNedz0eDHTG0UzEuL+NI3dzPwqJzDAC8xVFcF/TEAGxSXYzlpjws31BxO0B266oL6ypYmov4mdpNG3NFQYPn/UlYPB3N+xQAaDQF7gBvNB8NDuOhLwkgA7/EOW9LDO1VjMvTsLhoeSkNAN7oXATApt27KT+VBrxZKm4Z1p8rAPJdVyl2hLetpTwRgbbM++kJA3vmfQCgyRS4A7xBXeipezuQi14cv4ih3YpxOY3jICwuXE4lAsAr7cfzob4YgE2rb8qnYqxKGvBqqahlT3E7gHVVva66lga8yLW1FOZ9AIDlU+AO8DZHYVHwCZCL/nw00LG1A4pxWcWxHV+mjjI6dADwGjb7Ao1we3M1iyNt4DyTBrzYx6KWurgFAOuqaVg0xvAESHieSVgUt1tL0fZ5v5IGANA0CtwBXqnu3v5OEkCGjuIceCiGbijG5UU8pEL3iTQAeKG+NQHQJLc3V6fBI9bhJVLx4l5d1AIAd2uqtHkwPQHyWBrwWemc4yB+VobpMyMOOjDvp3PpC2kAAE2iwB3g9VIH4y0xALnOgfPRYEcM3VCMy1kcw7AoBtJpBoCXOKk3/wI0wu3NVRUWGzh1HYWnnaXiRQVZADyxrkqFjjYPwj/dPQHHOQddm/fTxqahJACAplDgDvAK89GgFw+HkgAylgrZflPQ1i3FuKzi2A2LC5huXAHwHOnc6EgMQJM86DpqXQt/lz4Te/UTDwDgS+uqKiw2D1bSgI/SJsFdT8Chw/P+JB7SfSLvcQBg4xS4A7zOexEAKHLvqmJcTsLixpXHUQLwHO+sB4Amutd11FOKYOGu22glCgBesKZKmwfTmupMGmRsWq+jTkVBBvP+x/OG4MloAMCGKXAHeKH5aNCPh74kAD7aCTb9dFIxLmdxpI6X6SJmJREAnpCK28/FADRRujGfOiwGBVmg2ygAb11XnYbFtUKbB8lN2ji7Wxf9Qi5z/v0nowEAbIQCd4CXU8gJ8Hf789HA3NhRxbi8jiN1aBqGxaPsAeAxh3E90BMD0FQKssjYNI493UYBWNKaKq2l0rVCT34kp3XUcSr2FQeZzvsX9bn0VBoAwLopcAd4gflocBgPPUkA/EMqajsSQ3cV43ISD9tB50sAPs+GN6DRFGSRocuw6DZaiQKAJa6pUlff43pdNZUIHZWefrNtHQX/O5fedS4NAKybAneAZ5qPBlvxcC4JgM86rzcC0VHFuJzFcRoWhe6VRAB4oB/XAn0xAE2mIItMpA6jB/G9fqDbKAArXFdVYVHwqCEGXZLe19uefgNPnks7xwAA1kKBO8Dzpc7EW2IAeNJ7Re7dV4zLaRzpIuZBUBQEwN/ZFAy0QirISh0Zg4Isuid1bU9FWZeiAGANa6pZXQicCt0ridBiqWB3GN/Pe3FMxQGfP5cOiyZIurkDACunwB3gGeajQS8e3kkC4Fne696ah2JcfnzcfVgUBenYAUCyY7Mb0CYKsuiQaRx7urYDsKE11XUqDI4vh8F1QtonXd9OGwQnooBnzfmejAYArIUCd4DnOQm6twO8xC/z0WBHDN1XjMtZHKdhURSkQyAAd+dPAK2hIIsOSEVZu3U3RQDY5LpqEhadfT0lhza4e/LNqQ2C8Ko5P51/7JrzAYBVUeAO8AV19/ZDSQC8SNoU9Jsi93wU43Iax0HQsQOAEHpxDXAqBqBt7hVkedQ6baEoC4Amrqlm9VNy0rpqIhEaqAqfnnwzFQcsbc6vJAIALJMCd4Avey8CgFdR5J6hYlxWcdx1aVJgAZCvd3EN4ClYQOvce9R66kJXSYSGug6KsgBo/rpqGsfQuooGSeumYXp6kyffwErm/NQASRMkAGBpChEAfN58NOjHw2+SAHiTVOS8V4zLa1Fk9z2aChvPgyehAOTqIn7/H4sBaLNvv/t+v17T9qRBA0zjOKufNtD2z9bcjzMLCgh9hnij+BkqOvS+7cfDSRx9P1msoaDza5Wjes7XAIN1OqufKPDa9+1raoOO43/zOv6zqeHb+b2/fl03UHjqv5c+H788WPvt+TECfKKDO8DTzkUA8GY6uWeqGJezOFKXpnQxxgYHgPwcxe//nhiANru9ubqMIz2hKK1rpxJhQ9LG8XTTfFthFgAtXldV97r7VhJhDdL6fWgNBRuZ8y/iwdN+aZv+K8bdJo6tB3/96Nvvvu994b+3/8i/D4B7FLgDfMZ8NDiMB8WYAMuhyD1jxbis4kiPIk6dClzIBMjLiQiALqgLYtKa1s151mlWv+e26wIRAOjCukqhO6s2DQrboQnz/azupq3QnVztf+HX34kI4GkK3AE+TyEGwHIpcs9cMS7vOnZMpAGQjUPf/UBXuDnPGk3D4qkBqSjrNL33RAJAB9dWCt1ZyRpKYTs4l4ZX2ntk3Hf8yK8/9QTrnz73C3V3d9fNAb6gEAHAP81Hg6N4OJcEwEp8fLR6MS4nosj6u3an/q7tSwOg89KTPPbEAHTNt999nzbxpmtIqePWlkRYgmkcZzkUZMXPz9yPOwt7qYBVDD5DvF78DBUZva/7YdF8qu8nzwtV9RrKdw44lyZvZ/VmilWtuz97flOvY3575Jd24z9z/cjffxoeabqZ09oP4Dl0cAd4YD4abAXd2wFWKc2z7+N8eyiKfBXj8roudkxdCXXrAOi2fvze74sB6JoHXehSF6+pVHilKo4D3UYByHxtddfR3RMgeY5Z/T5J6ycbqqCF59JxfBMW94icS9NlP73wrwNwjwJ3gH9Ku4XtFAZYPUXuhLqTf7ppdSENgE6ziRjorPrm/EUqTg6Lm/PXUuGZ0vnQbl2UdSkOAPi4tprGkdZUqfDxLCh85O/S+yFtLk2F7cP0fhEJtHrOn9Tn0mmDk3MiuvZ9lew//IVvv/s+PeW69+DvA+ARCtwB7qm7t7+TBMDapCL3czHkrRiXszg+3pQIi86FAHSPLu5AFuqb87vBzXk+bxoWRVnf1EVZNkQAwOPrqrsOv3ebCCupZG2S1tj1E2/S5lJPBYVuzfnpKR4H4VNDJJ9x2u7umlDv2+++f1jkfr8m6WdRAXyeAneAv0tdBXVvB1ivo/lo8F4MFONyGkcqBEoXMacSAejk+RZAFh7cnE+dR92cZxIUZQHAa9dWaRPhXvhU+DiVShbSRsCP3fzrjYGVSKDz8316isdxHOkpHumc2sZxXqJJ64MP917/+ODX9u/9fm16B3iCAneA2nw06MXDkSQANuIwzsN/1E/SIHPFuEwXLFPXyzNpAHSKLu5Aduqb86f1zflUnOPmfF4UZQHA8tdWx3VX91T4OJFK50zDYhND2hS4W29usDEQ8pzzL+uN4+l8+jgoBOZxl/fOuycNev9eh08F9//r4F53c9+693sH4AlfiwDgf3QTBNisnTh+m48Gw2JcukiVufgeSDctTuP7YRKP5+HexR8AWn/eVYkByFF9o3Xy7Xff9+r1bXokdU8ynTMNi5vUP6ciPHEAwMrWVun79jKurY7rtdWPwTXEtq+fPtQFgQD35/t0vyhtfLm4dz79U1jcVyRP6Tvj13Rs+Cao1MU9XQ/fiu/dw/q60I8Pfl3zN4AnFCIA+F/39j8lAdAI6ULEQTEuK1Fw77u6Hw/vgwIggC7Y8z0PsPDtd9+nG/Lpxvy+tW6rTYOirJe+9+dSyGPd58kFPkO8TfwMuZ//ss/GVlDs3hZpzVRZPwFvmPN7QbF7LmbhU1F7tc6i9gfr7s+e38S/rx8Pv91fw9Xv0bs6pLtO83/dfQ+mJ5U89s/5cQN8ooM7wMJ7EQA0RroJkTq5Hxfj8kIcJHUh5HZ8X5yGRadLHQ0A2ksXd4BaXcyTxnH9mOpUjNUPit3bYBoUtQObYz0Nj6+tUsHbJCyemnNX7P5DfXQ9cfPS2un3sOi4OxUH8MY5P80jd53dzfndXO/efWdct/U9Gt+b6fe+U78vf7/3yx/8iAG+zK4fIHt1R9jfJAHQSJM4UqH7TBTc++7uxcN50IUJoM224/f7VAwAj9PZvbGq8Okx6L7H3vYeP5VCFiY+K0DD1ld3xY99iazFXZf23+P3waU4AHM+z/nOCGvu0v6F99KrO7jXf/0oLO5pJunPdLf5YrsugH/0nwNgwaQIZG8+GqRHAvUkAdBY6YLGgSI4HvkO74fFRSGPngRon0n8bh+KAeDL7j12/a4THes9H61Cw26wAwBvXl+l4rJ++FT46PqitRPQ7Xm/f2/eT3O+Du++M5773nlrgXt6r/314G9Pf969p/45ABZMikDW5qPBYTy8lwRA46WLGsNiXOrywmPf56n7wUlwQRKgbXRxB3iFBzfm+xJZqut63N1g9z0FAPmtsf5dH11rfNq0Xjf9p143VSIBWjTnpyL3nfCp4N1Gp9VK93mrNn5nvLXAvf61X8LfGxYM469PvvTPARDC1yIAMnciAoBWSDcTfpmPBgeK3Hkovicu4ntjEhbd3A8lAtAa7+I4FgPAy9Q3U6u7/6/g/U1SjqmY/WPnOF1GAcAa694aqxc+FT3+uz72Ml4zTeP4b/362roJaPmcf7e5efLg3Lp3b87X6f11pvW4O9e+tnk8/Br+XuDuXjfAM9n1A2RrPhqkBeQvkgBohXSi/3MxLitR8IXv935YbGDrSwOg8dLN8NTF3U1xgCW614nu7qa8tfHiO+eugCF1jLuuCxoAAF661kprq6176627120vgryu10y/1/+/imOqKBHIfM6/m+Pv5vkf7s37uZuGT0/z+G/4VMw+69h7YBkd3NN75s/6vXMZf+3gOf8cADq4A3l7JwKAxpvEcVaMy6koeI56E0Q1Hw0Ow6Kju+4aAM2V5ug0X1+IAmB57nWi+5+66L0XPhVi3b3umvuF7P8XFGYBAMtfa1X1y390X63XXFv1WqtX/+W7Ivi78+B1rsHuitbv1kn/ebBmCp8r1APg4xw5q88rq0fm/PsbnO7m9h/q4/3vgbafXyf3Nz/NMtswfnbv9VPXFqYP/t6/vY/i++W4fk9cPvefA0AHdyBT89EgnWD8IQmAxpoEhe28/fv+rnAybWrrSQSgkabx+35bDACb8e133/fCpxvvafyrPja1I920HvcLtKr0P4qzAIAWr8meWnv9r5DwXgH9fZ3rlgvQ0fPu8Jlz7X+FL9/D6r/xt3F/w9P9v/Z/D861P762SRyAplDgDmRpPhq8D4uCNwCaZRIUtrOa7/70vX8SFLoDNNEwfvdPxADQTA8KqXqPrKnvdyV9qfs31O+r7r12cx0AAAAAIDMK3IHs1N1c/wyvv/EGwPJNgsJ21rMGOAqLju7WAQDNUcU1wJ4YAAAAAAAAgESBO5CduoPre0kANEIVx3ExLq9FwRrXAr14OI9jXxoAjbFtoxsAAAAAAACQfCUCIEPvRACwcdM4DlK3VsXtrFsqoIzjIL7cq9+LADhPAwAAAAAAABpCB3cgK3XH1j8lAbBRF3GcFeNyJgoasj44jIeTOHrSANiYWVwbfCMGAAAAAAAAQAd3IDf7IgDYmNSpPXVsP1bcTpPE9+MkHnbDYvMFAJuxNR8NnK8BAAAAAAAACtyB7PwoAoC1S8XsqWP7bhyVOGiitOkibb4Ii0J371OAzfhJBAAAAAAAAEAhAiAX89FgKx7+kgTAWl3GkTq2T0VBy9YNR/FwEseWNADW6htPegEAAAAAAIC86eAO5MTj7gHWZxrHXjEuDxS300bxfXsRD9txTKQB4LwNAAAAAAAAWB8F7kBOfhABwFqcxbFbjMtKFLRZ6iAcxzC+3IvjWiIAztsAAAAAAACA1StEAORiPhr8GQ89SQCsTBXHUMd2OryWOIqHkzi2pAGwMmlz0TdiAAAAAAAAgHwpcAeyMB8NevHwpyQAVmIax3ExLi9FQQZrilTcfh7HoTQAViY9CcaTMwAAAAAAACBTX4kAyMSOCABW4iwsitAUt5OF+F5PnYWH8eVeHIovAVajLwIAAAAAAADI19ciADLxgwgAlqqKY1iMy6koyFF876fPwO58NDgMi47uW1IBWJp/iwAAAAAAAADypYM7kAsd3AGWYxrHQTEu9xS3w8dC90k8bMdxIQ2ApemJAAAAAAAAAPKlwB3IhQJ3gLc7i2O3GJeXooBP4mdiFsdx+nyExdMNAHibvggAAAAAAAAgX4UIgK6bjwa9ePhTEgCvVsUx1LEdnr322I+H86ADMcBbbFt7AAAAAAAAQJ50cAdy0BMBwKtM4zgoxuWeAjN4vvopB6mb+5k0AJzHAQAAAAAAAC+jwB3IwY4IAF4sFebu1oW6wAvFz84sjtP4cjsOnyMAAAAAAAAAgGf6WgRABrZEAPBsVRxDHdthOerP0sF8NOjH4/ugIzHAc/XrdQkAAAAAAACQGQXuQA5+EAHAF03jONaxHVYjfraqeNiejwZH8XgSbMADAAAAAAAAAHjUVyIAAMjeWRy7itth9eLn7CIetuO4kAYAAAAAAAAAwD/p4A7kYEcEAI+q4hgW43IqClif+JmbxcPxfDT4EI/ncfSlAgAAAAAAAACwoMAdyMGWCAD+ZhoWhe2VKGBz4mfwOh725qPBflgUuvekAgAAAAAAAADkToE7AEA+Utfon4txeSoKaI74mbyMh8v5aJA+m++CzXkAAAAAAAAAQMa+EgEAQBZSAe2u4nZorvrzuRvHRBoA4VoEAAAAAAAAkCcd3AEAum0ax7AYl5UooPniZ/XjZ3Y+GnyIx5M4+lIBMjUTAQAAAAAAAORJB3cgB1MRABlKRWHHxbjcVtwO7ZM+t3HsxZdDaxkgUzq4AwAAAAAAQKYUuAM5mIoAyMwkjlTYfiEKaLf4OU6f5904zoJuxkBe8585DwAAAAAAADKlwB3Igc5/QE7z3V4xLoeKwqA70uc5jtOwKHS/lAiQgUoEAAAAAAAAkK+vRQBk4P9EAHRcKmY/rjs9Ax0VP+PTeDiYjwb9eDyPY0cqQEdNRQAAAAAAAAD50sEdyEElAqDDLuLYVtwO+Yif9yqO1M19GBYbXAC65r8iAAAAAAAAgHwpcAdyMBUB0EFVHLvFuEyd2xW4QobqjS3bcZxJA+jgOgcAAAAAAADIVCECIAfz0WAuBaAjpnGkovZLUQD31jq9eDiPY18aQAd8YwMfAAAAAAAA5EsHdyAXlQiADkhdmncVtwMPxXlhGsdBfLkXx7VEgBabKW4HAAAAAACAvH0tAiATqdCrLwagpVJBe+raPhUF8JQ4T1TxsDsfDQ7DoqP7llSAFp67AQAAAAAAABnTwR3IxX9EALTQNI691JVZcTvwEnHOmMTDdlg8+UEnZKBNfhcBAAAAAAAA5E2BO5CLSgRAi6Ri1NSxfbvuxgzwYnH+mMVxGl/uxjGRCODcDQAAAAAAAGiDQgRALuajwV/xsCUJoOEmYVHcruMysOy1UD8eTuLoSwNosG+sgwAAAAAAACBvCtyBbMxHg1/iYV8SQENVcZzp2A6sYU10GBaF7j1pAA1zHddCu2IAAAAAAACAvH0lAiAjv4sAaKDUoXRYjMs9xe3AOsS5ZhIPqYD0rJ6DAJrCWggAAAAAAABQ4A5kpRIB0DCpuHS7LjYFWJs478ziOA2LQndzENAUNiUDAAAAAAAAoRABkJP5aPBXPGxJAtiwKiy6tk9FATRkjbQTD+dx9KUBbNA3aQOOGAAAAAAAACBvCtyBrMxHg1/iYV8SwIZMw6KwvRIF0NC1UlonpUL3njSANaviGmlPDAAAAAAAAMBXIgAy86sIgA1InUjPinG5rbgdaLI4R12muSrNWfXcBbAuv4sAAAAAAAAASBS4A7mpRACs2SSOVNh+KgqgLeo5a7uewwDW4VIEAAAAAAAAQFKIAMjNfDT4Ix52JAGsWBUWXdsrUQAtXzv14uF9HH1pACsyrZ8eAQAAAAAAABC+FgGQoSoocAdWZxbHcTEuJ6IAuiDOZ9N42JuPBv2wKHTvSQVYwTkaAAAAAAAAwEdfiQDI0AcRACtyFse24nagi9ITKeoOy8Ow2MwDsCy/igAAAAAAAAC4U4gAyNF8NPgz6D4KLE8Vx7DucgyQw1pqKx6O4jiRBvBGs7iG+kYMAAAAAAAAwB0d3IFcXYoAWIJpHHvFuNxT3A7kJM55qSD1NL7ctq4CnJsBAAAAAAAAy6TAHcjVBxEAbzCL46wYl9txVOIAcpU298RxEF/uhcXTLACcmwEAAAAAAABvUogAyNV8NPgzHnqSAF5oEsdx6l4sCoB/rK8O4+HEGgt4prRJZlsMAAAAAAAAwH06uAM5+1kEwAtUcewV43KouB3gcXF+nMTDbhxnYfG0C4CnXIoAAAAAAAAAeEgHdyBb89GgFw9/SgL4gmkcZ3XRJgDPX2ttxcN5HIfSAD5jO66xpmIAAAAAAAAA7lPgDmRtPhr8Eg/7kgA+I3UgvtCxHeBN662dsCh070sDuKeKa6w9MQAAAAAAAAAPfS0CIHO/BgXuwD9dxnGsoyjA28W59Doe9uajQT8e38fRkwoQfRABAAAAAAAA8Bgd3IHszUeDv+JhSxJANI1jWIzLShQAK1t7HYZFR3frL8jXLK63vhEDAAAAAAAA8JivRAAQfhYBZG8WFh3btxW3A6xWnGcn8bAdx5k0IFsTEQAAAAAAAACfo8AdQHEF5O4ijlTYfiEKgPWIc27q3nwaFoXu1mKQH5uMAQAAAAAAgM8qRAAQwnw0eB8Ph5KArFRh0bX9WhQAG1+L9ePhJI6+NKDzJnH9NRQDAAAAAAAA8Dk6uAMsfBABZGMax0ExLvcUtwM0Q5yPqzQvx5fDep4GnHsBAAAAAAAAmfr/ArB3N8dtZFcYQB9U3pshgBGYjMDQtjemIjC47BXJCChGQHKFJTERCN5gy54IBo7A7QyQQfu96aal0YgzIIif/jmn6lazZiV9lKg7VV9fuOAO0Kjy7Dm4Ggp9to7zOJotP4sCoPV7WfpZfRXnRBrQKy8vswAAAAAAAAC8ygV3gK/uRAC9NY9zrtwO0A3Nz+vTOA/SAP/PBQAAAAAAAAyLC+4A33DFHXqniHM3mi0LUQB0dj8bx8eTHQ26v5e53g4AAAAAAABs4i8iAPiNn4LyFPTBOs7NaLaciwKg2+LP8jI+PlZ5lna0+zhnUoFOcr0dAAAAAAAA2IgL7gDfqfLsl6A4BV2WylMPo9lyLQqAXu5q0/i4jTOWBnSG6+0AAAAAAADAxj6IAOB3bkQAnbSIczqaLT8rtwP0V/PpHOehfqHJz3voBtfbAQAAAAAAgI254A7wA1WePcfHRBLQCWWcy9FsWYgCYHA720l83MeZSgNay/V2AAAAAAAA4E0U3AF+oMqzSXw8SwJaLV3tvRvNlg+iABj87jaOj6fgBUVoo/O4r63EAAAAAAAAAGxKwR3gFVWefYmPC0lAK6VSeyq3r0UBwDf72yTURfexNKAV5nFfuxQDAAAAAAAA8BYK7gCvaC6B/kcS0CpFnMvRbFmKAoA/2OOm8XEf50QacDTpRcRTLyQCAAAAAAAAb/VBBAA/1hRoHyQBrZD+Pn6Kfy8/KrcDsMEeN4+P0zh3oS7ZAof3qNwOAAAAAAAAbMMFd4A/UOVZuvqZrri7/gnHkUpRqRz1WRQAbLnPjePjNs5UGnAwZdzfTsUAAAAAAAAAbMMFd4A/0FwcvJEEHMU8zqlyOwDv3OdS0fYyfnkep5AIHMSlCAAAAAAAAIBtueAOsIEqz57jYyIJOIgizs1otlyJAoA97HVpp3uKM5YG7MW8eakEAAAAAAAAYCsK7gAbqPLsLD5+kQTsVRnqYvtCFAAcYL+bxsd9nBNpwM6kT8A6bT4JCwAAAAAAAGArH0QA8OeaS9J3koC9WDd/v86V2wE44H43j4/T5t8gZVzYjUvldgAAAAAAAOC9XHAHeIMqz9IV9zNJwM7M49yNZstSFAAccccbx8dtnKk0YGuLuNN9EgMAAAAAAADwXgruAG9Q5Vkqt/8iCXi3ItTF9kIUALRs17uPM5EGvEm62n7qejsAAAAAAACwCwruAG9U5dnnUF/4BN6uDHWxfS4KAFq8703i4ynOWBqwkY9eXAQAAAAAAAB2RcEdYAtVnqUr7meSgI2la56PcR5c9gSgQzvfNNQX3U+kAa9K+92NGAAAAAAAAIBdUXAH2EKVZ6nc/hyUnWATizg3o9myFAUAHdz70r53HefK7ge/s4o73rkYAAAAAAAAgF1ScAfYUnPR80kS8KpVqIvthSgA6MHuN46P2zhTacCv0qfynHuJEQAAAAAAANg1BXeAd6jy7Et8XEgCfiOVnVKxfS4KAHq4/6VP8rmPM5EGA/cp7nsLMQAAAAAAAAC79kEEAO9yGeor1UDtLs6pcjsAfRX/jVvF+Ri/TFNKhKHufMrtAAAAAAAAwL644A7wTs0Vz+c4J9JgwFLBKV1tL0UBwMB2wWmoL7rbBRnM3hd3vk9iAAAAAAAAAPZFwR1gB5pi05MkGKD0CQap2F6IAoAB74Kp3H4d5yooutP/3e9j3P3WogAAAAAAAAD2RcEdYEeqPEuXO68lwUCkUlMqts9FAQD/3wdTuT3thFNp0NP979wn9gAAAAAAAAD7puAOsENVnj3Hx0QS9NxdnAeXOwHg1Z1wHOpP97EX0hdp70uX21eiAAAAAAAAAPZNwR1gh5qrnankfiYNemgR6qvtpSgAYKPdcBLqi+52Q7ruU9wBF2IAAAAAAAAADkHBHWDHqjxLBaZUcj+RBj2RLnWmYnshCgDYaj+cxsdtnLE06KDLuAfOxQAAAAAAAAAcioI7wB4oudMT61AX2+eiAIB374dpL7yOc2VHpEOU2wEAAAAAAICDU3AH2JPmUueTJOiouzgPo9lyLQoA2OmOmMrt6Zr7tTRoOeV2AAAAAAAA4CgU3AH2SMmdDlqE+mp7KQoA2OueOI6P+zgX0qCF0ouON2IAAAAAAAAAjkHBHWDPqjxL1znvJUHLrUJdbC9EAQAH3RUnob7oPpEGLaHcDgAAAAAAAByVgjvAAVR5lq64TyVBC61DXWyfiwIAjrovpl0xFd3H0uCILu2FAAAAAAAAwLEpuAMciJI7LXQX6guda1EAQGt2xvTpP6nofiINDky5HQAAAAAAAGgFBXeAA1JypyUWob7aXooCAFq5M6Zy+0vRHQ5BuR0AAAAAAABoDQV3gANTcueIVqEutheiAIBO7I3jUJfc7Y7sk3I7AAAAAAAA0CoK7gBHoOTOgZVx7hSXAKCzu+NZfNzHmUiDHVNuBwAAAAAAAFpHwR3gSJTcOYB1nMc4D6PZci0OAOj8/jiJj7RDjqXBDii3AwAAAAAAAK2k4A5wREru7NE81FfbS1EAQO92yLQ/3gZFd7an3A4AAAAAAAC0loI7wJEpubNjRaiL7YUoAKDXO+RJfFzHuYpzIhE2lD7V50a5HQAAAAAAAGgzBXeAFlByZwfKUBfb56IAgEHtkancnq65X0uDP5HK7R/jvrgSBQAAAAAAANBmCu4ALaHkzpZSUelxNFt+FgUADHqXHMfHfZwLafADZZxPyu0AAAAAAABAFyi4A7SIkjtvNI9zM5ot16IAAJp9chLqi+4TadBIpfaPdkYAAAAAAACgKxTcAVqmyrPrUF/fhNcUoS62u8AJALy2U140O+VYGoM2D16IBAAAAAAAADpGwR2ghao8m8bHkyT4ThnqgtJCFADAG/bKVHQ/kcbg3MW98bMYAAAAAAAAgK5RcAdoqSrPJvHxJSgjEUK6uJkKSg+iAAC22CvTPpk+JejKbjmY3fHSS5EAAAAAAABAVym4A7RYlWdnoS65j6UxWKnUnsrta1EAAO/cLVO5PV1zn0qjt1ahLrevRAEAAAAAAAB0lYI7QMs1RaRUcp9IY1DSxc2b0WxZigIA2PF+OQ510f1CGr0yb/ZHL0YCAAAAAAAAnabgDtARVZ6lEtK1JHovXdtMxaRCFADAnvfLSXzcBi9Sdt262R/nogAAAAAAAAD6QMEdoEOqPEtXNp/inEijd8o4d4pJAMCRdsz0MuVYGp2TXo68jDvkShQAAAAAAABAXyi4A3RMlWfj+PgS50wavZAubj7GeRjNlmtxAABH3DOnoS66e5myG9LLkZ/FAAAAAAAAAPSNgjtAR1V5lspH15LotHmcG8V2AKBFO+ZJs2NeBUX3tnK1HQAAAAAAAOg1BXeADqvybBIfT3HG0uiUItSlpFIUAEBL98xUbk8vVE6l0SqutgMAAAAAAAC9p+AO0HFN+SiV3C+k0Xrpyma62F6IAgDoyK45jo/boOjehj3S1XYAAAAAAABgEBTcAXrCNfdWK0N9bXMuCgCgw7tmKrpPpHFQ62aPfBAFAAAAAAAAMBQK7gA90lxzT8Wja2m0QiokPcZ5GM2Wa3EAAD3YNyfxcR/nTBp7Nw/1p//YIwEAAAAAAIBBUXAH6KEqz1LhKBWPJtI4mnlQSAIA+rtvTkP9YuVYGjtXNHvkShQAAAAAAADAECm4A/RYUzxKRfcTaRxMEedyNFuWogAABrBvpk8OurVv7kTZ7JGFKAAAAAAAAIAhU3AH6Lkqz1LZ6KV4xP4Uce4UkgCAAe+bV0HRfRtls0fORQEAAAAAAACg4A4wGFWejUNdcp9KY6fKODej2XIhCgBg4Pumovvb90jFdgAAAAAAAIDvKLgDDIyi+86UQSEJAOBH+6aiuz0SAAAAAAAAYGsK7gADpei+tXWcxzgPo9lyLQ4AgFf3TUX33ypCXWwvRAEAAAAAAADwOgV3gIFTdN+YYjsAwHb75pCL7mlvXIS62F760wAAAAAAAADw5xTcAfiVC5uvKuPcxVkotgMA2Dc3tAr1y5F2SAAAAAAAAIA3UnAH4HeqPJvGxz/jTAYcQxnqS5tzfyIAAPayb6ZPERr3bH9M19ofXWsHAAAAAAAA2J6COwCvqvLsLNRF92kYzlX3ItSlpIU/AQAAe983L0J90X3S0d9CGepS+09xf1z5jgIAAAAAAAC8n4I7ABtpykep7H7R09/iPNTFpMJ3GwDg4LvmONRF92lo/4uVqcheBKV2AAAAAAAAgL1QcAfgTao8S4WjVHL/R+h+2X0d6mJ7uthe+u4CALRi32zbi5VpTyzi/Jye9kYAAAAAAACA/VJwB2Br35Td/948TzryS0+XNh/jLEaz5dp3EgDArvndrphGoR0AAAAAAADgCBTcAdiZKs/OwtcS0qRlv7xUZF+E+lr7yncLAKCTu+ak2TXT1+Md7IcvZfb/pmfcEwtJAwAAAAAAAByXgjsAe9Fc3Py2hDQ5wi/jpdT+r9FsufBdAQDo3c75smO+PP/a7KDf74T/br5OZfa1IjsAAAAAAABAeym4A3AwzdXNNH8LX8vvu1bE+TnOwqV2AAAAAAAAAAAA6BYFdwCOqsqzcXykmYSvFzdf/ttrymZernGmr1cK7QAAAAAAAAAAAAAAAAAAAAAAAAAAAAAAAAAAAAAAAAAAAAAAAAAAAAAAAAAAAAAAAAAAAAAAAAAAAAAAAAAAAAAAAAAAAAAAAAAAAAAAAAAAAAAAAAAAAAAAAAAAAAAAAAAAAAAAAAAAAAAAAAAAAAAAAAAAAAAAAAAAAAAAAAAAAAAAAAAAAAAAAAAAAAAAAAAAAAAAAAAAAAAAAAAAAAAAAAAAAAAAAAAAAAAAAAAAAAAAAAAAAAAAAAAAAAAAAAAAAAAAAAAAAAAAAAAAAAAAAAAAAAAAAAAAAAAAAAAAAAAAAAAAAAAAAAAAAAAAAAAAAAAAAAAAAAAAAAAAAAAAAAAAAAAAAAAAAAAAAAAAAAAAAAAAAAAAAAAAAAAAAAAAAAAAAAAAAAAAAAAAAAAAAAAAAAAAAAAAAAAAAAAAAAAAAAAAAAAAAAAAAAAAAAAAAAAAAAAAAAAAAAAAAAAAAAAAAAAAAAAAAAAAAAAAAAAAAAAAAAAAAAAAAAAAAAAAAAAAAAAAAAAAAAAAAAAAAAAAAAAAAAAAAAAAAAAAAAAAAAAAAAAAAAAAAAAAAAAAAAAAAAAAAAAAAAAAAAAAAAAAAAAAAAAAAAAAAAAAAAAAAAAAAAAAAAAAAAAAAAAAAAAAAAAAAAAAAAAAAAAAAAAAAAAAAAAAAAAAAAAAAAAAAAAAAAAAAAAAAAAAAAAAAAAAAAAAAAAAAAAAAAAAAAAAAAAAAAAAAAAAAAAAAAAAAAAAAAAAAAAAAAAAAAAAAAAAAAAAAAAAAAAAAAAAAAAAAAAAAAAAAAAAAAAAAAAAAAAAAAAAAAAAAAAAAAAAAAAAAAAAAAAAAAAAAAAAAAAAAAAAAAAAAAAAAAAAAAAAAAAAAAAAAAAAAAAAAAAAAAAAAAAAAAAAAAAAAAAAAAAAAAAAAAAAAAAAAAAAAAAAAAAAAAAAAAAAAAAAAAAAAAAAAAAAAAAAAAAAAAAAAAAAAAAAAAAAAAAAAAAAAAAAAAAAAAAAAAAAAAAAAAAAAAAAAAAAAAAAAAAAAAAAAAAAAAAAAAAAAAAAAAAAAAAAAAAAAAAAAAAAAAAAAAAAAAAAAAAAAAAAAAAAAAAAAAAAAAAAAAAAAAAAAAAAAAAAAAAAAAAAAAAAAAAAAAAAAAAAAAAAAAAAAAAAAAAAAAAAAAAAAAAAAAAAAAAAAAAAAAAAAAAAAAAAAAAAAAAAAAAAAAAAAAAAAAAAAAAAAAAAAAAAAAAAAAAAAAAAAAAAAAAAAAAAAAAAAAAAAAAAAAAAAAAAAAAAAAAAAAAAAAAAAAAAAAAAAAAAAAAAAAAAAAAAAAAAAAAAAAAAAAAAAAAAAAAAAAAAAAAAAAAAAAAAAAAAAAAAAAAAAAAAAAAAAAAAAAAAAAAAAAAAAAAAAAAAAAAAAAAAAAAAAAAAAAAAAAAAAAAAAAAAAAAAAAAAAAAAAAAAAAAAAAAAAAAAAAAAAAAAAAAAAAAAAAAAAAAAAAAAAAAAAAAAAAAAAAAAAAAAAAAAAAAAAAAAAAAAAAAAAAAAAAAAAAAAAAAAAAAAAAAAAAAAAAAAAAAAAAAAAAAAAAAAAAAAAAAAAAAAAAAAAAAAAAAAAAAAAAAAAAAAAAAAAAAAAAAAAAAAAAAAAAAAAAAAAAAAAAAAAAAAAAAAAAAAAAAAAAAAAAAAAAAAAAAAAAAAAAAAAAAAAAAAAAAAAAAAAAAAAAAAAAAAAAAAAAAAAAAAAAAAAAAAAAAAAAAAAAAAAAAAAAAAAAAAAAAAAAAAAAAAAAAAAAAAAAAAAAAAAAAAAAAAAAAAAAAAAAAAAAAAAAAAAAAAAAAAAAAAAAAAAAAAAAAAAAAAAAAAAAAAAAAAAAAAAAAAAAAAAAAAAAAAAAAAAAAAAAAAAAAAAAAAAAAAAAAAAAAAAAAAAAAAAAAAAAAAAAAAAAAAAAAAAAAAAAAAAAAAAAAAAAAAAAAAAAAAAAAAAAAAAAAAAAAAAAAAAAAAAAAAAAAAAAAAAAAAAAAAAAAAAAAAAAAAAAAAAAAAAAAAAAAAAAAAAAAAAAAAAAAAAAAAAAAAAAAAAAAAAAAAAAAAAAAAAAAAAAAAAAAAAAAAAAAAAAAAAAAAAAAAAAAAAAAAAAAAAAAAAAAAAAAAAAAAAAAAAAAAAAAAAAAAAAAAAAAAAAAAAAAAAAAAAAAAAAAAAAAAAAAAAAAAAAAAAAAAAAAAAAAAAAAAAAAAAAAAAAAAAAAAAAAAAAAAAAAAAAAAAAAAAAAAAAAAAAAAAAAAAAAAAAAAAAAAAAAAAAAAAAAAAAAAAAAAAAAAAAAAAAAAAAAAAAAAAAAAAAAAAAAAAAAAAAAAAAAAAAAAAAAAAAAAAAAAAAAAAAAAAAAAAAAAAAAAAAAAAAAAAAAAAAAAAAAAAAAAAAAAAAAAAAAAAAAAAAAAAAAAAAAAAAAAAAAAAAAAAAAAAAAAAAAAAAAAAAAAAAAAAAAAAAAAAAAAAAAAAAAAAAAAAAAAAAAAAAAAAAAAAAAAAAAAAAAAAAAAAAAAAAAAAAAAAAAAAAAAAAAAAAAAAAAAAAAAAAAAAAAAAAAAAAAAAAAAAAAAAAAAAAAAAAAAAAAAAAAAAAAAAAAAAAAAAAAAAAAAAAAAAAAAAAAAAAAAAAAAAAAAAAAAAAAAAAAAAAAAAAAAAAAAAAAAAAAAAAAAAAAAAAAAAAAAAAAAAAAAAAAAAAAAAAAAAAAAAAAAAAAAAAAAAAAAAAAAAAAAAAAAAAAAAAAAAAAAAAAAAAAAAAAAAAAAAAAAAAAAAAAAAAAAAAAAAAAAAAAAAAAAAAAAAAAAAAAAAAAAAAAAAAAAAAAAAAAAAAAAAAAAAAAAAAAAAAAAAAAAAAAAAAAAAAAAAAAAAAAAAAAAAAAAAAAAAAAAAAAAAAAAAAAAAAAAAAAAAAAAAAAAAAAAAAAAAAAAAAAAAAAAAAAAAAAAAAAAAAAAAAAAAAAAAAAAAAAAAAAAAAAAAAAAAAAAAAAAAAAAAAAAAAAAAAAAAAAAAAAAAAAAAAAAAAAAAAAAAAAAAAAAAAAAAAAAAAAAAAAAAAAAAAAAAAAAAAAAAAAAAAAAAAAAAAAAAAAAAAAAAAAAAAAAAAAAAAAAAAAAAAAAAAAAAAAAAAAAAAAAAAAAAAAAAAAAAAAAAAAAAAAAAAAAAAAAAAAAAAAAAAAAAAAAAAAAAAAAAAAAAAAAAAAAAAAAAAAAAAAAAAAAAAAAAAAAAAAAAAAAAAAAAAAAAAAAAAAAAAAAAAAAAAAAAAAAAAAAAAAAAAAAAAAAAAAAAAAAAAAAAAAAAAAAAAAAAAAAAAAAAAAAAAAAAAAAAAAAAAAAAAAAAAAAAAAAAAAAAAAAAAAAAAAAAAAAAAAAAAAAAAAAAAAAAAAAAAAAAAAAAAAAAAAAAAAAAAAAAAAAAAAAAAAAAAAAAAAAAAAAAAAAAAAAAAAAAAAAAAAAAAAAAAAAAAAAAAAAAAAAAAAAAAAAAAAAAAAAAAAAAAAAAAAAAAAAAAAAAAAAAAAAAAAAAAAAAAAAAAAAAAAAAAAAAAAAAAAAAAAAAAAAAAAAAAAAAAAAAAAAAAAAAAAAAAAAAAAAAAAAAAAAAAAAAAAAAAAAAAAAAAAAAAAAAAAAAAAAAAAAAAAAAAAAAAAAAAAAAAAAAAAAAAAAAAAAAAAAAAAAAAAAAAAAAAAAAAAAAAAAAAAAAAAAAAAAAAAAAAAAAAAAAAAAAAAAAAAAAAAAAAAAAAAAAAAAAAAAAAAAAAAAAAAAAAAAAAAAAAAAAAAAAAAAAAAAAAAAAAAAAAAAAAAAAAAAAAAAAAAAAAAAAAAAAAAAAAAAAAAAAAAAAAAAAAAAAAAAAAAAAAAAAAAAAAAAAAAAAAAAAAAAAPyvPTggAQAAABD0/3U/QgUAAAAAAAAAAAAAAAAAAAAAAAAAAAAAAAAAAAAAAAAAAAAAAAAAAAAAAAAAAAAAAAAAAAAAAAAAAAAAAAAAAAAAAAAAAAAAAAAAAAAAAAAAAAAAAAAAAAAAAAAAAAAAAAAAAAAAAAAAAAAAAAAAAAAAAAAAAAAAAAAAAAAAAAAAAAAAAAAAAAAAAAAAAAAAAAAAAAAAAAAAAAAAAAAAAAAAAAAAAAAAAAAAAAAAAAAAAAAAAAAAAAAAAAAAAAAAAAAAAAAAAAAAAAAAAAAAAAAAAAAAAAAAAAAAAAAAAAAAAAAAAAAAAAAAAAAAAAAAAAAAAAAAAAAAAAAAAAAAAAAAAAAAAAAAAAAAAAAAAAAAAAAAAAAAAAAAAAAAAAAAAAAAAAAAAAAAAAAAAAAAAAAAAAAAAAAAAAAAAAAAAAAAAAAAAAAAAAAAAAAAAAAAAAAAAAAAAAAAAAAAAAAAAAAAAAAAAAAAAAAAAAAAAAAAAAAAAAAAAAAAAAAAAAAAAAAAAAAAAAAAAAAAAAAAAAAAAAAAAAAAAAAAAAAAAAAAAAAAAAAAAAAAAAAAAAAAAAAAAAAAAAAAAAAAAAAAAAAAAAAAAAAAAAAAAAAAAAAAAAAAAAAAAAAAAAAAAAAAAAAAAAAAAAAAAAAAAAAAAAAAAAAAAAAAAAAAAAAAAAAAAAAAAAAAAAAAAAAAAAAAAAAAAAAAAAAAAAAAAAAAAAAAAAAAAAAAAAAAAAAAAAAAAAAAAAAAAAAAAAAAAAAAAAAAAAAAAAAAAAAAAAAAAAAAAAAAAAAAAAAAAAAAAAAAAAAAAAAAAAAAAAAAAAAAAAAAAAAAAAAAAAAAAAAAAAAAAAAAAAAAAAAAAAAAAAAAAAAAAAAAAAAAAAAAAAAAAAAAAAAAAAAAAAAAAAAAAAAAAAAAAAAAAAAAAAAAAAAAAAAAAAAAAAAAAAAAAAAAAAAAAAAAAAAAAAAAAAAAAAAAAAAAAAAAAAAAAAAAAAAAAAAAAAAAAAAAAAAAAAAAAAAAAAAAAAAAAAAAAAAAAAAAAAAAAAAAAAAAAAAAAAAAAAAAAAAAAAAAAAAAAAAAAAAAAAAAAAAAAAAAAAAAAAAAAAAAAAAAAAAAAAAAAAAAAAAAAAAAAAAAAAAAAAAAAAAAAAAAAAAAAAAAAAAAAAAAAAAAAAAAAAAAAAAAAAAAAAAAAAAAAAAAAAAAAAAAAAAAAAAAAAAAAAAAAAAAAAAAAAAAAAAAAAAAAAAAAAAAAAAAAAAAAAAAAAAAAAAAAAAAAAAAAAAAAAAAAAAAAAAAAAAAAAAAAAAAAAAAAAAAAAAAAAAAAAAAAAAAAAAAAAAAAAAAAAAAAAAAAAAAAAAAAAAAAAAAAAAAAAAAAAAAAAAAAAAAAAAAAAAAAAAAAAAAAAAAAAAAAAAAAAAAAAAAAAAAAAAAAAAAAAAAAAAAAAAAAAAAAAAAAAAAAAAAAAAAAAAAAAAAAAAAAAAAAAAAAAAAAAAAAAAAAAAAAAAAAAAAAAAAAAAAAAAAAAAAAAAAAAAAAAAAAAAAAAAAAAAAAAAAAAAAAAAAAAAAAAAAAAAAAAAAAAAAAAAAAAAAAAAAAAAAAAAAAAAAAAAAAAAAAAAAAAAAAAAAAAAAAAAAAAAAAAAAAAAAAAAAAAAAAAAAAAAAAAAAAAAAAAAAAAAAAAAAAAAAAAAAAAAAAAAAAAAAAAAAAAAAAAAAAAAAAAAAAAAAAAAAAAAAAAAAAAAAAAAAAAAAAAAAAAAAAAAAAAAAAAAAAAAAAAAAAAAAAAAAAAAAAAAAAAAAAAAAAAAAAAAAAAAAAAAAAAAAAAAAAAAAAAAAAAAAAAAAAAAAAAAAAAAAAAAAAAAAAAAAAAAAAAAAAAAAAAAAAAAAAAAAAAAAAAAAAAAAAAAAAAAAAAAAAAAAAAAAAAAAAAAAAAAAAAAAAAAAAAAAAAAAAAAAAAAAAAAAAAAAAAAAAAAAAAAAAAAAAAAAAAAAAAAAAAAAAAAAAAAAAAAAAAAAAAAAAAAAAAAAAAAAAAAAAAAAAAAAAAAAAAAAAAAAAAAAAAAAAAAAAAAAAAAAAAAAAAAAAAAAAAAAAAAAAAAAAAAAAAAAAAAAAAAAAAAAAAAAAAAAAAAAAAAAAAAAAAAAAAAAAAAAAAAAAAAAAAAAAAAAAAAAAAAAAAAAAAAAAAAAAAAAAAAAAAAAAAAAAAAAAAAAAAAAAAAAAAAAAAAAAAAAAAAAAAAAAAAAAAAAAAAAAAAAAAAAAAAAAAAAAAAAAAAAAAAAAAAAAAAAAAAAAAAAAAAAAAAAAAAAAAAAAAAAAAAAAAAAAAAAAAAAAAAAAAAAAAAAAAAAAAAAAAAAAAAAAAAAAAAAAAAAAAAAAAAAAAAAAAAAAAAAAAAAAAAAAAAAAAAAAAAAAAAAAAAAAAAAAAAAAAAAAAAAAAAAAAAAAAAAAAAAAAAAAAAAAAAAAAAAAAAAAAAAAAAAAAAAAAAAAAAAAAAAAAAAAAAAAAAAAAAAAAAAAAAAAAAAAAAAAAAAAAAAAAAAAAAAAAAAAAAAAAAAAAAAAAAAAAAAAAAAAAAAAAAAAAAAAAAAAAAAAAAAAAAAAAAAAAAAAAAAAAAAAAAAAAAAAAAAAAAAAAAAAAAAAAAAAAAAAAAAAAAAAAAAAAAAAAAAAAAAAAAAAAAAAAAAAAAAAAAAAAAAAAAAAAAAAAAAAAAAAAAAAAAAAAAAAAAAAAAAAAAAAAAAAAAAAAAAAAAAAAAAAAAAAAAAAAAAAAAAAAAAAAAAAAAAAAAAAAAAAAAAAAAAAAAAAAAAAAAAAAAAAAAAAAAAAAAAAAAAAAAAAAAAAAAAAAAAAAAAAAAAAAAAAAAAAAAAAAAAAAAAAAAAAAAAAAAAAAAAAAAAAAAAAAAAAAAAAAAAAAAAAAAAAAAAAAAAAAAAAAAAAAAAAAAAAAAAAAAAAAAAAAAAAAAAAAAAAAAAAAAAAAAAAAAAAAAAAAAAAAAAAAAAAAAAAAAAAAAAAAAAAAAAAAAAAAAAAAAAAAAAAAAAAAAAAAAAAAAAAAAAAAAAAAAAAAAAAAAAAAAAAAAAAAAAAAAAAAAAAAAAAAAAAAAAAAAAAAAAAAAAAAAAAAAAAAAAAAAAAAAAAAAAAAAAAAAAAAAAAAAAAAAAAAAAAAAAAAAAAAAAAAAAAAAAAAAAAAAAAAAAAAAAAAAAAAAAAAAAAAAAAAAAAAAAAAAAAAAAAAAAAAAAAAAAAAAAAAAAAAAAAAAAAAAAAAAAAAAAAAAAAAAAAAAAAAAAAAAAAAAAAAAAAAAAAAAAAAAAAAAAAAAAAAAAAAAAAAAAAAAAAAAAAAAAAAAAAAAAAAAAAAAAAAAAAAAAAAAAAAAAAAAAAAAAAAAAAAAAAAAAAAAAAAAAAAAAAAAAAAAAAAAAAAAAAAAAAAAAAAAAAAAAAAAAAAAAAAAAAAAAAAAAAAAAAAAAAAAAAAAAAAAAAAAAAAAAAAAAAAAAAAAAAAAAAAAAAAAAAAAAAAAAAAAAAAAAAAAAAAAAAAAAAAAAAAAAAAAAAAAAAAAAAAAAAAAAAAAAAAAAAAAAAAAAAAAAAAAAAAAAAAAAAAAAAAAAAAAAAAAAAAAAAAAAAAAAAAAAAAAAAAAAAAAAAAAAAAAAAAAAAAAAAAAAAAAAAAAAAAAAAAAAAAAAAAAAAAAAAAAAAAAAAAAAAAAAAAAAAAAAAAAAAAAAAAAAAAAAAAAAAAAAAAAAAAAAAAAAAAAAAAAAAAAAAAAAAAAAAAAAAAAAAAAAAAAAAAAAAAAAAAAAAAAAAAAAAAAAAAAAAAAAAAAAAAAAAAAAAAAAAAAAAAAAAAAAAAAAAAAAAAAAAAAAAAAAAAAAAAAAAAAAAAAAAAAAAAAAAAAAAAAAAAAAAAAAAAAAAAAAAAAAAAAAAAAAAAAAAAAAAAAAAAAAAAAAAAAAAAAAAAAAAAAAAAAAAAAAAAAAAAAAAAAAAAAAAAAAAAAAAAAAAAAAAAAAAAAAAAAAAAAAAAAAAAAAAAAAAAAAAAAAAAAAAAAAAAAAAAAAAAAAAAAAAAAAAAAAAAAAAAAAAAAAAAAAAAAAAAAAAAAAAAAAAAAAAAAAAAAAAAAAAAAAAAAAAAAAAAAAAAAAAAAAAAAAAAAAAAAAAAAAAAAAAAAAAAAAAAAAAAAAAAAAAAAAAAAAAAAAAAAAAAAAAAAAAAAAAAAAAAAAAAAAAAAAAAAAAAAAAAAAAAAAAAAAAAAAAAAAAAAAAAAAAAAAAAAAAAAAAAAAAAAAAAAAAAAAAAAAAAAAAAAAAAAAAAAAAAAAAAAAAAAAAAAAAAAAAAAAAAAAAAAAAAAAAAAAAAAAAAAAAAAAAAAAAAAAAAAAAAAAAAAAAAAAAAAAAAAAAAAAAAAAAAAAAAAAAAAAAAAAAAAAAAAAAAAAAAAAAAAAAAAAAAAAAAAAAAAAAAAAAAAAAAAAAAAAAAAAAAAAAAAAAAAAAAAAAAAAAAAAAAAAAAAAAAAAAAAAAAAAAAAAAAAAAAAAAAAAAAAAAAAAAAAAAAAAAAAAAAAAAAAAAAAAAAAAAAAAAAAAAAAAAAAAAAAAAAAAAAAAAAAAAAAAAAAAAAAAAAAAAAAAAAAAAAAAAAAAAAAAAAAAAAAAAAAAAAAAAAAAAAAAAAAAAAAAAAAAAAAAAAAAAAAAAAAAAAAAAAAAAAAAAAAAAAAAAAAAAAAAAAAAAAAAAAAAAAAAAAAAAAAAAAAAAAAAAAAAAAAAAAAAAAAAAAAAAAAAAAAAAAAAAAAAAAAAAAAAAAAAAAAAAAAAAAAAAAAAAAAAAAAAAAAAAAAAAAAAAAAAAAAAAAAAAAAAAAAAAAAAAAAAAAAAAAAAAAAAAAAAAAAAAAAAAAAAAAAAAAAAAAAAAAAAAAAAAAAAAAAAAAAAAAAAAAAAAAAAAAAAAAAAAAAAAAAAAAAAAAAAAAAAAAAAAAAAAAAAAAAAAAAAAAAAAAAAAAAAAAAAAAAAAAAAAAAAAAAAAAAAAAAAAAAAAAAAAAAAAAAAAAAAAAAAAAAAAAAAAAAAAAAAAAAAAAAAAAAAAAAAAAAAAAAAAAAAAAAAAAAAAAAAAAAAAAAAAAAAAAAAAAAAAAAAAAAAAAAAAAAAAAAAAAAAAAAAAAAAAAAAAAAAAAAAAAAAAAAAAAAAAAAAAAAAAAAAAAAAAAAAAAAAAAAAAAAAAAAAAAA4CwXhu11/Xpl2AAAAAElFTkSuQmCC;" vertex="1" parent="1">
          <mxGeometry x="445.5" y="25" width="101.99" height="70" as="geometry" />
        </mxCell>
        <mxCell id="n8y3GHhv3eQLkhhlIx0I-8" style="edgeStyle=orthogonalEdgeStyle;rounded=0;orthogonalLoop=1;jettySize=auto;html=1;" edge="1" parent="1" source="n8y3GHhv3eQLkhhlIx0I-7" target="n8y3GHhv3eQLkhhlIx0I-1">
          <mxGeometry relative="1" as="geometry" />
        </mxCell>
        <mxCell id="n8y3GHhv3eQLkhhlIx0I-7" value="Orhcestration&#xa;Airflow" style="shape=image;verticalLabelPosition=bottom;labelBackgroundColor=default;verticalAlign=top;aspect=fixed;imageAspect=0;image=data:image/png,iVBORw0KGgoAAAANSUhEUgAAAtEAAAEKCAYAAADU2Al2AABYXklEQVR42u2de4xl1XXmb4MdjQzGjcxjAEHKeEDAhHGPuqMkTsYm/GEeQSZ0zMOWaOFucAjELtSykwYaAwZ7qgjdJjbVpscmJHJXgDhDYys93Y3jsWeicv6woom6NJpxYv6IrSixSohBVgshq1VT69TZt/fddz/W2o/zuPf7pM25XVTVPffcR/3Od7611mAAQRAEQRAEQRAEQdOoMzdfcdHg8T2HcSQgCIIgCIIgiKHTrtq0afDgk68Pnnr2VRwNCIIgCIIgCArovJvu2VoB9EOfPzH47LOv4YhAEARBEARBkA+gb79/VwXPaj39zE9xVCAIgiAIgiCIC9C0EOeAIAiCIAiCIAFAw4mGIAiCIAiCIIdue+C5MXh++I9W4URDEARBEARBkEVDB1pBM231BYiGIAiCIAiCIAFAA6IhCIIgCIIgyAHQvgWIhiAIgiAIgqA1ze68gQXQgGgIgiAIgiAIEgD04398olqAaAiCIAiCIGiaNZxEGAJnfQGiIQiCIAiCoGnVudfdfPWGh7/8BgucAdEQBEEQBEHQtOu0qzZtqmBYAs+AaAiCIAiCIGhatXFmZuMIQPuAeW5hdWwBoiEIgiAIgqBp0iOP7H/HYO/CD7zwbANnQDQEQRAEQRA0tXp8z2ErQIfAGRANQRAEQRAETaVue+C5JHgGREMQBEFQ87r3XYM7Z88cPMBd9P2xa/s7Bx+epHXTOwe7aLv1jMGv0qJMa3VZHoIEAH3qE3tWo+B5z38ZXYBoCIIgCGpOBMb3nX3K6qfPGljXQ2f712PnDN6i7fy56/+mLWd9+ZzxrXm7zeXaR/0xfPRdG1Y+esbaVlt3n/W2n1Vfr9fNpw+O0vrdMwcLBN20KuC+bGYGr77pVjXOe89Xj7MA2gRm2wJEQxAEQVCzIsDzgTQHplNBuksAzYVqF0i71o3vrLen11/TQFtBtnK08aqc9LPXnTdkg2e1/uS//i0OLARBEAQ1rD84a3DYB9A+kFbw3AZA7z8/bpsK0/ptCUiPwPQ7R9eHTz/5/3S4pigMnOvJ0dnX3HHt0IFOBWdANARBEAS1K3I/Hzt78BOXI53biXbFOXKDs1olwFrffylIm1BtwnQF1KefvE1LgTU51nCr+6mRYSq54BkQDUEQBEHdAOnSEB3rPLsg2QRm19fp33/+b/2/IxaqdZC+a2McTI8B9ekn14cti+6PnGqKgODV232ds2XLxRVAmw60EJZP+dLXhgsQDUEQBEFdAenLZmZsIB2KdKQ40SkA7QJkWurftLVBthSuOSvVkbY50zpMh4AasY/unqBWw1SEAK0Dc2gBoiEIgiCoZZGz6QJpjhvdBED7QNoEaBtIcwA7xqlWjrRyo1NcaZ8z7YJpWhT5oNZ7eCV3SCZAc53mha+P3XZ9DRANQRAEQR2QzZHmuNDSOEcIpl3grDvHIXDm/Nv3dRdcu4DaBdJSoOY40x8OwDSiHh0QTSNUAM2AZxOSR0DZWMOvI84BQRAEQf0FaWkuOsaJ1m/73GYbIJvb0PdwXGsXUIdAOtahjoVpvJq7C9Aup9kGzd4FiIYgCIKgDoG0UWyYI9LBjXNw4FkCzT545nzNvC8fUNOiY1ENX6mhOQdA+5xpH0gT0CMv3bBonDeBsgOgrZGMlAWIhiAIgqDugbTqI83tGc11oSVxDrMI0BfLsAGxb9m+zwXVkkz1Z84arCiAti0pVA/7SEe40gTS//7ywW14RZfX+jRCP0Bng2dANARBEAT1B6RTIx2xeeic4CxdoRiImdVW+01udAigpUCdkpemPtN4RTcA0E3BMyAagiAIgrqtRx7Z/w4OSCtQ9oG0JA9tc6BN17ckPHPA2gf4PpD2AXXKwBZOBw+8oksB9FePhzpuFFmAaAiCIAjqtrggnepGh4aqNOE+p0C1CdKq0LAxmA640gTSmHyYUbM7b3ABdLT7/NxB/78B0RAEQRDUL9Fgj5QCw9jiQhek+rLNbcO0FKRTIx4SmKaiURQcpuu8m+7ZagJ0tPusQNm1dcE0IBqCIAiC+qHZMwcPhIoMOQWGLpjmDlXpEjyHctSPnTN4KxTtyAXT3IgHFT9iOEu8zr3u5qsHTz/zU72IUAzPIXDmgDQgGoIgCIL6o3vfNbiTIKyUG20WF+YuJPyr88O3bf9OgWkJROeIefimHtKi76GTIbq6gFe0TKddtWnT4KlnXzUBOhmcfbddkQ5ANARBEAT1S+RipoA0F6J9re1KwLO6bW5zQHUMSKe0xPN18aB/33f2KdWivDty0jyds2XLxRVAS7PPLmjmLBtYA6IhCIIgqL+i8dKUr3UVF7pgmhvp8LW4ywHQ+tZc+tdDcC1xphVIE7zGAHXOLh70/xRI0/OIceF+VScaBkAXhWcfUKstIBqCIAiCegoW9Zjw2Gy0NNIRE+fgOM0uoDa/lupW663vFEhLgNqchJgU8XjnYHj/tOjKAkV18Kp2APTehR9EA3TuBScagiAIgiYDMCgSIGl5x4Vo36CVEg60b3Fd6xBQE6yaAC11pqV5aVcXD5WNpkX7gJy0Q4/vOczOP5eEZ9ONBkRDEARB0OSCdEyRoatLR2xhYSpASyE75EqTG60c4BSgTs1Lq583QRo5aTtAB/PPpQHahGlANARBEARNhvRe0qkTDE2QNiMdKU50SZj2RT98IB3rSqd28NDdaB2mkZM+CdDB+EaT8KwvQDQEQRAETRZIU29kLkhz3OgckY6SwCwBarVU/2jdAdYzyk3lpQmkTYhW+zTV/aRve+A51vCUNgAahYUQBEEQNJmioSwKpGMh2paNlkY6uAWEbUG1ykcraM3hTMeOD6fnyQbStKXnEwCdCaBffMW/hRMNQRAEQdMt6vRAIK270tJYh63dXWykIwf8fu+ivCCtYh0mtKqccmxeOmZQi55ltznTlJOehtftebffv+vUrzz7pspAO+FZAtAhcI4FaUA0BEEQBE2m1FCWXLGO1DZ3KeCsA7Tva9Kl2t7ZXOAmnWn6Hh2ibTBdFRxeNjMz9QAdA8/mbXNJYRqFhRAEQRA02dKHsqQUGeoAzR2+4isslLjOJjS7trEwTScaNvfXBtOpznTIjZ7/xXd4YXpiCw5nd94w2PPV41niGzZo9gF0LEwDoiEIgiAIIM3NR5tONBekc7vP+lZfIch2RTtCIO2LeeSKeNhGuJsgPZGDWTSAdkK0BKC5wByCacQ5IAiCIAhS0w0pI52Sj46JdcQUFpqQbAPm0JIAtSvW4XOmU1riuSIduhPtg+lJGcxy7nU3Xz14+pmfOiMckoLBXIvrRgOiIQiCIGhKQHpmZmMsSNsGr5TKRbsc6JTFAWqfG21CdApQu1xplYvWQToU7+jzYJbTrtq0afDUs696AToE0jnh2QfTgGgIgiAIAkgTeLmKDblFhjHZ6JgoRyo8c6BaCtK5Cw/1VT0PNTj7XOm+56TP2bLlYgLopPhGruhGbKwDEA1BEARB0wnSLkeaG+somY0uDdE2qKalWgK6OmRIiw+lRYf0cwTPw5Mchytt7lufBrNUznkKQJeEZjjREARBEASFFAJpbts7Scu70Njvppxonzut3GguTKfGO0ygVm70cCvISXd9MEsF0HsXfpAE0FKQ/tbfjG5zgTQgGoIgCIKmV1ScFpuP1qcZhkDabHdXsqjwWCJMq24dob7NJVxpKm4cPgcGSHNhuquDWR55ZP87CKCjM9Ap0Oy6nRLpAERDEARBEEBaGu0wQTp3rEMKz8cyw7QO0bGOtGqLJ4Fp1eruqfMtJzaerLS5f5ST7txglsf3HI4C6Fh4pq1tSUAaTjQEQRAEQT5RDMAG0rljHSlt7rggfczztWNMyFZFhpwIhWvpfaUlIE3fQxA9AtKaKy0B6c4UHKYAdAikTWh2AbTte+BEQxAEQRCUKhrg4QJpbv/oXCAtyUYfC9yOBWk6FqrQkNMlI1dvaYp0KIgec6SZMD0E6bX9b30wy20PPOccpJIC0CHHmbNCMA0nGoIgCIIgjqjDQxOOtASmYyIdxyJB+lgg1hED09J2eCZED2FaAbRRcOjLSqtYSWuDWVIAWuI+p4I0nGgIGurJ/fvPev4vX9miVlXPAEEQBDFB+uzBT7ggHTOIJacbzYVn8/YxBlTTPvrcaEnEQ5KVJmh++gIPSAvjHbRtejDLebffvys7QIciG3CiIShZL7505O4XDh5ZHa6XDl2KowJBEMQUZWldIM2ZapjLjZbkol3gfMwDzq7b+paOQ8iNjoFpH0TT7yGIVis13qG2TeWkCaBP/cqzb2YH6FzwLAVpQHRXwG5lZL10eCuODCAagiCoVyDti3ZwYVoH6FSQPhYJ08cCAG260WoISg6Q9hUd0m0doq2udCRIFx/MMrvzhsGerx7P2oUjNzhzIx1wojujNZhbHgG7tfXiwcPfwZEBREMQBHVS1CZN4kib+WiuG52rU0csQIfgWh0DjiMtaYnncqUpF21CdE6QppOCIoNZaoDO5kDHAPFf/6+8bjSc6NZFuVwToNX6s7/41kU4QoBoCIKgboL0zMxGE6Q5hYbcQSwcmI5xo49lgGn1s2ok+HAc97n5QNrmSH/0XRtW1ElICKZt8Y5QwWGJwSznXnfz1YOnn/mptZVdLEBzQVqBs2ub24mmxwKIbkwvHDy64ILoF146ugtHCBANQRDUaZAm4CrVsUNaaNi0G31My0ZLQDrWlSYnWnfzOSA9BOpA5w7bhMPUgsPTrtq0afDUs696e0GXcKAJkkMAnQOk4US3JuoMUWega6g7esiIdqzgKAGiIQiCegnS0qmGJR1plxudY+lutAnSObLSeucOE6I5IB0T78gxmOWcLVsuJoC2RjhKALQOx+ZtfUlAGk50Z/XCy0e2jQAd/fulo7v0rz1/8PBVOFKAaAiCoM5L6khL2t/lcqRLutFmPjxnvEMHavqd6nj9xcUyV1raT1oVHEoHs5y5+YqLGnOgbcDsAmgXTOfKRAOimwO6g4e/owH0m+RMUw6abmugt5j7ftX9EKATRObqlVw562u/r+rBXP9u6stcbP/r+5H0e+ZANO1z9Tjqx1Bs39cW3UavagiCJkY0vCNmqmHTre9yu9FqkmEsSHNgWkU6CGp1eJbGO0xH2peV1u+fW3BYRUD2LvygOEBzYTkHSHOjHIDoRlTB8kgG+uhwaFAd6xjCtRRECbwJ0GtIn1dfr6Bw7f8ZkK5FSV75kBiaKze9ynUvO7Pd9P9eOrorBajpvtYBeG0/rfu/Hn9Z3xf34/BBdP3/lu2/98hiSqFnfZxc+077fQhXHSAImhiQ1oGSm5FuAqRdLe9KudEl4h0E0boLHXKjx0Ban3Ao6NzBKTisXKEaoJ2dOPoO0K44h3p8gOji8sU2zJgHwZ0Qopd1OK6/Nu+BXH0tcpzRCsjdMGtf9P0R/a/pZ0az44zlKMq0QXR9QrPE2n/hiUZ94rIs2PdFONMQBPVe5FrGgHSOYsO2Yh0uN9oE6lRHWneibSAtKjisYx0+mDb3h04WqMWh9Yl/fM9hL0DbQLoNgObCtCvOASe6XYgehcKVMYd39P8vxf/uo4dMYKf/X7vUyy5XOnwfr3zIDpkVMKq14oDRbbEnG877Mh8HE6LrFoPLFufZfmyqEwFexKM6GXI6z95jtASQhiCo96IcbVdA+qO//hsnPrbtMz+nLf1c02601JX2gbSCaH3FgLQ0Jx0sOCwN0LnhmQvRkqJCQHRx1e6kF/jGWt8Jsrlmhw8dzggaTWCvwJIJoSZEV7ER+nnH/tWQumiCKCcaMVZ4Wd+fLfZAj6M+rvPrEx+ZTvTJY1X9jLlf9eNclp5k2J36owvm8ffcxwLeKRAETRxISwaycOIdHJj+3fddvPpb931p9abfe3S4JaCmr9P35ARp1alDnTCEQDrGlTYh2nSkCZZLde4YcaTXHuew4LAGaFEOuusALW1vB4huyoVeDAHyGGhr2Wahyz2ET5+7OQZ9AdBVBYTsfRoHYu/jsRRYsvtmqwJHJkTXAO0+SakKDY1j6js2Y1cSGDGQ6mRGLzRFZxYIgiZFNEqaO5QlN0ibAG0u+jq50/szwjQ9Vh9Ep+akqc2d6UTb3GhR5w6j0JDrSNOi49c5gP7+D+UwnVJUqD9eQHQxVUA2CodLXEc50olmFydaohPzOR+7cfKw4v9ecwhNHmfWBtEcWLW1I+TeBzfTboH1RbxjIAiaCNGlfxtIl3SkCQB9AG0ucqfpZ1Jh+q9qMA2BdGxO2hbn8MU6Yjp3KLh3udEmTFcgPbfQHkAraKatflsC0DaYlkA0MtHFJQGssWJAZlGexYlmwbAli5112MtYjtrh/tZdP/QTjZVcGeGx43/w8HcEgMuCeuMYLkv2feQ5r9se4l0DQdBEg3TIkdYh2gXTJkQT/P3OPf/55xx41tdHPntgBKZLutEpjrQLon0Fh6zOHbYWeExXmlz/sx/43ImsAJ0Cz1yYjslEw4luRSNdIAIOsaUN3iHmfSzH56njs9hhp/vQpZyTgvEoS758cKxLPA7H9udi7DEK3XzzREMSmYEgCOq8qKuD1JE2XemQI03fpwCa60ITPJvbFJimfXlK23+JIx0qOAxBdI7OHbYWeMP90/5tRk0IpM+YfeCECKJjHGgXPOsrxo2OKSrUXWhAdDmAHges4OV6E7pZBXlGHjcFMrmdNAj26j7OC+uxjaOHVK9qrWf1Eud3j8VKItricR+fJHesn5y4HOyx2Idw38dOnASdTCAIgvoB0jMzG7kg7Zpu6ANpgl+J86zfti36faoAMdaN5makufEOAt8QSLsiHlxH2paV5mS2aSDM5o/tTANoifscWiGYzhHlgBPdhAtt9GoO9xweh7JwcZ3hRC9L9pHTOcQCpbIezoHfXdINTxn7bRzXJd5zPGxlt8TcLscUU0IQBPUOpCVjwk2YdkU7KJsbE+FQywXT9HX63TEQzQVpSbyDA9EKnqMdactQFm4v6WFOOqcD7XOdOQDtAmlAdOdlyxtz8q6WQsQgFOv3w8386o4yJ45QP56lKHgOQ/Qh/ftyjg4vD9FmQWTiAkRDEASQ5hUcqk4csfENzqKYiCTiobe7k0K0bz1VQ/FfnS8DabMNHrsFHmNMuM2RrkCawDLVgZbCsw2mUztzcKIcgOgyLvT61L2xgSecZTq9oZwsJ3bg3k9eptcE3eHI7ZePbCM3m/aRogkEwGqNZ6IB0YBoCIKmXgTSkl7SNkdadeKIgeiYxXWlTTeam40OATUdL+ogEhvpiJpuGDEmXOWkT31iT7oDnQLQoThHbFGh6UI/9PkTg9vuX8a7OjNEj0NnwvIX2qVMOxxzoi0QZ+lhvcRroceG6AVuT+buQbTZUSVfFAWCIGhi9btnDhZMmAy50sqZfkorJIyBZy5M3/7kfxvZUlaawFQyfCUWpl1OtALpkCNtA2rJUJaRaIdwTLhypc9/8GE7RPvc55xLkomOiXKsAfSZW3e9CYjOq/H2aMnLGwWJ7S9tdcwthW0jkMssdrTCtxOi5dnxzkD0WK/tfPsOQRA08SDNdaT1eEcKQEvg2QbS2x5+7i1yWjmjwCUALXGiuY50SseOMUc6EqSrgkOOA50a3+C60Sl5aD3KMQToXauA6Mwu9BhYVa70vGSZ0+x8XRsk0/VCAGsfUz2ShV6KPg4uiDZBPmOkoTREp0yahCAImnrNnjl4wARpH0yTG8yB6BIATVvdlfbloq2t4xJiHU+dPwrPsdEOsSOdGO0Y5qSbBGiOE83JQ7tc6If/aPUkQNN64Dm8kzNCtNFxISaeYEYhfFln8/6EvZCXQ8M+Rn8/r3e1Bb6dcGxx7rOd1JWGaNugGLwDIAiCBLr3XYM7XSCtAzW3E0dMEaEJzyY4277ma4VHUwalEO1zo5UTbcIzN9ahA7S4/Z2la4cO0r4+0gqkyb2vQDQGoI/9yP/vVICWQHSVgVbwDIjOLVt+uDSMW1rOsSDUUvy4yNiP5cjj4HWYxzLkmfoll4boet8XUBwIQRCUoO3vHHzY50hzOnHEduCwOc0ucDYXueL7z3dHOmIA2gbTuhMtcaGzFxtG9pEeKTiMBWgOPMfEObhRjgeffH0coAHReV3oUaCSuMLjkGvGQlydM4xewwyQq93fZc4gkvVhKvxuIfUAkRXJPo1B98tH3pRM73NlxhuBaLpqoLvR1W1ZNpr2XzIIBoIgaDJB2gKfBGElunDY4hohJ9q2KCet2uB9zygwzBXpMCE6FqhNkFa3XS3wcvWRViBN24s+92gcPEuAOnOU49S7P/uGHaAB0bk0dmk/MOY7pApGGT2jzYmFQehej4osc6cpjg2AoftzwGgNw8uWfQmC/ViBIf188GdobPbRQ67vawKirfdTH//Q8193R5mvn8NFvIsgCJpqbT1j8Ks6SBOIhTLQMflnFzjHLhtI53Cj1b8VRNvgORWkowayBAoNfdGOYcGhD571rVoSNzplyIoLoHfMWSH6vNvvx+XnHC70GGzy88NOODMKDG1upZlZNqIR6/2c113teUfrveUQ7FndblUwWf3uyoFfNiMZEoheH+hi2b8Kxs3izOrfK6Hf3RRE265CaCcSS/X/U/u+YOsHDoiGIAgyQJoz0lvSvs5VOJgDpk2QlkK0L85BMGuD6JwdOyQjwsfa3zEHsuggTc8tG6DN5QNqX5RDOGAlBNCA6IwQPVZId3hrfjAfB61RGDt6qI5qcKcLLnPAsnav+eO+1/a7jnWIs8JRA0w6ANHD+zMdeP4CREMQBCmQDgF0SgY6lwPtAmkFvCrSoQMyB55NkN6vOdEucI7pHW3CNAeizW4dKY501bnDB87/8P/8IJ0a5/C40ByAHtz4+6vn3XTPVrxj0zQGjI5OF1KNjQG3RERs3TPqMd3zTvBdd3cXJPtYw/liYDDMIZVljoVo0nrM4eghBpDS45t3FV02DdHacZpnnnRUMY4cJ1wQBEEToytuvn9XqfxzKYDWQVo5x+RGu8CYm4em23oW2gTp1I4d0X2kzYEsApDWiw298Kxv6fvUVgrRkgmFC18fB2gPSJ921aZNeMf22gFfcUVI1mH6lQ/VMLkevVgDthTAr8F+m4qIVL977XfmHNc9sv9rv3v9PupISv0Y+jAdsC463Da67/3ZfwiCoMZ1wQ2f/EgugM6dfZaANI0otznRIag2v0a/wwfRMbGOUD469zAWF0hXkQ4TnnVYVhBtArQPolNc6D1fPV4BNEGzWs6CwvW1cWZmI961vYbo5Zw5bAiCIAhqReTqEYDmLCRsGqDNPtKqZ7TNaQ5tzR7RpQDa1rEj1K1DOh7cBGmC6FO+9DW78+z7mqtjR6ioMATRDz75+ghAM6Ic1fdDfYfoFUA0BEEQ1GuRo3fdH/7J33GLCNvMPktAWkU6zMUBaLpNEG5CdK5OHTGxDk6hoQuidZCuohyu6IYv0uFzorlFhQZAj7nPHIjGyO9JgWg40RAEQVC/9cFPfWmpSxGOu575vvW2dFHxnA0mQ0vBqA2ifQ60/u9QPjrUrUMS7eC60QqkqzZ3LljmgHSOPLQqIDQBOgTPN/7++gJETwJEw4mGIAiCegzQn/jCYm6AjoVmFzzHQjXFU377kl9cjQFpG0T7ohw5phmq8eASiLb2kPbANEU5Kpg1wdkEaIkLzY1yKIC25Z8lLnQF0Ri0MgEQDScagiAI6qdCnThKO9A2OA5tpSBNA2NUjCEVonNno02QJkjmgLRzNLgBzzpAq9tVazsbPLtgmtuZg+lCO+GZA9HKhQZETwpEw4mGIAiC+ifqsdsWQIfgmQPS0nx0CkTbRn7n6BnNGQseC9KmI61WVVAYAmgfSMe60L74htSFXlsX3rLrbryLew/RcKIhCIKgfumcLVsu9nXiKBnhCEFzTpjW95GK6VKcaDP3HPparr7R0f2jLUWGbBfaBdK+okIPRG94+MtvDAH6vv1+iHaBtO5Cr63Tr37/B/BO7rdoFDgt6getBp1AEARBUGcV6sRRCqBd8BwD01JXmvaT3GhprIO6e/ic59TuHJJsNKftnavQUK3zH3xYDs+hSYW2rhwaQFfwrMA5BNDsosK12xAEQRAEQU2KOnFQTjgFomOiGyF45q4YJ1rd1rt1cIBaj3OEXOiUSIfNiea2vOO2vava2sU40ByItrjQp37l2TfZAC3JQqMzBwRBEARBjQO0pxOHxIHO4T5LoTlHpEMVGeqDR3xArU8sNMHX1s4uNg8dmmIY7UZrTvRFn3tUDtF6lENSUPjgk69X0JwDoK1FhYBoCIIgCIIaUo5OHLkc6JwwzQVptciN9oG0vlXdMiTdOErFOtRtjhttgrTYhTZBmjmh8JQ/+dZJ9zkXRJsuNDpzQBAEQRDUlM697uarc0Q4OBCdG55TIh227iG6G20uBc9q2SIaLkjO5UK7OnXoTjRrLPi5J4sNxS50TEGh7j6XdKHX1nm3378L72oIgiAIgoqKOnHc9Lm//GEbDnRJeObCtL7/atEAFhdIK5imPHQIjlPBOSYbLe3UUXXkSHGhQwCtBqeYAF3KhUZnDgiCIAiCSuuRR/a/I7UTBxegS8JzrBttA2i9U4dvKYguDc7SdncuJ9oF0oPFA2VcaL3zRgmAdoD0mVt3vYl3NgRBEARBRZVaSNhFgI7JQ5sgTY/7ro1xEF0ankODV7jDV2jRyUKyC22D6M8++1q1XAAtgWgmPKOoEPLphYNHF/jryDyOWEeet5cOXUp9wl94+ci2F146uouem/UleT4LrbX9wTMEQQBoJ0SXAGgpTP/+nx1r3IlWBYb3nX1KBcxq2yZE++Ices9obqSjKiaUDlYxW9sZ8EyFg0N43v2N1aZdaBQVQk4Ye/nImyenHwbXCo5Y86IroxUwr5/ILAmer7YWTtghaBr1nls/c2dKJ46SDrSCZh2eJSCdw4lWBYYEzyZAq3+3AdG+OIdtAItrRRcTqmWO+aa2dRx45kJ0CKBdLjSKCiFAdE/d5gqcV3oAzoBoCJpmnXbVpk2lHegc8Exb29ekbnSMC61HOhRIm0CtekS36UD7ANrnRifFOEwXWkU3CJ4VQKe60LFRjrVFhbJ4l0OA6O7rz/7iWxetHevFnoEzIBqCplVNjfSWQLQLll0AzQFpaXcO16JIh8pGmzCtekR3wYV2DV+xregYh+5Cx8Bzzo4czigH8tCmnty//6yTOVLhmqDMJyC6W3rxpSN3C58TQDQEQe2KRnqXLCRMgWdzmV/PHeuw9Yi2delQbrQO03ef9bafmcV+TTvQZiZah2pfjCOqG4deTPi5b/xsBJ4lEJ1aTOhxod9+48eRh7bB43oxVjwovHToUkA0lPW5WI9urE7AAkRD0NQAdAOFhFyI9sGzb8U40bGRDjomlIvWIVptP/quDSsu0C3ZiUPS4s4G0zf9XnwOelg0aMJzTojmZKEdIE0QfeEtu+7GO90EliPLaRA9GW40IBoADYiGIChKqSO9cznQIfe5KZAO5aFHQPrd/+aECdIE0VyXmAPZtu/hfM0W49DHf+sgHTtUJQjPOV3oBICmLcWV8G4/qef/8pUtGUBhIoASEN2B5yD1qgggGoKgpnX2NXdc24QDHQLpVHiOgWiOE+0DaDW9kOBZB2mKc9jgNQdYS37WvO0a/R2Tgx7C8+cPr1aLIFltS8U4IgsK16McyEOXc/1e+RAgGko+oet/BhoQDUHTJOpUsO3h595qwoEOAXSOxSkwTO0PbUK0Ki7UF4399hX1hWA5FbpdXTlshYUVQFMLulh49gF07ihHRDcO5UKjtd2o1nvuZmsZtgiIhtJO6HrR9xkQDUHQyT+iOUZ6c3pBcyIcrvXJA//bulLd6BwuNG1VcaFa5EI/Zckfc1cueLbdv+lASwoJK3imokEdnkMA3QEXWo36RpRjDBq3ZYOFNQClLh+AaCgOoGmASlqkqGqF99LRXXVXj20vvHR4a+5V/W5ANARBpJRCwhwRjlh45oB0CKK5eehQn2i9uFAtykPbOl/oIGsDXluGOTW+YRv3rbasgSrUqu6pZ1+1wrMO0Sl56Bwt7TwuNLpy2PXiwcPfyem6EWAAoqFmX4tHFygG0thrpBr6AoiGIAA0A6BTQDol/8yB5xBIl45z6MeI1kfPCEO0Wcznc6pDPZ6ly4T4EEBv+Oa3X6/g2QXOXXKhAzEOWpT7x7v+pOohFrkvXS8BoqGGXosrbeTwAdEQBA0uuOGTHyH3NCUHXQKgTTie/fP/a12pEJ2jM4d5zFSHDj3O4QNpG1C7oNfXZcPVecNXSOgEaCosXPzmP3ld5y4CtKcjBwoKHTCwPiwlewa0SVcQED0hr8WIjhzPHzx8VTv7CoiGoKkWZ6R3SiFhKAPNAWgXPEtAOsWJDvWGtkE0deggN5oWdeggiFaLA9MuqPZlql15Z1d8g7ZWgKaiwlBko0SMI7UvNKOlHVxoJ0QvFyqkmgdEQ7LX4tFD0ghHe8APiIagqVVopDe3nV1sL+hQdGMElJ//B/eygLQUonNGOao4x6//xgkCaHKh588djEC0AmkpULuiHy7I9n2/cqBP+dLX1h3n7//Q3mVDAtAdLiaEC+2DluQiLi9cUsFybx1R5up7/rvHJy+tXu0AREPQFEuN9KapdKXa2SUDtA+ehRCd24X2OdEKoikPbYPoHEDtg2zztrmqNnYvvnISnKWuM9eB5gB0A8WEqiPHmZuvuAjv/DEXerFoW6+XDm/FUYYmEUoB0RA0rQBdFxKWBOhQFw66rYA3Cp49IJ07zsGFaDqemz+2c/W9F1+yqkO0vpoCai9AP/jk69Gus6QfdBPdOJgQjRHf46I2dBEDLYTRj6OHcKQhHpQe3tqnfuSAaAiaQtFIb18hYWo7u1gH2gvPL756YmQrgOhYgOa60Aqa1w7t2Nr49lOP3/jOUYjWYdoH1bmBmuIb1ShvHXB1EM4N0B0pJlz//2hpZ1NEn9sVKuKSutHUcQFHGwpDqbCocO37AdEQBDUmzkjvkg60L4f8sT/+76+5fg/9rBeia5BuMs5Bx8kFzzaYpgLDCqDXYFbf+pzpXGBN9/Xe2+e6BdA6SPtgOrWYEDloNwRIXeUaWsSTDVuGHag3r8f5PkWFANEQNEWikd4cBzp2KiH9v1/ZvvctWld8YuGfr/ztP31NrffdcvBnv7z9e69t/th3V2n92p3L4kU/71p0f7TovtU+clvbxQL0We8+iwXQ+qKWd0OIVsv4dypUP3W+xX1WUJsDojkRDm6MI6UbByfGsQbQmEyYDQBW6WeiYAfwAPEgWpjPb743NCAagqZQoZHekhiHDss6JL/vd15aVZBsLoJgKTz/p3v/aey2/jXfovsiuKb9UvtoQnZslEPiQNvW0JH2gHQMUJtgTdlnKqZzQm4MRHMz0E3loAMuNLVwxLvfBSxHF2KHp8QAeFu9fKFevSYP9ek1BYiGoClRaCKhz4XefNcXVhUwX/Fbz64SLJvLBc8mQHNAOgWeTZBWW3NV0F8DtoJreuycgkLKQMcC9KCOdjx09kl41m/bQFoK1ATP1T7a3OcmAFoa4yjRE3rt/5173c1X453vPqmWRjLMNm4E1X3p5wv1Q9Jx320P8wFEQ9AUiAoJfZ04THBW0PzvrnnsTYJmFzgreJZANBegQ9tYeB4BacvjUa41PXYF1jliHOaizh0VPCuIdkU8PA61DtZ0mwXPMSBtfi8HoEvHODxRjjNmHzgxmN15A975vj/+wi4ILx95kzp5jACPtChx7Xf0tWc0BIgGREPQFIpGeocAmhbBF4HjJb85v6rAWcFzCKJzRTjGgfnHVniWRDpcQG2eAJiPSz8GCqpppbrQan349HWI1kF6BKpNgLbA9FP1xEGajjiEZz1KIQFoG0zb/n8OgC7Uzq5yoB/6/InB43sO450f+OMvngo33kosqj3ey0e24ehDgGgIgjovyoP6CgkVOOvAaK4UBzomwmEH6B9HO9E+R9oF0PqJg3k8UrLQA0ukQ1+6K+0Davoauc7VvigoNXPI+lbiRLtc56bGesdC9Bo8n/rEntXB3oUf4J3vF7WbyzUwRVoIRpCEZwByn9zJIkKAaAiCisg30pvgWTnOpvMsdaFdIB0Dz5wlAelYeL7wtx56S42Jfvsf/ObIygXRtEyIti0F0lSMOHScTXA2lzTK4XKkm4ZnaTHh2paiGxu++EerFUA//cxPqQMN3v2hP/zCXrwHj6y4f5d4OMawwwfUT9EVCDoRUwtO9HRCtP46oONA/zYjXxDUW9FIbz3CoSbpETSrFXKgfUWEOTpxmE5zLnjmutB0DHRQPvX+LScGD1++6l3XD7JB9KfPGodmgmVymWlRa7oK2gkadRD1wTPXhXaBNDf/HFtImNrOrr6twzMtuo0cNNvtE04cPDIf+H0rOX8f1L7WC09f+VB9wrVYv2Z8z/NK/T2LKZEdONHdA+XqdbDe0pLzOhi+HuoTokV6DdHzhHoIqD8A/YkvLFbQfNcXKnC2wTMHolNz0D6QljrQOkzHFhbS41LQXAHzk7+0OrIIks3bBSFaQTIteo6qTK8NLjkAbQPpWEea+7NcgM7kQlcFgw99voLnwd69Q4Cmdd7t92OYB0Mx0wZDoBLRKm+lD8eKCie5q4msN8GMZJ+kLjEBU/WzBD/yUfDW/DyBk+g4RpzgSX6/974jBrdMIkTXj2k+4rkIFhbTa4uOdRcca/Frs6XBPvSZHfN6busEkz4Lu/S5KRYVElIOWgG0Ds8cB9rnQufqxBEL0BxH2gRo2l+CLwLnMWh2LR2gTZD+2Blv5gDoqsOHgkYdIGMhWgrPtqxzCkAXLCak528977x3ZCmARiGhyOlbzP1Hnz6s5X9U2x2Swfxj8GaXTgxK9VBeh6a1E6E0cLZCdFT+vr21NK0QrYAyOzj7W14ear3Pt+QqWkvdhRKek8Wm9zXi/b7UqTfCmZuvuKgCaAc8dyEH7Y9w/FhbaZEOGnE9As7P/Ec+RIeAOgNEk+tcDULxwbMJ0LnjHDHw3IQDvXZ7CM7PPHNy2QAahYTCS/RlxnVHfNAvdv14TTpEr1+qF19FAERPEERXnwnrkZ2VNo97WyfVUlOhaehff49GH9fGr/iJ254y/740F+P41JeWVJu6GIBO6caRBtA/dixZnGMEngma9aWDdCpQX5/BhSYoXDywvqXOEnd/9g21GnWipYvbyk7oQlePm9rTESSr4xIC6Kef+SmdOAKP+ZfZpB/E3Muu4mJFS99pQHRzEF2/FkqBU18hWgy4fYboOtq13J3jf/RQ7kLVvkNfzGd2mzUDXT8p8eryu/Z+1wXPOVxorgMdykH73Wc/RPucaCc8h1aMU70G0ykDV05/4FProEjr5ZdPbtWif+/56vHBg0++PgLXufPQKQCdAM/Dx6NDs748AK0gmgAaEwnFH3DSCYOHSjom5gREQHQzEF3IfYYT3ROIrq9ILXbyOaD3XIM52a7HD5Kfp6ahXxiP6cyH/aVXP/H1tgA6Fzx/4FP/OrL1gbS+aL+i4NnnVDNWVZgYGeMYAUYdnmkdOnKiWt/+9urI+tu/HYFrtSoY/eyzrxWH6AgHeuQEgPZXAbN+suCDZ58LjU4cpf/Yr0oLaSIGuHS6yGrSIHodnsTPESB6giC6fj6Wuv9cHF1oKn8sdeObzEWnXi1qsi+/vDaGb9IUFY30DgE0t5iwdDs7G0ATNJvLBtE2F7rq1pAKzylALXSkq/01wdGEaFomQCuINtffHzu5asg+9SvPvkkubQXWTz37arW1rRR4rqF9BJDrteHhL79Rga86EVBb8zGax8EF0SgkzPVhPF96RHdMz+i2W5RNC0RXhWPCHswpl+UR5+geRNfxjZU+ndQ0EfmSX5lpJr8dZXy0WAwpjvR1IQ9NnTi4AF06xsF3of0APQrRdhea7nPEfT6wZRSCzX/ngGrPCoE0uc9VWzYbQJsgrYOnDtA2kNYhmtaxH60O/vFH67f/8UfOteHVfzn5fSasr933hm9++/WhI64vfR8UuOtL31ft91kB2gRpPSPuA+gvPo2Jd404GkcXIi8TF78fQLQcohu+fA8numMQXbmE+bqvNHpiUxqk5bnjZj6zxHntlnPH4s+ntg0UmszmKyLkOtGlYxyjhYR+ePZBtPp9VfZ54YMnQZm7zQXYNpC+YfDG4NZB1f5uOOlwbVXZZwWEOij6XGhXlCME0Gp54Fm81O8z78O2P1yAdsU4GMWE5KzTJE4gsfTDrRqW0MgHb0zP6K4OYZgUiBZfhZheJ3oiIbq+zF7SgV4pDOhLJT8jIuo5lpv53M524js/jZ+XQcfnyt/+09dyudDN5KB5AG2DaPp9v7z9e68N3WcbKNtWCKpjgVqPe1DHDgLotbVh9srjFfSZMGgDaGke2gbRNphmONHR8CwFaJcLHRHjoIjKaVdt2gQkLg9fKR9wMcNc2hpiMA0QHdfD+yQsrN/n2okRXapVax3K5+v9WWFA9FKdOw1v5TC2zP7d4a247WLXIbo+/ivZYLmeSOmaQEhAqoaDVK+PbHBdNj8rzUU3EzPJ9rwVL4aM+Nxvt8Upp5CwzRjH+DAVPkAPCwxn//UtAmdamx//H+uurgnHvuX6Ho5bLYFpGr7CgWhOFtoF0Fw3ug2ANuFZLY4DzYxxYKR3ossi/UOWmFWTt83qSIHJhEF0fQViWZKfXAfmw1slkFC/xradhKb451Oa28bY7+B7cSkHwMbmgLMOcSmYoRVfQSvcQSTx5LfxYkhpHrrVzkzU1osT42izG8d4L2g+QCt4JnD+4NdfX/2VPX9/4u1//CEZQHOX/rvM29ylohw1RJ/ypa/lh2hpnCMGpH3wLAVomwsdAdBqYaR3vKJydWtg0OQHKq2m+8NOB0SzAWqFXic5/tBWUJkAGFLoA0RnBEPLvubK0w6HuiQ702WK+uRF0WVz0TGfoW1e7ROfrCX+jUkSpx90Sowjdax3bIxDuc6/9uX/U8EzLQLpYf65iWWDagFEV640J8phKyj0RTk4RYUpIJ0boDmFhNwYBzpxNHqZMselv6gcbNcmV00GRHeqlRic6OYgOoOTuVjidVEfrxRXukgNRQX5HXq/53+vl4P+rh07r86+5o5rcwB0qbHe4hhH7Tq/7+EjJxQ4twbQHLi2xTkUQPsgmuNE2wC6tBNtwjO3iFAC0Ck5aIz0bv4PaabLlBHt1DrXM3rCIXqlrVHLcKI7efLc2KX2DP3K57vw2ivlpoqglP8ZtVzutSYtXG+xI1OOLHRzQ1U8AF3DswnOalURjq4BtAWmqwz0dg9EcwsKc+ShfTCtQ7Xr/5VwoCMBuloY6d385dyMo7hjxtV2agTsZEP0SquXU+FElz2GKa3RGpoWmATS9L4s8PqVdrEpdbIhLNKbbzsyFzGDYFsrb9Z3b958WRMudM52drbIhs11HgNoPQMdu775q/bbOdfHT1mp4Hm7tvTCQpcDzY1ySDtz+ACaA806PPs6cXAy0JIctOlC08AYFBJm+CMlru5ezHr/4vxjt3pGTyhEr3R6wA2c6Dbe9422QjP2NdYxz97doSsdJthQWpsebcOr9Dlsrf5F4kK3143D0g+6dp0Jjn3wTIvy0NEArUDZBc++/x8L2TpE19ux3tDcKIekqJAD0i6g5iyJA+3rxMEZqGIANDpxZAPAbW0X7Yj7nDY4XWtqIbqj7QThRLf5vm+vQ05SC77MbnRXsr38E8n154wPsflNiq722LYqR1/o2J7QIZC2xjgE8KxWMkDbwDh2y4Xo7aNO9Hov6wxdOUJFhRyAli4ftLsAOmM/6GqhkLAVGCnxByFmyEtrl/qmA6Lnu/66hRPdrCuoXrttdsdJAP+Ftj83c7/+JCCv4iSCOEX+z/iOdTVxilNQyI1x+JzoHC50DDzTEveBlsCzeTsHWNM+GgBNq8pJS7pyxBQV5gZpX3wjBNAceOYCNEZ653R3ulKss9J0dxBAdL8mQ8KJzqOoQUcdOXGNOOkvcuVK3Fouc1chkfFQO/ExP5PxM2mhF1fCOFGOtosJY+GZ1kWfe5Q3gdAX3/BBswnQocUBappUuGMcoqviQldBoSTKwS0sTAXpnACdkIPGSO8W/xAUhJGokdMdKXqbKIjukMMPJ7rYsYsZE92JrjjRLfkyv67l+5E3BhPjKse4121d+Whi0qNVoShH2y3tYuFZtbITAzQXpHMt2308eslrFTTvGF9Vrpcb5aCloJQL0NwOHSnwHAvQETlojPRu/ZLucocgozOxgwmC6JW+vHbhRMcprpC3Wxn5mJMAer20evUssxsu+OxejHzfZCuGjLji2c5VRmrzFZpQGDtYJdWF5nTbYOWgVd/l1Ax0E0vdF+Whd9ghuoqmSPLQqXEOCVBz4DmXA82IcaCQMPcfAHkOuXRf2IjRw52AvkmB6FZH7MKJbgSi5dnU7p1cxcZRcrub0vdZrtacKZ02BFcfVzJ+Pm7rhTlyxc3372pjvLcPoHPA8zAHrQN0DEjbALeJ5YHokVx0Sh5amot2wbQNujsA0Bjp3Q03p3RRUVzf2vYHgUwKRHdxpDqc6OyvDfmI7y5OCY0pjMzspkd8Xs3neS3xT4TM97QkhpLrPSP9W9PaHIBQHrrJlnYEz1fu/MZxNZpbH9EdnYPWF6ewsKkIBxeiZy0gPXuKHaIlLjQHpF2A7IJrDjzHDFOJGOmNThz5VTkZ8t7Mh7q5X2V6sE4bRJe43A0nuosQLYfPLp5cxdRz5O74EPGcLmV6fy/EvoZE/cEznTy1GXsRyZeHjo1xhNrZmSCtw7NaKQ501Q+aJhKaAJ3qRMesV37dv3UtAuUhNBtbW6TDlYdOcaK5IB36HbEAnVJIiJHe3XB8G8pEigEw4/TEqXaiO+g2wonOq8huPMtdfP4jayiW87/XZF2FcgBiar9n7udDjhNr6fPU2sn8xstmZkq0tOO60ATPqmjQBOgUkB6JcdjcaI4TnQLSIXAObZ/8pZPQPGsH6SrSkcOJliwpOEsA2gRpSYTDUkh4zpYtFwN723Xxmmx7FpPZbDvLOwkQ3bVR6nCiSwBfRD/2DvcMj3HVs7e6E8fi0uJnohMhh/HBNlEyuMJiw6atk/kLbvjkR3JnobmDVcgBp9xzTnimRb8zGqBLwLNkqZ+hzhwmQNuAWjmyvjx0Spwjdfng2QfQGOk9IQ5Os43vI3pGt+qW9R6iOzYBEk50IYiOikC0X3OQD2Dzvw7kRXNpn6WS+3NdoZO8FlNPrsXFl229T1156JRiwlA3DhXdMN3nXCBddeMgJzcnSHOAOhWg9aVDtA2g69vV9MKUzhxdBGifA42R3m3+4ZnvuksZU/zUJiRNgBO93MPXMZzoBqCz7ahUXoDN3y86IiKz3NBzuJTJqJhP3N+VLl7xzArRMS3tyH2mvs02gM7hQlfFhD6Aji0wlDjROda9v/ATK0Qbaxjp6JITHYLnGAcahYRdgI/Ou7xxAxVaGhM7GRC92LfXMZzoqPf+cp9b2+X5nMgfT2lykEgu+M0F43mfn/LF607ZigpLjPd+3y0Hf+Zzn3OAdFVMqLvQud1oLkD7YPqvf4O3mBBNq8p/+4oKfRCdG6QlAM2FZ24OGiO9C/4hj+gR21JGLeYPflsuxgRA9HzvXstwohs4gW4RahiqO02stn3CKL5yFumGy15D/hhOjlhIeH9l8aHWaltoBLJtyEruLLTuPqsVAugYkK5gksBZLa4bnSPOwYlwcAFaCNEjbnSqEx0D0+bviQHo1EJCjPTuGly1Nlo7Kr/Z0lS13kN0zzpzwImOhujeXN0peGVtKf9zKzUn4o5rzoLAHAWKud+jbf2tGZx9zR3XlsxCEzwr9zkE0Klt7ehnRwA65EbrTnSOSEcqPP/PD4xuqb0dQfJOY7lAmrLALoAOOdEuNzoE1FJ4lvaBFnTiwEjvchJNuepA7+CY/W3LOZuAwsJtfXs9w4mWKaq9XQ9OriI6DS134LNqpeT7mvu5ndoqL3iVoGOfi07ZJhXmyELTVrnPHAc6R5RjzIXmgDS3Z3RMYSEHogmYbYt+hiB6pwWiHUBdudEpTnQo1mED5hwAzXGgTZhGJ47uO7stw1WMc97GYIj+O9HtOPhwopuDvaj8cA9OrmI60RSC+eXSriv7c4Z58pMytCX4epOPZm+vLsMsKszhQiv32QbQIYiOBenKhX74cjtEp8Y6pJEOrhPtAmhadD8hgLYA9Vg2OtaJdm2l8FzagcZI76Ycm2XpH5vWh5j0JMPd/0x0d9uYwYnOBNFyqOnF6yKmk0+h1+N8yfxviXHdKePDcx+PVk/YpBAdGu+t+j67ANoH0Sku9PkPPuwH6NQCw5RMNBeg/0ZbtD9SiN5ZjwI3s9FciJbANPd3FXSg0YmjGUVWsbfesUE0olaDj6YLDAHRcKK7DtExg1b6MIAnBqJLfD5EHN9F2euHfSWR/fkiiqEIIVd6ktvqaHm9M0eSC02dN7T4hgJoSZQjxYU+9f4tJ7xOdA6Yjs1GcyBaA+gN3//A+n7+weDnI4sJ0lXf6FQ3OnXFwjN7nDc6cXT5D01XwCqqZ3TTfa17DtF9m1YIJ7qZqzr9gGh53/sSV9hKZ4D5J42yuhDBFUo29EdkxNvtU2+2t5M60Mp9vvLTL7ylO9BSFzqlM0flQiuADkU6ONnoFJDmRDkCAF1BNA1a2V2DsQJo9W9za3GjR4oMJRAdykrnAOiYLhzoxNEnN7cz/WHjLkM366IDouFETyREt3zM+gTRJU/sJIAujYkIjt9Kuddai11gNl42M6O7zzF9oQmg/8MfvrSqw3OTUY6qLzQ5rwTPOUE6NdbhA2kHRCuAHoPo3QyQ1oGavteMdegQLYVpKTzndqAtnThOv/r9HwDiNgJ42yIgdKVuxl+vCspa+vfabRmkNj7GGhANJxoQDYgWF2+zCwAFURFhwWKJ3y2+ethmYbPZ3s4H0mMAfcvBn13xiYV/Vu6zzYVOiXKEgFr9f7rfIUDnAulc+WiOG20B6CFEm5CsYFrf2kCa/h/1mKbHQVCqw20JgObAc+w4b3Ti6JVjNzGrwUIVQDSc6M5D9MRmouUQXeoEW37VjBe9KOEWl3S5m5zgmKwLb9l1d0wWmtznS7d/sQJYE55TXegQROtfp9tVNwoTonWAdsF0CKBTs9GpEP3pwb8MwVmHZhtIm7cVSO8brD/WUm60CeeuEd65HGh04mhUUb1hJ2ctNfaHHBANJxoQ3dLroBvdOaI+C5hXzASv9cXC76Xg7+9dHlrvzOGLcegATdMNVf7ZBdE2FzomD20DavNrw4JCH0jHONI5stEmTEshWhUU2kDZtszvpd9xYLA+Bt2WjY4FaRs8h9xnXxs7JkCjE0f3XZqJWg1NwAJEw4nuOkRH1Rb0oH94HfvqDkRnfu+V7KBx8rXJjKEwemxHxAfnW4foUCZad6EJoCn/7APomIJCCUjrW9oXJ0BLoh2xhYbSIkNXLtoG0RTH4MKza9HvWIPoIUjbYh1ckNa/n+M8h+BZCtB7F34ArG38D8zKVEN0Qx/QgGg40Z13ouX3Ly5Sa8mJPtSloumIoVbz/t9XrpdzzAlW6H0kP6lpuQuUcqKDcY5bDv6MAJqguSREhyId5tedUQ6JI52j0DA21uGDaOVEx8CzDt9z6xDtBGkTpm1b2woBdMYIBxUSohNH039c5JdvJ3A10mUEEA0nuusQHXGZvS9jv5e7FB+I6Mm/FHgvLzTxuHJNQ5QaN0339B/T5Xft/W4oC0355/fePlfBswnQuaIcEvdZv033741zcGE61zCWBIge686Rw4mmVUc6giDNWRxwDsGzpIjwiT3ro8y3D14E1nb/MudkrvJOByAaTnTXITriddpu67FCV9vo5Ktr++QDSf5JQtpzxf3M8B2/iNf4UusvIAJknwtN7jMVECqA5rrQMRAtBWm16L4USAfz0aVa30kLDRlu9FhhYSaIjgJpLjxzIxzMcd4VQM+ujzMfbB0sDKBGVLlO4j+YE7uK94wGRMOJ7gVEy+NdS53/nOvi50GmSIOoMDwxvy7JRbugn+I/vcpD6xDtAugr7n3WCdCl8tCuf/uWDtLJ+egShYa+IkNHNrqC350ZnGhac6MQPVJsqAOya5sDnn2jvC0AXfX+nlXDY+otHOlmAEP+YTbRq3QLJUA0nOg+QHREu8uVLr8G4ooly0dU5J+/dhdZUqSX+hkneX26Pi+kJw+d+NxR0wptAE0dOHSALhnlCIE0B6jpfgi8gjCdWmgYAmkXTAuz0cM4RypA6270QQOmzT7SUnCOAWiGA11l3WfNKYz1WgPp1nNQE66InOBEr9IFUoBoONH9cKLl7eBii9WaOabiIr5GOo7keq4FULqU6e/GSoqDLLrS0fBALKuoUMvlQBNAmy40J8qRWlQoBWcdoNViFRuWdqQzxDoqiI4F6Dljq0c6TJCuHs8zq2JwlsCzD6LNIsKHPn+imraoJjTutMD01sESCg078wE+DatoMREgGk50L5zomCtUDQ4tKv06b7TtpTA6Y3OSU6E2Yp+joV1eUMkbNFMWouuR3zEALYlycPtDpyzz/s5/8OFmWt/FRjt8IF0XGQ4h2uwVzQVo82sE0t/UIPrgydsbXjjr5xu++Ed54TnCgaZCwgqgdxujzm3rvsGrAOkif1gW5JB5dIE+BPuypABVGqIA0XCi+wDREZ0jOl1cKM54M/oct/Y5bJys5IhXRHyORcdHSo08L6rTrtq0iQvQKVEOqRMtBWzzvtQ+0OPIEu1IKTaUOtJ6tw6CaGkmei7gRh/U4PnguDM9kpNOBWhf/tkB0FUhoe1xuRxpAum1k0Ggbx5VI1wjekO3DRglP+ybgAFANJzoPkC0ZMRz13PRMXnoJjpzxH9GjX4+sa8aZIxFpBQyij9zuvA35+xr7rjWV0RoArQO0r4oR0omOsV91iFaLdrXqkCtLUc6pvWdAmkF0THFhXOO7T4Dom1QrXLSrrZ1qS3sHABdPU++x+QBaTohBALn+EPNb8zfmbGrDcJAqQweIBpOdB8gOua4dfUkO+qKW4PuZ0TnkJWY93DuE4OYlnoRn8fdODG74IZPfkQH6BBEx7a2KwHRLng2ITorSMdkpCUdO8xYh+5Em9sYiJ5bB85hpMPjSlO8o8qWm85zav6ZA9BzgeExNpj+9OBfTr/6/R8ABjcLT30ZqOD4sF/sSlERIBpOdF8gOqoYr4ORjj5ccRMXeGt5bfbjy/z5HTPcJeKqwGInXkRX3Hz/LhOgY6Mcvjx0bojmONAmRNM2WHBYypGOzUfrTvROzYmWOtI6SNPPEih/U1seoH77wgdPgnGq++wA6Op5Mfd1txCkZ9dB+tTrB7cAhRu4FNeT6vvcrnupy7mAaDjRfYHouFx0uas4ke+3bTGPoetuueoiJHmOcr+uY8aMU2FjL8fJV040E6BDUQ6fC50ToiUOtAJofVHBYbGBLKl9pE2QtkF0bKRDX5SNPrRhFKQ9ML3hwDt+XmWlCwB01YnD3MfdTJi2xjtOOQ6QbtJh6vYwBZ9i898lThoA0XCi+wLRUQ5pl8BnENvCs3k3PeJEf1H4WZ79s0QUQ6mLIcWF3g11SBFDdEqUozRI+1xunwOtL/V4ggWHpbt2cAsNTYjeqbmwMcWGJkTbQNrnTK/tf+Uau+CZWUCoALqCaDrOcwP3CgG1A6TfduOglxGDvv1h6dIfxiacnlLxFUA0nOheQXTcCXcn3OjIuo9Wnv+IybErstd2mTZxgr8li73NQ+sQ7XOhc+ShFUDHgrQPnmMgWj1eb066pCPNjXbYIDpXNpqWAmkbUHPy0twCQgOkFUBXJzI+gOa60gDp9Eu0MZO7Gpjk19HHnf1DHBANJ7pfEB3ZS77l+on66tNyn4qnY16n3M+TUiaIIJ6xQiPLe5mHtjnRKXnoUCY6BqBD7jMXoPVIirmSQTpmsqEv1qHDNEH0rAMSY2B6zuFGc2HaHNSy9vgqmI4A6Oq479P2Z18BkN5ZDWVZGECcD73FiMubhybkscsLjDJDIyAaTnSfIDrmNdKFS/FxPfDbveImzQuLnpdCz4UMjIWvoy4N79Gd6NJRDokbHYLxFAfadKNpm1RwWDIjrSA6BNKhWMecA6b3DVbFIM2FaQ5A7wvAsxSkXZ07ANJhd0be7q3Tk8jK/pHK74YAouFE9w2iIwsMq/1qI9YR4Xh2IoYSe5Wwzc+R6L8pfStk58Q5TCCNjXNwQDr0szkdaP1x0zpj9oETwZx00yPCdYi2wbQ0H20bvuKCaClI1zEPOoZV1tmRga5gWwfofQwnOgdIbx+8CFx2Aty2CIB+s0vV9o3DQObHD4iGE903iI45hm1dxaqP3UpvIyhFgLRsoWTMVNjezSQIOdFmV45UJzplheA5BaCH6xML/zx4+IofBl3ppjLSNoieTXCkbfEOnxsdAdKqmwcdiwqYQwAtBepEkJ4U8OvAh93ihB2D5TadeEA0nOg+QnSCG91Yt4skgO5IMWT8yUp7VxIjr/D1q984QXSOokITokvAtA+ebRGOGICmYR0bZ2Y2Dh67/O+iMtKxOWlXrOPRS14b7LBAtMuR5rbB02GU3GgFyRlBerjW7oPc6bEIRwikczjSNpjeOliqnmMo9g9zvV750GQdh3bb+wGi4UT3EaLr18pCAhgtloTUGvJXop3cQsOVGvp8ajUWUSSG0pHnQ+REcwC6FDzb4DwlA22F57V15c5vHKcR6CMHZ/a9n48uOPTBtKQFHt3H7MC9bG6rtJc0fe8Bo8WdD6JjQPpADccHmC50rpy0y5G+b/AqQDrJLViZtOMQO2gmV2EOIBpOdF8huu4LvJJyib5EgRsVA6bFILpTOJ3m+Ld4gpU5htK5blAhJ5qbh24KpHMUEdoAmo6D9QCtgfSGx9/3RmudO+j3ECzviABpSdcOcqMPDuw9o0V9pDOAtASmU4ayEEhfNjMDiI7543d0YUKPRUysZR4QDSd6miF6fd/iei/rNQb0XsoBSTVwpuZxV7oGbIknKu1EaWI7uPRlsJeCaG4euok4hwnNUoD2xThs6z23fuZO3zGiiEcVq2jDkaatAmgfSM8G2t+FnGmC6AMaEMeA9AEmTEtBeo4J0y6gVo/dAdKnXbVp09QCdI+GDjQCVeRcteTKA6LhRPcZohOuallg+uiC9PVUFd+tf55lKWbr4us5K5A2FIvIHEOZ79yHSM44hw2gJTBt+7kcGWifC33hLbtYvR/P3HzFRc6ctA+mfcWGHJgmkP74KStjIL1D4EpLQNoE4xg3OidIc/tIzzFdd9uxWXvc1YnSVLrQUR/Ky5N6PCKmg2X7gwSIhhPdd4iOOabhQRzV63C+6iBUQTK1qVtba7fXT3qrPHbWLhBdncIaeZLfamelvDGUDtbhNOVE+2DahOcYgI7pxDFz+yOPSo5VlaGlNmkxLfBS4h0KomMdaS5Iq2z0AQcgH/TAsxSipSCds5f02GTDdZA+9frBLdME0NHA2EU3oP0Ti+ROJYBoONGTANH1RMASrc2aWp39fIsvAm83FpElhtLVlqohiJY60VyY9m1zdeHwAvRt8/ujD5qv4DAFpl1utA7RXJh2ZaRV0aELppUbfSAAy02CtDTWESo09IwJnyaQjr7M1uK0sWaOS1zEJTU/CYiGEz0JEN1zkO68QZApFz3f8D4vJl8dWHuvdvIJ8UF0amGhD6il0Y2cDvQF2x97PvW4EWxZCw5LtMCzQXSKK+2DaPr6PgOEYwFa0q2jK9GONZB+242DXYMpUFRf5C4WdpQAgKhIR9pABkA0nOhJgejhla68RWVlV8sDVZoE0qbfq1liKF19fko40ZyMtPT3uNxnKUBfcs8T2VrWVAVpvsEssd07TJCm37HdAtGpIG0DarqtigwPOKA4B0CX7NghgekpBenonFpP/tC09IcqCVgA0XCiJwmik694NbWq911/et5HTZdtORaRI4bS2WJ2F0T78tCSAkPXbQlI5wLoy+/a+93cx89bcMiBaE68g37HjgEPpHckuNL6dp8Fdg8ytjaILlFouC/TMJbdngz51sFEtnGrASlqOELp5vzdOT5UvNTsBz0gGk70JEK09n5a6R5EHz3Ut8+06H72Lfe+Tnr+1z4bO/uE5CwslMB0KYB2QTQBdNHhGqGCw9R+0hTp2O4B6dSiQ7PwkMaNu4A3JzyXbn3HzUnbhrLQ1+h5nTDVecWVicmkdepDP773KiAaTvSkQrT2uTPfEYBeKT3yuvBn03LfYhFpUy27M/Qm2YmOiXTErlwATeO8G5lOlzKYJeRIf+yMN4cQvX2QFu/gFh7OMeE3JcoRm40u0bHDBtKz1bGeKJCOvhzY4z86DX7or8ReKgVEw4meZIgedVLX3luZJ9mx4XkNIjs39a5BIG3rNZwSQ+lqy0GWEx0b52gann0AXUUuGlLV3SFmMEso2mGD6BLxDh2kfW50qVUqH50BpCdlTHid912Rrk62FyqoOjcuO04EBpE9o4c/z1mNQLTsddJPiK5OFPiPsRsQzd7fLl89qmB6PS+9XBqeqysOaxA3KZ9hdQehlZjV1j5ro+EjPlM73BGqa0607f5Cbeyc0wjXAPrdmzdf1vQxTS44tME0ff+tFoguGfFQMN0kOLcZ6wiB9NbB0qSANARBUKdOWNeAuobdN7M4zmsngeRg9t11hjqumEx0CZCOAeeQA93mFLoKtmImHLpcaR2iby0A0q6IB7nR+zroREsLDSXFhr7c+H2DVwHSEARBpaH68NZ1p5qiC0cP1fn1pdq5pu1S/bVF+p71Nmo0yXCy+9hDPYHoEEDnBGkfQMdEOK7c+Y3jZ19zx7WdOMC+wSzS7h0U6YgB6dlEV3r2lOMjgFsSnqWOdAk32tn6rl4E0pfNzODTA4IgCIIA0exMdE43OhTdiAVoekydOsi+gkNJ9w4F0SGQzu1KU99oV+SiC060BKKTpxqeBOkqtgNBEARBECCa60SnuNEhMI8uICSA/vQLb73n1s/c2cXjXEVLXAWHzJz0htkrjw8hmgPTOzLAtFrUYm9fIL/cdCY61o2WRDtc+ejZ9TaAbUaGIAiCIAjqIERzQNoF1Lbbod/BBWgfRF94y667u3ysvYNZOCCtctESkN7uAWgRTJ9yvALLfQGAlkD1vowgHetI+2DaBdE7R49L1ZEFgiAIgiBAtDTSYYKy63YpeKY1c/sjj/bmoPsGs4RgWo90pMK0FKR1N3ofA6i5jvW+AnGOfZnGggOkIQiCIAiSQjTXiQ4Bdm6ANkF65rb5/b078LE5aR9E5wLpHQFH2gezB4zbHLDO6URz4dmMdMxFdOwwjsvbbhzswicKBEEQBAGis4B0KjyHAPqC7Y8939dj7x3M4oBpay46F0xzQJrc6DkmQHMy1Bx4jhm+IoXp3Yn5aIA0BEEQBAGiS0K0+TtTIhyX3PPEob4f/2oYjG8wi82V5kB0iisdAmpXrIMT9QgBthSeQ1MM92V2o4MgXQ1lWcAnCwRBEARNOUTboLdpeLZB9OV37f3upDwHwcEsJkiHIh2NRDwCsQ4uXOdec4lu9FxE/2gbSFPuHYIgCIKg6YboFICWwjPHhSaAnsipcb7BLBpMV5GO6wUQrYN0Lpj2xTpSgPpACwAtLTLkuNEAaQiCIAgCRLvcaBOqQ9+Xmn9W47wneewy5aS9BYdqEQxLQZrjSktiHjlBuqQjzS0wzB3rqEEaY8IhCIIgaIohmgPIOZ1nF0BXvZYnXNUAj1BOWkU6FEhfHwnSMYNaRmD6lOPWor42wTmm1Z1kJLgk1rGjykgvAaQhCIIgaIoh2oRp7r+58BwC6HO2bLl4Wp6X4GAWWtdHQnSuLh47NDd6zhGpaAOe90XEOXYLQHqnB6RdrQHvG7y68bKZGXziQBAEQdAUQ3SJZeu+oQP0aVdt2jSVT9D2wYun3r/lhNONtoF0blc65Ey7QLotmE7JRu8ulI/esQ7SU/s6hiAIgiBAdD5o5kY4zr7mjmun+klyDGYZFhjq69YEdzolL62D9JwlTpEbqOcEfaL3FYTonQJHmo7Tvb/wE0w3hCAIgiBAdDaQtq0rd37jOO0fnqWTg1nGXGndjXbFO5pwpgmiCSo5EJ3TsZ7L3J2jlBtt5MgB0hAEQRAEiF7NWjyorffc+pk78QydlD6YRcG01Y1uIittg2mXGz0nAOg5oducG6SbcKMx3RCCIAiCJgei9eK+tuGZ1oW37Lobz8641GCWCp7NAsMQSF9fEKbVCoG0BKqlwJ0CzrZWdxyYlmaj9aJM6myC6YYQBEEQ1G+ILg3PNoB2wfTM7Y88imcmoHowCznSXje6DZiWgHQqXM9lyEHHtrmLcaPN7iY7MJQFgiAIgnoL0aZL3BY8VwB92/x+PCs8jQxmsWWjORGPEkBNEL0zEpxdX8sJyk2C9Gwg1rHjZC9pvKIhCIIgqGcQ7YLeHPDMjW8AoONUtUx77PK/qzLSHIjOmZUOgfTuDEC7jwnVuSMdEpBWAL07wo3WQZp6SWMoCwRBEAT1C6Jt8MyFaV+7Oi5MX3LPE4fwbMSpAq/tgxdZsY4SQG2D6VsNkN5dyDWeK+hGSwoMJVMMZy2Rjh3oJQ1BEARBvYNoV/QiFM3wgTfHeVbr8rv2fhfPRAZRTpob6yiVl7615yC9OzLSsVNzpKWdOkbz0dUxq0a/QxAEQRDUD4j2AbQv7mFzmrkgTQCNS9j5VPUfjgHpHDBtA+pb6y4Uux2Q2jV4js1Ex44D3+FwpddAGr2kIQiCIKgHEB2KZMTGNELjvAHQ+VXFAW4YvJEM0ikwrYM07YsCzd0Ot7erAD1XqEuHD6AB0hAEQRDUfdFAEx1sObCcCtKXbv8iALqwNl42M1N1fIgBaROqc8Q8CKRt8OmC6d0twrPEhTadaClIM2AaQ1kgCIIgqIMy4xxcoI5dCqDP2bLlYhz9BkTDPFIAOidMu0B6t8MBLgXWuzO70GaUI7XdnZmR3g6QhiAIgqDOyeVE+1YMTFfwXEc40H2gWVUAFhvvyJWVDjnSPpjOAdW7hUWEcw050TsA0hAEQRA0ERBdaikH+uxr7rgWR715VScuN234YZZ4RypQc0DaB9O7mZEMyffGxDikxYXSdncGRFcLY8IhCIIgaPIhWrnPtL1y5zeOU3QER7xdJbvSOWB6uwCkQ4DNca13e/o/zwXgPacTnRjpAEhDEARB0BRAtA7QtKX7wdHuGEynOtO3Jnb0oB7SZteOUlC9O2N8g+NAS3LROwDSEARBEDT1EG3Cc7W9+X5kOTuqqoUadfFoKzNNIL0zA0Rz3OQcrjNnYmGBDh3W0eoAaQiCIAjqP0Tb4JnWzG3z+3GUewTU2wcvJjnUMUC9XYPPXM50U8uMcsTGOWJA+lYUG0IQBEFQbyHaBc+0Ltj+2PM4wv0U9ZmuAI1cailU3yoEanLBdxgObh+A2hblSIFoaaQDXTsgCIIgqD1deMuuu7NENgyAvuSeJw7h6E4QVM/MbKyjHwtDsOZEQLh5aRdIdxWoud04csU5XBB9KyYbQhAEQVCnIXrY55nhQF9+197vYhrhdIha59WO9cIwCkLrVmNYy/UMV5pAersFPG0OdZtQ7XOgm4xzGCCN/usQBEEQ1DJE68Bs3rZBs74wzhsiPfLI/ne8e/Pmy8ghHUK2crGVk02LCgsJnnWQnj3leJYOHTl7RzfV9i4iFz3c3vsLP8F7D4IgCIIahmhfREMC0BjnDcWI4I8WuakE3+rfvViXrf3HsejxuNbpV7//A65FJx8xi+4TryYIgiAI6ghEh+BZAfS51918NY4oBEEQBEEQNNUQzYHnSz++d/W9t8+dwDhvCIIgCIIgaCohmgXNGjwrgMY0QgiCIAiCIGjqIJoFzQY8V4uGqdz+yKM4ihAEQRAEQRAgOgTP9cI0QgiCIAiCIAgQHYBmfWGYCgRBEARBEDS1Ou/2+3dJ4JkWDVPBkYMgCIIgCIIA0Qx4piJCTCOEIAiCIAiCANEE0QFwVltMI4QgCIIgCIIgD0Tr8KwA+szNV1yEIwZBEARBEAQBojWINsEZAA1BEARBEARBFlGfZxOaTYA+Z8uWi3GkIAiCIAiCIIgB0QTQ7968+TIcJQiCIAiCIAhiQDQcaAiCIAiCIAgSQDQy0BAEQRAEQRAkgGj0gYYgCIIgCIIgAUQDoCEIgiAIgiBIANEXbH/seRwNCIIgCIIgCGLoipvv30ULRwKCIAiCIAiaVP1/kzjhet6EsAoAAAAASUVORK5CYIKzxIU2nWgpSDNgGkNZIAiCIKiDMuMcXKCOXQqgz9my5WIc/QZEwzxSADonTLtAerfDAS4F1rszu9BmlCO13Z2Zkd4OkIYgCIKgzsnlRPtWDExX8FxHONB9oFlVABYb78iVlQ450j6YzgHVu4VFhHMNOdE7ANIQBEEQNBEQXWopB/rsa+64Fke9eVUnLjdt+GGWeEcqUHNA2gfTu5mRDMn3xsQ4pMWF0nZ3BkRXC2PCIQiCIGjyIVq5z7S9cuc3jlN0BEe8XSW70jlgersApEOAzXGtd3v6P88F4D2nE50Y6QBIQxAEQdAUQLQO0LSl+8HR7hhMpzrTtyZ29KAe0mbXjlJQvTtjfIPjQEty0TsA0hAEQRA09RBtwnO1vfl+ZDk7qqqFGnXxaCszTSC9MwNEc9zkHK4zZ2JhgQ4d1tHqAGkIgiAI6j9E2+CZ1sxt8/txlHsE1NsHLyY51DFAvV2Dz1zOdFPLjHLExjliQPpWFBtCEARBUG8h2gXPtC7Y/tjzOML9FPWZrgCNXGopVN8qBGpywXcYDm4fgNoW5UiBaGmkA107IAiCIKg9XXjLrruzRDYMgL7knicO4ehOEFTPzGysox8LQ7DmREC4eWkXSHcVqLndOHLFOVwQfSsmG0IQBEFQpyF62OeZ4UBfftfe72Ia4XSIWufVjvXCMApC61ZjWMv1DFeaQHq7BTxtDnWbUO1zoJuMcxggjf7rEARBENQyROvAbN62QbO+MM4bIj3yyP53vHvz5svIIR1CtnKxlZNNiwoLCZ51kJ495XiWDh05e0c31fYuIhc93N77Cz/Bew+CIAiCGoZoX0RDAtAY5w3FiOCPFrmpBN/q371Yl639x7Ho8bjW6Ve//wOuRScfMYvuE68mCIIgCOoIRIfgWQH0udfdfDWOKARBEARBEDTVEM2B50s/vnf1vbfPncA4bwiCIAiCIGgqIZoFzRo8K4DGNEIIgiAIgiBo6iCaBc0GPFeLhqnc/sijOIoQBEEQBEEQIDoEz/XCNEIIgiAIgiAIEB2AZn1hmAoEQRAEQRA0tTrv9vt3SeCZFg1TwZGDIAiCIAiCANEMeKYiQkwjhCAIgiAIggDRBNEBcFZbTCOEIAiCIAiCIA9E6/CsAPrMzVdchCMGQRAEQRAEAaI1iDbBGQANQRA=;" vertex="1" parent="1">
          <mxGeometry x="660" y="40" width="108.42" height="40" as="geometry" />
        </mxCell>
      </root>
    </mxGraphModel>
  </diagram>
</mxfile>
